<?xml version="1.0" encoding="utf-8"?>
<!-- Generator: Adobe Illustrator 23.0.0, SVG Export Plug-In . SVG Version: 6.00 Build 0)  -->
<svg version="1.1" id="Layer_1" xmlns="http://www.w3.org/2000/svg" xmlns:xlink="http://www.w3.org/1999/xlink" x="0px" y="0px"
	 viewBox="0 0 145 92" style="enable-background:new 0 0 145 92;" xml:space="preserve">
<style type="text/css">
	.st0{fill:none;stroke:#231F20;stroke-width:0.5;stroke-miterlimit:10;}
	.st1{fill:#231F20;}
	.st2{font-family:'Helvetica';}
	.st3{font-size:8px;}
	.st4{fill:none;stroke:#69BC45;stroke-width:1.0005;stroke-miterlimit:10;}
	.st5{fill:none;stroke:#3853A3;stroke-miterlimit:10;}
	.st6{fill:none;stroke:#B8529E;stroke-miterlimit:10;}
	.st7{fill:none;stroke:#A6A8AB;stroke-width:0.5002;stroke-linejoin:round;stroke-miterlimit:10;}
	.st8{fill:none;stroke:#000000;stroke-linejoin:round;}
	.st9{fill:none;stroke:#3853A3;stroke-width:1.0005;stroke-miterlimit:10;}
	.st10{fill:none;stroke:#B8529E;stroke-width:1.0005;stroke-miterlimit:10;}
	.st11{fill:none;stroke:#000000;stroke-width:1.0005;stroke-linejoin:round;}
	.st12{fill:none;stroke:#D75327;stroke-width:0.5002;stroke-linejoin:round;stroke-miterlimit:10;}
	.st13{fill:none;stroke:#A21D31;stroke-width:0.5002;stroke-linejoin:round;stroke-miterlimit:10;}
	.st14{fill:none;stroke:#7F2F8C;stroke-width:0.5002;stroke-linejoin:round;stroke-miterlimit:10;}
	.st15{fill:none;stroke:#ECB020;stroke-width:0.5002;stroke-linejoin:round;stroke-miterlimit:10;}
	.st16{fill:none;stroke:#76AC42;stroke-width:0.5002;stroke-linejoin:round;stroke-miterlimit:10;}
	.st17{fill:none;stroke:#50BDEC;stroke-width:0.5002;stroke-linejoin:round;stroke-miterlimit:10;}
	.st18{fill:none;stroke:#0B72B9;stroke-width:0.5002;stroke-linejoin:round;stroke-miterlimit:10;}
</style>
<g>
	<g>
		<polyline class="st0" points="21.5,39.9 9.2,39.9 9.2,40.1 9.2,29.4 		"/>
		<g>
			<path class="st1" d="M23,39.9c-0.7-0.3-1.6-0.7-2.1-1.2l0.4,1.2l-0.4,1.2C21.4,40.6,22.3,40.2,23,39.9z"/>
		</g>
		<g>
			<path class="st1" d="M9.2,27.9c0.3,0.7,0.7,1.6,1.2,2.1l-1.2-0.4L8,30C8.5,29.5,8.9,28.6,9.2,27.9z"/>
		</g>
	</g>
</g>
<text transform="matrix(6.123234e-17 -1 1 6.123234e-17 7.2341 41.7852)" class="st1 st2 st3">PC1</text>
<text transform="matrix(1 0 0 1 8.3024 47.0315)" class="st1 st2 st3">PC2</text>
<path class="st4" d="M107.7,6.1c0-0.7-0.5-1.2-1.2-1.2s-1.2,0.5-1.2,1.2s0.5,1.2,1.2,1.2S107.7,6.7,107.7,6.1"/>
<text transform="matrix(1 0 0 1 111.6044 8.5844)" class="st1 st2 st3">sample</text>
<path class="st5" d="M107.7,14.2c0-0.7-0.5-1.2-1.2-1.2s-1.2,0.5-1.2,1.2c0,0.7,0.5,1.2,1.2,1.2S107.7,14.8,107.7,14.2"/>
<text transform="matrix(1 0 0 1 111.6044 16.6906)" class="st1 st2 st3">delay</text>
<path class="st6" d="M107.7,22.6c0-0.7-0.5-1.2-1.2-1.2s-1.2,0.5-1.2,1.2s0.5,1.2,1.2,1.2S107.7,23.2,107.7,22.6"/>
<text transform="matrix(1 0 0 1 111.6044 25.0844)" class="st1 st2 st3">response</text>
<g>
	<path class="st7" d="M31.4,29l0.1-0.2L30,27.9l-2.5-1.3l-2.6-1.3l-2-1.2l-1.2-0.9L21,22.5l-0.4-0.7l-0.2-0.6l0-0.6l0.1-0.6l0.2-0.7
		l0.3-0.7l0.5-0.5l0.9-0.3l1.5,0.1l2.3,0.7l3.2,1.4l3.7,1.8l3.2,2l1.8,1.9l0.4,1.7l-0.2,1.2L38.2,29l-0.1-0.9L37.4,26L36,23
		l-2.1-3.2l-2.3-3.1l-2-2.4l-1.4-1.8l-0.8-1.2l-0.2-0.8l0-0.4l-0.1-0.1l-0.4,0.4L26,11.2l-0.9,1.4l-0.9,2l-1,2.3l-1,2.6l-1.3,2.8
		l-1.8,2.9L17.1,28l-2,2.4l-1.5,1.7l-0.9,0.8l-0.4,0.2 M25.7,30.3l0.2-0.1l-0.4-0.6l-1-0.9l-1.4-1.1l-1.4-1.1l-0.9-0.9l-0.1-0.5
		l0.6-0.3l1.2-0.2l1.3-0.3l1-0.5l0.4-0.6l0-0.6l0-0.6l0.3-0.7l0.6-0.9l0.4-1.3l-0.1-1.4l-0.5-1l-0.2-0.4l0.8,0.5l2.3,1.6l3.3,2.5
		l3.4,2.5l2.4,1.3l0.6-0.5l-1-2l-2.1-2.7l-2.4-2.6L31,15l-1.4-1l-0.7-0.4l-0.2-0.2l-0.1-0.2L28.5,13l-0.3-0.3l-0.5-0.1l-0.3,0.2
		L27,13.5l-0.7,1.4l-1.4,2.2l-2,2.7l-2.4,2.8l-2.3,2.4l-2,1.9l-1.4,1.3l-0.8,1l-0.4,0.8 M32.7,32.6l0.1,0.3l-0.3-0.3l-0.4-0.7
		L31.4,31L30.4,30l-1.4-1l-1.5-0.9l-0.9-0.7l-0.3-0.6l0.3-0.5l0.5-0.5l0.5-0.5l0.3-0.5l-0.2-0.6l-0.6-0.7l-0.5-0.6l-0.3-0.5l0.1,0.1
		l0.4,0.7l0.5,1.2l0.5,1.4l0.4,1.2l0.6,1l1,0.7l1.5,0.3l1.4-0.3l0.7-1l-0.2-1.6l-1.1-1.8l-1.7-1.7l-1.8-1.2l-1.5-0.8l-1-0.4
		l-0.8-0.2l-0.8-0.2l-0.8-0.4l-0.5-0.5l0.1-0.4l0.4,0l0.3,0.5L23.7,20l-1.2,1.4l-2,1.9l-2.4,2.2L16,27.6l-1.5,1.8l-0.8,1.3l-0.3,0.9
		 M29.1,30.9l0.9-0.7l-0.2-1.2l-1.1-1.5l-1.4-1.7l-1.1-1.7l-0.8-1.4L25,21.7l0-0.3l0.5,0.1l1.2,0l1.9-0.3l1.8-0.7l0.9-1l-0.4-1.1
		l-1.5-1l-1.9-0.6L26,16.6l-0.8,0l0.1,0.2l1.3,0.5l2.2,1l2.6,1.6l2.5,1.7l2.1,1.1l1.4,0.2l0.7-0.4L38,21.9l-1.2,0l-2,0.2l-2.3-0.2
		l-2-0.8L29,19.7l-0.9-1.4l-0.5-1.1l-0.3-0.6l-0.1-0.2l-0.3,0l-0.7,0.2l-1.3,0.7l-1.8,1.4L21,21.1l-2.2,2.8l-2,2.9l-1.6,2.5
		l-1.2,1.9l-0.7,1.2L12.9,33l0,0.3 M33.8,31.1l0.5,0L33,30.1l-2.5-1.8l-3.1-1.9l-2.6-1.6l-1.5-1.2l-0.5-0.9l0.4-0.8l1-0.8l0.9-0.9
		l0.5-1.2l0.2-1.3l0.2-1.2l0.4-0.5l1,0.6l1.5,1.5l1.7,1.7l1,1.1l-0.1,0.1l-0.7-0.5l-0.1-0.2l1.2,0.9l2.4,2l2.6,2.1l1.9,1.1l0.3-0.2
		L38,25.1l-2-1.3l-2.5-1.3l-2.6-1.2l-2.2-1.3l-1.5-1.3l-0.9-1.1l-0.4-0.3l-0.3,0.4l-0.3,1l-0.4,1.4l-0.2,1.6l0.1,1.8l0.4,2.1
		l0.6,2.2l-0.1,2l-1.3,1.5l-2.4,1l-2.9,0.4l-2.5,0.1l-1.8,0l-1.1,0.1 M28,28.4l-0.2-0.2l-1.3-0.7l-1.9-1.1l-1.8-1.2L21.8,24
		l-0.3-1.2l0.5-1.4l1.1-1.5l1.5-1.5L26,17l1.1-1.4l0.6-1.4l0.1-1.2l-0.2-0.7l-0.3,0l-0.1,0.5l0.1,0.9l0.1,1l0.2,1l0.3,1l0.9,1.3
		l2,1.7l2.7,1.9l2.6,1.2l1.6,0l0-1.4l-1.5-2.2l-2.4-2.2l-2.4-1.7l-2-1L28,13.9L27,14l-1,0.4l-0.9,0.4l-0.9,0.5l-0.8,0.6l-0.5,1.1
		l0,1.6l0.4,2l0.3,2l-0.2,2l-1.1,2l-1.9,1.9L18,30.1l-2,1l-1.4,0.6L13.8,32l-0.3,0.4 M31,29.8l0.7,0.4l-0.5-0.4l-2-1.4l-3-2
		l-2.8-1.9L21.6,23l-0.2-0.7l1.2-0.3l2.3,0l2.5,0.1l1.8-0.2l0.9-0.8l0.1-1.4l-0.1-1.6l0.1-1.2l0.2-0.5l0.2,0.1l0.3,0.5l0.8,0.7
		l1.2,0.9l1.4,1.3l1.6,1.9l1.6,2.4l1.2,2.5l0.1,2.3l-1.2,1.6l-1.5,1l-1.1,0.5l-0.3,0.1l0.2-0.1l0.2-0.4l-0.3-0.9l-1.1-1.3l-1.8-1.4
		l-2.1-0.8l-1.9,0.1l-1.4,0.8L25.7,29l-0.4,0.6l-0.4,0.1l-0.8-0.3l-1.7-0.3l-2.5,0l-2.6,0.4l-2,0.4L14,30.3l-0.5,0.3l0,0.5
		 M27.5,28.6l0.8,0.3l0.2-0.3l-0.2-0.8l-0.6-1l-1.1-1l-1.2-0.9l-0.9-0.8L24.3,23l0-0.9l0-0.9l-0.1-0.6l-0.1-0.3l0-0.3l0.1-0.4
		l0.3-0.6l0.6-0.5l1-0.1l1.6,0.4l2.4,0.9l2.9,1.5l2.6,1.7l1.5,1.6l0.2,1.2l-0.7,0.6l-0.9,0l-1-0.6l-1.1-1l-1.4-1.2l-1.7-1.2
		l-1.7-1.2l-1.5-1.4l-1-1.6l-0.5-1.6l-0.2-1.1l-0.3-0.1l-0.7,1l-1.2,1.7L22.1,20l-1,1.2L20.7,22l-0.3,0.8l-0.6,1.1l-1.3,1.5
		l-1.7,1.7l-1.7,1.7l-1.3,1.5L13,31.5l-0.3,0.9 M26,29.7l0.6,0.9l0.3,0.9l0.6,0.9l1.1,1l1.5,1l1.4,0.8l0.9,0.4l0.2-0.1l-0.3-0.3
		L31.8,35l-0.4,0.1l-0.3,0.2l-0.3-0.2l-0.7-1l-1.1-2l-1.5-2.6l-1.7-2.7l-1.7-2.4l-1.5-1.8l-1.1-1.2L21.3,21l1,0.5l2.3,1.1l3.3,1.3
		l3.3,0.7l1.7,0.1l-0.2-0.2L31,24.5l-2.2,0.3l-2.1,0.4l-1.6,0l-1-1l-0.5-1.8l-0.3-2l-0.3-1.4l-0.6-0.6l-0.9,0.1L20.1,19l-1.3,1
		l-1.1,1.3l-1,1.5l-0.9,1.6l-0.7,1.7l-0.7,1.7L14,29.5l-0.3,1.3l0,1l0.2,0.8 M28.3,28.8l-1.2-1.1l-1.7-1.6l-1.9-1.8L21.9,23l-1.3-1
		l-0.7-0.6L19.7,21l0.6-0.2l0.9-0.2l0.7-0.1l0,0.1L21.3,21l-0.8,0.4l-0.6,0.3l-0.1,0l0.4-0.3l0.7-0.5l0.9-0.5l1-0.1l1.2,0.3l1.7,1
		l2.5,1.9l3.3,2.5l3.5,2.1l2.7,1l1-0.4l-0.8-1.6l-2.2-2.2l-2.8-2.3l-2.8-2l-2-1.5l-1.3-1.1l-0.7-0.7l-0.4-0.5l-0.1-0.5l0-0.6
		l-0.1-0.6l-0.3-0.2l-0.6,0.5l-1,1.2l-1.4,1.7l-1.8,2.2l-2,2.6l-2,2.8l-1.6,2.3l-0.9,1.4l-0.3,0.5l0.1,0.2 M30.9,30.5l0.7-0.3
		L30.4,29l-2.7-2l-3.1-2.2L22.4,23l-1.1-1.6l0-1.3l0.6-1l0.9-0.4l0.9,0l0.9,0.3l0.8,0.3l0.6,0.3l0.3,0.2l0.1,0.1l-0.2-0.1l-0.1-0.3
		l0.1-0.3l0.4-0.2l0.9,0.3l1.7,1l2.4,1.5l2.7,1.8l2.2,1.9l1.1,1.8l0,1.5l-0.9,0.9l-1.3,0.1l-1.5-0.9l-1.6-1.6l-1.5-2l-1.6-1.9
		l-1.5-1.1l-1.3,0.2l-0.9,1.4l-0.4,1.9L25,27.3L24.7,28l-0.8-0.2l-1.4-0.6l-1.7-0.6l-1.8,0l-1.8,0.7l-1.6,1.3l-1.3,1.5l-0.9,1.3
		L13,32.4l-0.1,0.5 M31.2,26.9l0.3-0.4l-0.3-0.9l-0.6-1.1l-0.6-1l-0.6-1l-0.6-1.1l-0.5-1.3l-0.3-1.4l-0.2-1.4l-0.2-1.4l0-1l0.2-0.3
		l0.4,0.5l0.6,1l0.4,0.9l0.1,0.3L29.1,17l-0.4-0.6l-0.2-0.3l0.4,0.3l1,0.9l1.5,1.4l1.8,1.6l1.7,1.4l1,0.5l-0.1-0.4l-1.3-1l-2.2-1
		l-2.7-0.4l-2.7,0.3l-2.2,0.7l-1.3,0.8L22.6,22l-0.4,0.5l-0.6,0.1l-0.9-0.2l-1-0.5l-0.8-0.5l-0.6-0.3L18,20.9l-0.2-0.1l-0.3,0.4
		l-0.7,1.4l-1.1,2.3l-1.1,2.8L13.8,30l-0.5,1.4l-0.2,0.9 M33.5,26.9l-0.9-1l-2-1.2l-2.5-1.2l-2.5-0.9l-2.1-0.6l-1.4-0.5L21.5,21
		l0.2-0.6l0.9-0.5l1.3-0.5l1.3-0.6l0.9-0.9l0.2-0.9L26,16.4l-0.4,0.2l-0.1,1.1l0.3,1.6l0.7,1.6l1,1.1l1.6,0.5l2,0.4l2.4,0.6l2.4,1
		l2,0.9l1.3,0.3l0.4-0.7l-0.8-1.6l-2.1-1.8l-3-1.6l-3-0.8l-2.2,0.3l-1.3,1.3l-0.6,1.7l-0.5,1.4l-0.4,0.6L25.2,24l-0.4-1.2l-0.3-1.5
		L24.3,20l-0.4-0.4l-0.6,0.8l-1,2l-1.4,3l-1.2,3.2l-0.5,2.7l0,1.6l-0.3,0.7l-1.1,0.1 M30.3,28.7l0.1-0.2l-1-1L27.6,26l-2.3-1.6
		l-2-1.5l-1.1-1.4l0-1.3l1-1.2l1.5-1l1.3-0.7l0.8-0.4l0.3-0.2l0.3-0.1l0.6-0.2L29,16l0.9-0.2l0.6-0.2l-0.1,0l-0.6,0.1l-0.7,0.3
		l-0.3,0.7l0.8,1.3l1.7,1.9l1.9,2.1l1.1,2l-0.1,1.5L33,26.6l-1.7,0.8l-1.7,0.5l-1.6,0l-1.7-0.6l-1.8-0.9l-1.6-1l-1.1-1l-0.6-1.2
		l-0.4-1.5l-0.4-1.6l-0.2-1.7l0.1-1.6l0.2-1.1l0-0.1l-0.6,1.6l-1.2,3.2l-1.6,4l-1.6,3.8l-1.2,2.7l-0.7,1.4l-0.3,0.6 M26.7,27.3
		l0.5-0.2l-0.7-0.4l-1.4-0.6l-1.6-0.7l-1.2-0.9l-0.5-1.1l0.4-1.2l1.1-1.1l1.4-0.9l1.2-0.7l0.5-0.4l-0.4-0.1l-1.2-0.1l-1.7-0.3
		l-1.4-0.7L21,17.1l0.2-0.5l1.1-0.1l1.8,0.4l2.1,0.9l2.2,1.7l2.4,2.3l2.5,2.3l2.4,1.3l1.7-0.4l0.4-1.7l-1.1-2.3l-2.3-2.2l-2.6-1.8
		l-2.1-1.3l-1.4-0.6l-1.1-0.2l-0.9,0.3l-0.8,0.4l-0.5,0.4l-0.2,0.3l-0.1,0.1l-0.4,0l-0.7,0.3l-1.1,0.7l-1.4,1.5l-1.6,2.2l-1.8,2.8
		l-1.8,3l-1.5,2.6l-1,1.7L13,32.5l-0.1,0.2 M26.2,29.3l0.6,0L26,28.6l-1.7-1.4l-1.8-1.7l-1.1-1.4l-0.4-1L21,22.3l-0.1-0.8l0-1l0.4-1
		l0.8-0.8l1.1-0.3l0.9,0.2l0.3,0.4l-0.2,0.1l-0.4-0.5l-0.2-0.9l0.1-0.7l0.4,0l0.8,0.9l1.6,1.6l2.9,2l3.9,1.9l4.1,1.2l2.9,0.1l0.8-1
		l-1.4-1.9l-2.8-2.2l-3-1.9l-2.3-1.2l-1.2-0.5l-0.5-0.2l-0.2-0.4l-0.2-0.9l-0.5-1l-0.9-0.7l-1.2-0.1l-1.3,0.4L24,14l-1.3,1.4
		l-1.4,2.1l-1.6,2.9L18,24l-1.7,3.4L15,30l-0.9,1.4l-0.4,0.5L13.5,32 M29.1,29.3L28,29.2l-1.8-0.5l-1.9-1l-1.4-1.3L22,25.1l-0.2-1.3
		l-0.1-1.4l-0.1-1.6l-0.2-1.6l-0.1-1.4l0-1.1l0.2-0.6l0.5-0.1l0.7,0.4l1,0.5l1.3,0.2l1.5-0.4l1.5-0.6l1.3-0.2l1,0.6l1.2,1.6l1.8,2.4
		l2.3,2.7l2.3,2.3l1.5,1.3l0.1-0.1L38,25.4l-2.3-2.5l-2.5-2.9L31,17.7l-1.7-1.4l-1-0.4L28.1,16l0.3,0.2l0.2,0.3l0,0.3l-0.1,0.5
		l0.2,0.5l0.5,0.5l0.2,0.6l-0.9,0.9L26,21.3l-3.5,2.4l-3.6,2.7l-2.8,2.2L14.4,30l-0.9,0.8l-0.3,0.7 M27.5,28.3l1.3,0.3l0.3-0.2
		L28,27.5l-2-1.5l-2.1-1.8l-1.3-1.7l-0.1-1.3l0.6-0.8l0.6-0.5l0.3-0.3l-0.1-0.2l-0.2-0.1l0.1,0.1l0.7,0.2l1.2-0.1l1.3-0.4l0.9-0.8
		l0.3-0.9l0-0.6l0.2,0.3l1,1.5l1.9,2.4l2.7,2.6l2.7,1.9l1.8,0.8l0.6-0.1l-0.5-0.6L37,25.1l-2.2-0.7l-2.4-0.8l-2-1.1L28.8,21L27.5,19
		L26.1,17l-1.3-1.8l-1.1-1.1l-0.8-0.2l-0.3,0.7l0.2,1.3l0.3,1.5l-0.3,1.7l-1.3,2.1l-2.1,2.6l-2.3,2.9l-1.9,2.7l-1.2,1.9l-0.5,1
		l-0.1,0.3 M30.5,29.8l0.1-0.7l-1-1.2l-1.5-1.5l-1.7-1.7L25,23l-0.9-1.6L23.6,20l0-1l0.3-0.5l0.7,0.1l0.8,0.3l0.5,0.2L26,19
		l-0.4-0.3l-0.3-0.1l0.2-0.1l0.8-0.3l1.1-0.3l1.1,0.1l1.1,0.9l1.5,1.8l2.4,2.4l3.3,2.5l3.4,1.7l2.6,0.5l0.8-0.9l-1.2-2l-2.6-2.4
		l-3.4-2.3L33,18.5l-2.7-0.9l-2-0.5l-1.4-0.2l-1.1-0.2l-0.9,0l-0.7,0l-0.6,0.1l-0.5,0l-0.6,0l-0.6,0.5l-0.7,1.2l-1,2.1l-1.4,2.7
		l-1.7,2.9l-1.7,2.7l-1.3,2.2L13,32.6l-0.5,0.9 M27.5,31.5l-1.3,0.8l-1.8,0.5l-1.7,0l-1.3-0.3L20.8,32l-0.1-0.4l0.4-0.2l1.1,0.1
		l1.9,0.3l2.4,0.3l2.4,0.1l1.9,0l0.9-0.2l-0.1-0.3l-0.5-0.3L31,31.1l0.1-0.3l0.3-0.5l0-0.8l-0.3-1l-0.4-1.1l-0.3-1.1l-0.1-1l0.3-0.7
		l0.6-0.5l0.5-0.7l0-1.1l-0.7-1.6L29.9,19l-1.6-1.5l-1.6-1L25.1,16L23.7,16l-1.3,0.4l-1.1,0.7l-0.9,0.5l-0.7,0.1l-0.5-0.3l-0.3-0.3
		l-0.3,0l-0.4,1l-0.7,2l-1.1,3l-1.2,3.4l-1,2.8l-0.6,1.8L13.3,32l0.1,0.5 M32.9,28L32.9,28L32,27.1l-1.3-1.8l-1.3-2.2l-1.1-2.2
		l-0.8-2l-0.2-1.8l0.2-1.6l0.3-1.2l-0.1-0.6l-0.4,0l-0.4,0.5l-0.1,0.6l0.3,0.6l0.5,0.6l0.4,0.5l0.1,0.2l-0.4-0.1l-0.5-0.2L27,16.7
		l0.6,0.8l1.5,1.4l2.3,1.6l2.3,1.4l1.3,0.3l-0.3-0.9l-1.7-1.9l-2.4-2.2l-2.4-1.7l-2.1-0.9l-1.7,0.1L23,15.6l-1.2,1.5L21,18.9
		l-0.4,1.4l-0.1,0.9l-0.1,0.1l-0.1-0.5L20.1,20l-0.3-0.7l-0.5,0l-0.8,1.1l-1.1,2.5L16,26.2l-1.3,3.3l-1,2.5l-0.5,1.4L13,33.9
		 M27.3,26.2l-0.5-0.5l-0.9-1L25.2,23l-0.2-2.2l0.3-2.3l0.6-2.2l0.6-1.7l0.7-1.1l0.7-0.2l0.4,0.5l0,0.9l-0.6,0.9L26.8,16l-0.5,0
		l0-0.5l0.2-0.8l0-0.9L26.1,13l-0.6-0.5l0,0l1.1,0.9l2.4,1.8l3.3,2.5l3.5,2.5l2.8,1.7l1.2,0.4l-0.7-1l-2.4-1.7l-3.4-1.9l-3.4-1.4
		l-2.7-0.5l-1.9,0.4l-1.1,1.2l-0.5,1.7l-0.2,2l-0.1,2.2l0,2.1l0,1.6l-0.2,0.8l-0.6,0l-1-0.5L20.4,27l-1.9,0.5L16.5,29l-1.8,1.9
		l-1.2,1.7l-0.6,1l-0.2,0.5 M27.9,28.9l0.8-0.6l-0.1-1.2l-0.9-1.7l-1.3-1.7l-1.3-1.3l-0.8-1l-0.1-0.6l0.4-0.2l0.6-0.1l0.5-0.3
		l0.2-0.6l-0.1-0.7l-0.1-0.7l0.1-0.3l0.4,0.1l0.6,0.3l0.5,0.2l0.3,0.3l0.1,0.3l0.1,0.3l0.6,0.5l1.5,1l2.3,1.8l2.5,2.2l1.8,1.6
		l0.3,0.4L35.5,26L33,24.5l-3-1.6l-2.8-1.2l-2.2-0.9l-1.4-0.9l-0.7-1L22.7,18l-0.1-0.1l-0.1,0.8l-0.1,1.6l0,1.9l0,1.8l-0.1,1.6
		L22,27.1l-1,1.3l-1.6,1.3l-2,1.4l-1.9,1.3L14,33.3l-0.7,0.2l-0.2-0.3 M28.8,31.1l0.6-0.3l0.1-0.8l-0.4-1.1l-1-1.5l-1.1-1.8
		l-0.9-1.9L25.7,22l-0.1-1.1l-0.1-0.4l-0.4,0.3l-0.6,0.5l-0.5,0.4l0,0.3l0.7,0.2l1.3,0.2l1.6,0.2l1.2,0.2l0.5,0l-0.2-0.4l-0.3-0.6
		l0.1-0.3l1.1,0.4l2.3,1.1l2.8,1.2l2.2,0.5l1-0.5L38,23.1l-1.7-1.2l-2.5-1.1L31,19.9L28.6,19l-1.5-1.1l-0.7-1.2l-0.3-0.9l-0.4-0.2
		l-0.5,0.8L24.6,18l-0.7,2l-0.6,2l-0.2,2l0.3,1.9l0.3,1.8l-0.7,1.6l-2,1.3l-2.7,1.1l-2.5,0.9l-1.7,0.5l-0.9,0.4 M28.3,27.3l0.6-0.1
		l0.2-0.9L29,24.9l-0.5-1.6l-0.6-1.6L27.5,20l-0.2-1.7l0-1.6l0.1-1.2l0-0.8l0-0.3l-0.1,0l0.1,0.1l0.4,0l0.7,0l0.6,0l0.2,0.1l-0.3,0
		l-0.6,0L28,14.7l0.3,0.8l1.2,1.6l2.3,2l2.7,1.8l2.2,1.2l1,0.7L37.3,23l-1.4-0.5L34,21l-2.2-2.1l-2.1-2.2L27.7,15L26,14.2l-1.6,0.1
		L23.2,15l-0.7,0.9l-0.1,0.8l0.3,0.7l0.2,0.5l-0.3,0.5l-1,0.7l-1.6,1l-1.7,1.6L16.6,24l-1.3,2.6l-1,2.4L13.7,31l-0.5,1.3 M27.1,27.5
		l0.2,0.4l-0.8-0.1l-1.3-0.7l-1.3-1.1l-1-1.5l-0.4-1.7l0.2-1.5l0.9-1.4l1.2-1.1l1-0.7l0.3-0.4l-0.3-0.4l-0.6-0.5l-0.5-0.7l-0.3-0.7
		l0.2-0.4l0.7-0.1l1,0.1l0.9,0.4l0.7,0.8l1,1.4l1.9,1.9l2.8,1.8l3.1,1.3l2.4,0.6l1.2,0.1l-0.3,0l-1.8-0.3L35.5,22l-3.4-1.4L29,18.9
		l-2.1-1.3L25.6,17l-0.7,0.3l-0.8,1.1l-0.9,1.4l-0.9,1.4l-0.8,1.1l-0.6,0.9l-0.6,0.8l-0.8,0.9l-1,1L17.2,27l-1.3,1.5l-1.2,1.6
		l-0.9,1.4l-0.5,1l-0.2,0.5 M32.2,25.4l-1.5-0.8l-2.4-0.9l-2.5-1.1l-2.1-1.2l-1.6-1.1l-1.2-0.9l-0.7-0.6l0-0.5l0.7-0.5l1-0.6
		l0.9-0.4l0.4-0.3l-0.2-0.4l-0.5-0.6l-0.5-0.7L22,14.2l0-0.4l0.3,0l0.8,0.3l1.3,0.8l2,1.5l2.9,2l3.4,2.1l3.1,1.6l1.8,0.6l0-0.3
		l-1.4-0.9L34,20.5l-2.3-1l-2.5-0.6l-2.6-0.3L24,18.6l-2.2,0l-1.7,0L19,18.4l-0.7,0l-0.3,0l0,0.1l0.1,0.1l0.1,0.1l-0.2,0.5l-0.6,1.4
		l-1,2.5l-1.2,3.2L14,29.5l-0.7,2.2L13,32.9l0,0.5 M27.1,28.4l-0.3-0.3l-1.1-0.5L24.3,27l-1.1-0.6L22.5,26l-0.7-0.4L21,25l-1-0.7
		l-0.9-0.9l-0.6-1.3l-0.1-1.6l0.3-1.5l0.6-1.1l0.9-0.4l1,0l1.1,0.2l1,0.1l0.8,0l0.9,0.3l1.2,1l1.8,1.8l2.4,2.3l2.5,2.3l2.1,1.4
		l1.2-0.1l0.2-1.6l-0.8-2.6l-1.5-2.7l-1.9-2.3l-2-1.5l-1.7-0.7l-1.3,0l-0.8,0.5l-0.6,0.6l-0.5,0.2l-0.6-0.3l-0.6-0.7l-0.6-0.6
		l-0.4,0.1l-0.3,1.2l-0.3,2L21.7,21l-1.5,2.7l-2.1,3l-2.2,2.8l-1.7,2l-0.9,1.1L13,32.9 M26.8,27.6l1.2-0.7l0.4-1.1l-0.5-1l-1.3-0.6
		l-1.8-0.3l-1.8-0.3l-1.3-0.8l-0.4-1.2l0.3-1.3l0.7-0.9l0.6-0.4l0.3-0.3l0.1-0.6l-0.1-0.9L23,16.3l0-0.6l0-0.4l0-0.3l0.1-0.1
		l0.4,0.8l0.5,1.9l0.5,3l0.4,3.4l0.3,3l0.4,2l0.4,0.8l0.3-0.2l0.2-0.7l0.3-0.7l0.8-0.5l1.5-0.3l1.7-0.3l1-0.3l0-0.3L31,25.7L29.6,25
		l-1.7-0.9l-2.1-0.8l-2.1-0.6L22,22.4l-1.3-0.1l-1.2,0.5l-1.4,1.4l-1.5,2.3l-1.4,2.6l-1,2.2l-0.6,1.5l-0.3,0.8 M23.2,27.9l0.2-0.7
		l0.6-0.1l1.4,0.7l2.2,1.3l2.6,1.4l2.3,1l1.4,0.2l0.1-0.6l-1-1.2l-1.7-1.5l-2.1-1.6l-2-1.4l-1.7-1.5l-0.9-1.9l-0.2-2.4l0.2-2.7
		l0.1-2.4l-0.2-1.5l-0.5-0.2l-0.3,1l0.2,1.6l1.2,1.7l2.2,1.2L30,19l2,0.2l0.4-0.4L31,18l-2.7-1.1l-3-1.2l-2.5-0.9L21,14.4l-1.2,0.3
		L19,15.6l-0.7,1.1l-0.5,1l-0.3,0.5l-0.1,0l0-0.4l0.1-0.5l0-0.1l-0.2,0.8L16.7,20l-0.9,3.1l-1,3.4l-0.9,2.9l-0.6,1.8l-0.3,1
		l-0.2,0.6 M30.1,29.3l0,0.1l-1.3-0.7l-2.1-1.3l-2.1-1.6l-1.5-1.5l-0.5-1.4l0.4-1.3l1-1.4l1.3-1.3l1.1-1l0.7-0.7l0.3-0.4l0.1-0.2
		l-0.1-0.1l-0.1-0.2L27,15.8l-0.4-0.3l-0.5,0L25.8,16l0,0.7l0.8,1l1.7,1.2l2.6,1.2l2.7,0.5l1.9-0.5l0.5-1.1l-0.9-1.5l-1.8-1.6
		l-2.2-1.5l-2-1.2l-1.6-0.7l-1.2-0.2l-1.1,0.4l-1.2,0.9l-1.2,1.2l-1,1.2l-0.6,1l-0.2,0.8L21,18.4l-0.5,0.9l-1,1.7l-1.4,2.5l-1.6,3.2
		L15,29.8l-1.2,2.4l-0.7,1.4l-0.3,0.7l-0.1,0.3 M29.8,28.6l0.9-0.1l0.2-0.6l-0.5-1.3L29.1,25l-1.6-1.6L26.2,22l-0.8-1l-0.1-1
		l0.5-0.9l0.9-1l0.9-1l0.5-1.1l0-1.1l-0.4-0.7l-0.5-0.3l-0.4-0.2l-0.2-0.1l0.2-0.2l0.5,0l0.9,0.3l1,0.9l1,1.3l0.9,1.3l0.7,0.8l0.1,0
		l-0.7-0.7L30,16.5l-1.7-0.4l-1.7,0.2L25,16.7l-1.3,0.6l-1.2,0.5l-1.1,0.3l-0.8,0l-0.5-0.2l-0.3-0.3l-0.2-0.2l-0.2-0.1l-0.2,0.2
		l-0.3,0.7l-0.5,1.5l-0.7,2.5l-1,3.2l-1.2,3.2l-1.2,2.6l-0.9,1.8l-0.5,0.9l-0.2,0.5 M28.3,27.8l-0.4,0.4l-1.6-0.2l-2.2-0.8L21.9,26
		l-1.7-1.4l-1.1-1.3L18.7,22l0-1l0.5-1l1-0.9l1.4-1l1.5-0.9l1.3-0.8l0.8-0.3l0.1,0.2L25,16.8l-0.2,0.4l0.1,0.3l0.5,0.2l0.9,0.5
		l1.3,0.9l1.7,1.5l1.9,1.7l1.8,1.1l1.2-0.3l0.3-1.5L34,19.5l-0.9-2L32.2,16l-0.9-0.9l-0.9-0.4l-1.1,0l-1.4,0.1l-1.6,0.3l-1.7,0.6
		L23,16.5l-1,0.8l-0.5,0.6l-0.1,0.5l-0.2,0.5l-0.7,0.9l-1.2,1.8l-1.7,2.9l-1.9,3.7l-1.7,3.5L12.8,34l-0.5,1.1l0,0 M30.1,26.6
		l1.2-0.4l0-0.7l-1.2-0.9l-1.9-1.1l-1.9-1l-1.5-0.9l-1.1-0.7l-0.5-0.4l0.1-0.2l0.7,0l0.8-0.2l0.5-0.4l0-0.7l-0.3-1L24.5,17l-0.4-1.4
		L24,14.1l0.1-1.1l0.5-0.5l0.8,0.3l1.4,1l2.1,1.4l2.6,1.4l2.6,1l1.9,0l0.8-1.2l-0.5-2.1L34.9,12l-2-2l-2.3-1.6l-2.3-1l-2.2-0.3
		l-1.9,0.4l-1.4,1l-1.2,1.4l-0.9,1.4L20,12.7l-0.7,1.6l-0.6,2l-0.3,2.2l-0.1,2.1l-0.2,2l-0.6,2.2l-1.1,2.5L15,29.8l-1.1,1.9L13.2,33
		l-0.4,0.7 M32.3,28.5l0.4-0.2l-0.3-1l-0.7-1.6l-0.9-2l-0.9-2.1L29,19.8l-0.6-1.4l-0.2-0.9l0.3-0.6l0.6-0.4l0.5-0.2l0.2-0.3l0-0.4
		l0-0.7l0.1-0.6l0-0.5l-0.1-0.4L29.5,13L29,12.6l-0.4,0.1l0,0.8l0.7,1.6l1.2,2.3l1.4,2.3l1,1.7l0.1,0.4l-1-0.8l-1.9-1.4l-2.4-1.2
		l-2.5-0.6L23,17.7l-1.6,0.1l-0.9-0.3l-0.3-0.7l-0.1-0.6l-0.4-0.3l-0.5,0L18.9,16l-0.2,0.2l0,0.6L18.7,18l-0.5,2.2l-1.1,3l-1.4,3.6
		l-1.3,3.2L13.4,32L13.1,33l-0.1,0.3 M27.7,28.2l0.2-0.5l-0.7-1l-1.2-1.3L24.6,24l-1.2-1.1l-0.9-0.8l-0.6-0.5l-0.3-0.2l0.1-0.1
		l0.6-0.2l1-0.4l1.2-0.7l1-1.1l0.5-1.3l0.1-1.2L26,15.7l0.1-0.1l0.4,0.5l0.8,1l0.9,1.4l1.3,1.5l1.6,1.1l1.8,0.3l1.4-0.6l0.4-1.6
		l-1.1-2l-2.2-1.7l-2.7-1l-2.6-0.2l-2.2,0.4l-1.6,1L21,17.1l-0.6,1.5l-0.1,1l0.3,0.2l0.5-0.3l0.2-0.6l-0.3-0.6l-0.7-0.1l-0.8,0.5
		l-0.9,1.3l-1,2.2l-1.2,2.9L15,28.2l-1.2,3l-0.8,2.2l-0.4,1.2l0,0.5 M28.1,25l0.7-0.5l-0.3-0.7l-1-0.8l-1.1-0.9l-0.7-1l-0.3-1
		l-0.2-0.9l-0.1-0.7L25,18.1l-0.1-0.5l0-0.8l0-1.1l0-1.2l-0.1-1.1l-0.3-0.7L24,12.4l-0.1,0.1l0.3,0.3l0.8,0.3l1.2,0.4l1.4,0.9
		l1.9,1.5l2.4,1.6l2.3,0.8l1.5-0.5l0.3-1.5l-0.9-1.9l-1.4-1.8l-1.5-1.6l-1.4-1.4l-1.2-1l-1.1-0.6l-1.1-0.1L26.2,8l-1,0.5l-1,0.9
		l-1,1.3l-0.9,1.6l-0.6,1.8l-0.2,2.1l0.1,2.6l-0.2,3l-1,3.2l-2,3.2l-2.4,3l-2,2.3l-1.3,1.5l-0.7,0.6 M29.6,28.6l0.5-0.8l-0.7-1.2
		l-1.2-1.3L27,24.2l-0.9-0.8l-0.7-0.6l-0.5-0.6l-0.4-0.8l-0.2-1l0-1.3l0.2-1.4l0.3-1.3l0.3-1.2l0.3-0.9l0.2-0.5l0.2,0l0.2,0.3
		l0.3,0.5l0.5,0.8l0.7,1.2l1.2,1.8l1.8,2l2.3,1.4L35,22l1.4-1.5l0.3-2.4l-1-2.6L34,13.3l-2.1-1.8L30,10l-1.7-1.2L27,8.1L26.1,8
		l-0.7,0.5l-0.8,1.2l-1.1,1.7l-1.3,1.7L21,14.6l-0.8,1.2l-0.6,1.3l-0.7,1.7l-1,2.5l-1.4,3.3l-1.5,3.7l-1.4,3.4l-1,2.3l-0.4,1l0-0.1
		 M27.8,29.1L28,29l-0.8-0.7l-1.5-1.2l-1.8-1.5l-1.6-1.8l-1-1.9L20.9,20l0.4-1.5l1-1l1.2-0.5l1,0l0.6,0.1l0.2-0.1l-0.2-0.5l-0.4-0.6
		l-0.3-0.6l0.1-0.6l0.3-0.6l0.5-0.3l0.9,0.3l1.5,1.2l2.2,2.1l2.5,2.4l2,1.7l0.7,0.1l-1-1.6l-2.2-2.5l-2.7-2.4l-2.3-1.7L25.3,13l-1,0
		l-0.7,0.3L23,13.3L22.6,13l-0.2-0.7l0-0.7l0-0.4l-0.1,0.1l-0.4,0.9l-0.8,1.7L20,16.1l-1.4,2.9L17,22.5l-1.6,3.9l-1.3,3.5l-0.8,2.5
		l-0.3,1.1l0,0.2 M30.1,30.3l-0.3-0.1l-1.5-0.8L26,27.9l-2.4-1.7l-1.7-1.5l-0.7-1.3l0.3-1.1l1-1.1l1.2-1.3l1-1.4l0.5-1.4L25.1,16
		l-0.6-0.7l-0.7-0.3l-0.6-0.2l0-0.2l0.5-0.4l0.8-0.4l1-0.2l1.1,0.2l1.3,0.8l1.7,1.4l1.8,1.6l1.6,1.1l0.8,0l-0.1-1l-0.9-1.5l-1.3-1.4
		l-1.5-1.2l-1.5-0.9l-1.4-0.6l-1.4-0.3l-1.4,0.3L22.9,13L22,14l-0.7,0.7l-0.8,0.2l-0.9,0.1l-0.9,0.4l-0.8,0.9l-0.7,1.5l-0.7,2
		l-0.8,2.6l-0.9,3l-0.8,2.8l-0.6,2.4l-0.4,1.7l-0.3,1.2 M27.6,30L27.6,30l-0.5-0.4l-1-0.9L25,27.2l-1.1-1.8l-1.1-1.8l-1-1.6
		l-0.7-1.1l-0.3-0.7l0.3-0.4l0.7-0.2l0.8,0.1l0.6,0.5l0.1,0.7l-0.4,0.6l-0.6,0.4L21.8,22l-0.2-0.1l0.3-0.3l0.8-0.2l1.8,0.2l2.5,0.7
		l2.8,1l2.5,0.7l1.5,0l0.3-0.8l-0.7-1.4l-1.1-1.7l-0.9-1.9l-0.6-1.9l-0.4-1.6l-0.7-1.2l-1.1-0.9L27,11.7l-1.7-0.7l-1.5-0.3L22.5,11
		l-1.1,0.9l-0.9,1.4l-0.9,1.9l-1.1,2.4l-1.3,3l-1.4,3.4l-1.4,3.6l-1.1,3.2l-0.7,2.2l-0.3,1.1l0,0.4 M26.9,29.9l-0.1,0.2L26,29.4
		l-1.2-1.2l-1.2-1.5l-0.9-1.3l-0.7-1l-0.5-0.7l-0.4-0.4l-0.4-0.2l-0.4-0.1l-0.4,0l-0.4-0.2l-0.3-0.5l-0.1-1.2l0.3-1.5l0.7-1.4
		l0.8-1.1l0.6-0.6l0.3-0.1l0.4,0.4l0.5,1.1l0.7,1.8l0.5,2.2l0,2.3l-0.5,1.9l-0.8,1.1l-0.6,0.3l0.1-0.2l0.9-0.6L25,26l2.4-0.5
		l2.2-0.4l1.2-0.6l-0.1-0.7l-1.1-0.6l-1.5-0.4l-1.7-0.1l-1.9,0.1l-1.9,0.4L20.9,24l-1.7,1l-1.5,0.9l-1.3,1L15.4,28L14.7,29L14.1,30
		l-0.3,0.7l-0.2,0.7 M30.6,28.7l1.4-0.3l-0.3-0.6L30,26.9L27.8,26L26,25l-0.9-0.9l-0.1-1.2l0.5-1.6l0.9-2.2l1-2.2l0.8-1.7l0.4-1.1
		l-0.1-0.9l-0.4-0.9l-0.6-0.7l-0.6-0.3l-0.3,0.2l0.2,0.5l0.6,0.5l0.7,0.7l0.7,1l0.9,1.5l1.4,1.6l1.7,1l1.4,0l0.4-0.9l-0.9-1.5
		l-2-1.6l-2.6-1.3L26.8,12l-2.2-0.4l-1.7,0.1l-1.3,0.5l-1.1,0.9l-0.9,1.3l-0.8,1.5L18,17.7l-0.6,1.4L17.1,20l0,0.2l0.1,0.1l-0.2,0.9
		l-0.8,2.3L15,26.9l-1.3,3.4l-1.1,2.8L12,34.8l-0.2,0.9 M27.9,27.2l1,0.6l0.4-0.3l-0.1-1.3l-0.7-2l-1.1-2.3l-1.3-2.2L24.8,18
		L24,16.8l-0.3-0.7l0.2-0.3l0.5-0.2l0.6-0.3l0.4-0.4l0.3-0.3l-0.1,0l-0.6,0.3l-0.9,0.4l-1,0.5l-0.8,0.9L22,17.9l0.3,1.8l1.2,2.1
		l2.2,2l2.7,1.4l2.3,0.5l1.1-0.4l-0.6-1l-2-0.9l-2.6-0.5l-2.6-0.1L22,22.7l-1.7-0.3l-1.1-0.6l-0.7-0.5L18,20.9l-0.3-0.3l-0.1-0.3
		L17.6,20l-0.1-0.2l-0.1,0.1l-0.2,0.5l-0.4,1.3L16,23.8l-1.1,3l-1.1,3.1l-0.9,2.6L12.2,34l-0.1,0.7 M25.5,27.9l-0.1-0.7l-0.6-1.3
		L24,24.3l-0.8-1.4l-0.8-1.1l-0.8-0.7l-0.7-0.5l-0.5-0.6l0-0.9l0.6-1.4l1-1.6l1-1.5l0.5-0.8l-0.1-0.2l-0.1,0l0.2,0.2l0.7,0.5
		l1.1,0.7l1.2,1.1l1,1.3l1,1.6l1.4,1.9l2.1,2l2.6,1.5l2.2,0.6l0.6-0.3l-1.4-1.3l-3-2.3l-3.6-3l-3-3.2l-1.7-2.4l-0.4-1.2l0.2-0.1
		l0,0.5l-0.6,0.5l-1.1,0.3l-1.2,0.1l-0.8-0.3l-0.4-0.4l-0.1-0.3l-0.1,0.5l-0.5,1.9l-1.1,3.6l-1.7,4.6l-1.8,4.5l-1.5,3.5l-0.9,2.3
		l-0.4,1.3 M28.7,28.2l-0.6,0.1l-1.4-0.6l-1.9-1.3l-1.6-1.7l-0.9-1.6l-0.1-1.2l0.5-0.6l0.6-0.3l0.4-0.5l0.1-0.8l-0.1-0.9l0-0.7
		l0.1-0.3l0.2-0.1l0.1-0.2l-0.3-0.5L23,16.3l-0.8-0.9l-0.4-0.7l0.3-0.1l1.3,0.7l2.1,1.4l2.6,1.8l2.4,1.9l1.4,1.5l0,0.8l-1.3,0.3
		l-2-0.2l-2.2-0.5l-2-0.8l-1.7-1.2l-1.2-1.3l-0.9-1l-0.7-0.5l-0.6-0.1l-0.3,0L18.9,17l0.1-0.5l0.2-0.6l0.1-0.4L19,15.8l-0.6,1.3
		l-1,2.5L16.1,23l-1.3,3.6l-1.1,3.1L12.9,32l-0.4,1.5 M29.5,27.3l0,0.3L28.3,27l-1.9-1.6l-1.9-2.3l-1.4-2.5l-0.6-2l0.1-1l0.6,0.1
		l0.8,1.1l0.8,1.7l0.7,2l0.4,1.8l0,1.3l-0.3,0.5L25,25.8l-0.7-1.2l-0.8-1.8l-0.9-2l-0.7-1.7l-0.3-0.9l0.7,0.2l1.9,1.3l2.7,1.9
		l2.8,1.7l1.7,0.7l0.2-1l-1.3-2.3l-2-3.2l-1.9-3.3l-1.3-2.7l-0.5-1.9l-0.2-1l-0.3-0.1l-0.6,0.6l-1,1.1l-1.2,1.3l-1,1.3l-0.7,1
		L19,14.7l-0.4,0.9l-0.4,1.2l-0.6,2.1l-0.9,3l-1.1,3.6L14.4,29l-1,2.8l-0.6,1.8l-0.3,0.9 M27.8,28.4l1-0.7l0-0.9l-0.8-1.1l-1.4-1.1
		L25,23.5l-1.4-1l-1-0.7l-0.4-0.6l0-0.6l0.2-0.7l0.1-0.6l0-0.3l-0.1,0L22,19.3l-0.1,0.3l-0.1,0.1l0.2-0.3l0.5-0.6l0.6-0.6l0.7-0.4
		l0.6,0.1l0.4,1l-0.1,1.8l-0.5,2.2l-0.7,1.9l-0.7,1.3l-0.3,0.8l-0.1,0.6l0.2,0.8l0.8,0.9l1.4,0.7l1.5,0.3l0.8-0.6l-0.4-1.3l-1.3-1.6
		l-1.5-1.5l-1.2-1.1l-0.9-0.7L21,23l-0.9-0.3L19,22.8L17.6,24l-1.5,2.3l-1.4,2.9l-1.1,2.7l-0.7,1.8l-0.3,1l-0.1,0.4 M26.4,26.1
		L26,25.6L25,25.1l-1.4-0.6L22,23.8l-1.4-1l-0.9-1.5l-0.2-1.8l0.4-1.8l0.6-1.6l0.5-1.4l0.1-1.1l0-0.6l0-0.1l0.1,0.3l0.1,0.4l0.1,0.5
		l0.1,0.5l0.1,0.4l0.2,0.3l0.5,0.3l1,0.8l1.9,1.4l2.6,1.5l2.9,1l2.2,0l0.8-1.2L32.7,17l-1.8-2.3l-2-1.7l-2-0.7l-2,0.2L23,13
		l-1.6,0.6L20.3,14l-0.7,0.1l-0.4,0l-0.3,0l-0.2,0.4l-0.2,0.8l-0.2,1.4l-0.3,2l-0.6,2.7l-1.1,3.4L15,28.7l-1.3,3.4l-0.9,2.4
		l-0.4,1.2l0,0.3 M25.3,27.6l0.1-1L25,25.1l-0.6-1.7L23.6,22l-0.7-0.9l-0.7-0.5l-0.6-0.3L21.1,20l-0.3-0.3l-0.1-0.7l0.3-1.3l0.7-1.3
		l1-0.8l0.9,0.2l0.4,0.8l-0.3,1l-1,0.5l-1.1-0.1l-0.5-0.7l0.4-0.7l1.3-0.2l2.2,0.4l2.9,0.6l2.8,0.1l1.8-0.8l0.2-1.7l-1.2-2l-1.9-1.8
		l-2-1.1l-1.9-0.3l-1.7,0.6l-1.5,1.2l-1.2,1.4l-0.8,1.1l-0.5,0.6l-0.3,0.1l-0.2-0.4l-0.1-0.6l-0.1-0.5l-0.2,0l-0.4,1.1l-0.7,2.4
		l-1.1,3.7L15.3,25l-1.4,4.4l-1,3.3l-0.4,1.9l0,0.5 M27.7,23.3l1-0.8l0.4-1l-0.2-1.3l-0.7-1.5l-1-1.6l-1.1-1.5l-1.1-1l-0.9-0.4
		l-0.5,0l0,0.1l0.4-0.1l0.6-0.2l0.6-0.1l0.3,0.1l-0.1,0.3l-0.5,0.4l-0.8,0.5l-0.9,0.6l-0.7,0.8l-0.1,1l0.8,0.9l1.8,1l2.4,1.2
		l2.3,1.1l1.4,0.6l0.1-0.2l-1.1-0.9L27.9,20l-2.2-1.6l-2-1.6l-1.5-1.2l-1-0.8l-0.5-0.7l-0.2-0.7l-0.1-0.7l-0.1-0.5l-0.2,0l-0.3,0.6
		L19.3,14l-0.6,1.7L18,18.1l-0.9,2.8l-1,3.2l-1,3.4l-1,3.1l-0.7,2.3L13,34.1l-0.2,0.4"/>
	<g>
		<g>
			<polyline class="st8" points="31.2,30.8 32.8,30.7 29.3,28.4 26.9,26.2 23.9,24.5 23.3,23.7 23.8,22.1 22.1,22.1 22.3,20.1 
				23.5,20.1 25.7,19.6 25.3,19.1 25.5,18.6 26.2,18.3 25.1,17.9 24.8,17.1 25,17.5 25.8,17.9 25.9,16.5 26,16.6 25.9,16.3 
				26.4,17.6 26.6,15.7 28.6,22.8 37.2,28.3 39.4,26.9 39.1,23.7 35.5,21.6 32.6,20.7 29.8,18.2 27.3,16.7 25.2,17.2 25.9,17.1 
				25.5,16.4 24.2,16.5 23.4,16.6 23.6,17.1 22,17.2 21.4,18.4 21.3,17.8 21.3,17.8 21.1,20 20.5,20.1 21.2,19.8 14.9,28.5 			"/>
			<g>
				<polygon points="14.1,27 13.1,32.5 16.8,28.3 				"/>
			</g>
		</g>
	</g>
	<path class="st4" d="M24,24.4c0-0.1-0.1-0.2-0.2-0.2s-0.2,0.1-0.2,0.2c0,0.1,0.1,0.2,0.2,0.2S24,24.5,24,24.4"/>
	<path class="st9" d="M28.7,22.6c0-0.1-0.1-0.2-0.2-0.2c-0.1,0-0.2,0.1-0.2,0.2c0,0.1,0.1,0.2,0.2,0.2
		C28.6,22.9,28.7,22.8,28.7,22.6"/>
	<path class="st10" d="M21.3,19.7c0-0.1-0.1-0.2-0.2-0.2s-0.2,0.1-0.2,0.2c0,0.1,0.1,0.2,0.2,0.2S21.3,19.8,21.3,19.7"/>
</g>
<g>
	<path class="st7" d="M83.9,21.5l-3.5,1.4l-4.4,0.6l-3.5,0.4l-2.3,0l0,0l0.1,0.8l-0.1,0.7l0.1,0.6L70,26.9l-0.2,0.6l-0.3,0.6
		l-0.3,0.3l0,0.5l0.4,0.6l0.6,0.6l0.4,0.4l0.6,0.6l0.9,0.5l1,1.4l1,1.2l0.8-0.1l1-0.8l1.1-0.6l0.6-0.4l1.9,0.1l2.8,0.2l3.5-0.1
		l3.5-0.2l2.4-0.6l2.5-0.4l1.8-0.7l0.9-0.9l0.8-0.8l0.5-0.8l0-1.1l0.6-0.8l-0.2-1l-0.5-1.2l-0.6-1.1l-1.4-1.3L95,20l-1.7-1l-1.6-1.4
		L91,17.2l-2.4-1.5l-1.8-1.2l-1.2-0.9L84.8,13 M81.8,19.3l-2,1.7l-2.4,0.7L75,22.4l-2.1,0.2l-1.9-0.1L70.6,23l-0.3,0.4l0,0.6
		l-0.4,1.2L69.7,26l-0.2,0.9l-0.1,0.8l-0.2,0.1l0.1,0.5l0.3,0.7l0,0.5l0.3,0.8l-0.1,0.2l0-0.4l0-0.2l0.1,0l0,0.3l0.5,0.9l0.4,0.5
		l4,0.4l3.9,0.1l3.5,0l4.1,0l2.7-0.4l2.4-0.7l1.4-0.6l0-0.6l1.4-0.6l0.7-0.7l0.3-0.7l0.8-0.9l0.7-0.8l-0.2-1l-0.5-0.8l-0.2-0.8
		l-0.7-1.2l-1.1-1.3L92.7,20l-0.4-0.5L89.8,18l-2-1.3l-1.7-1.1L85,14.8 M85.7,19.3l-2.6,0.8l-3.9,1.5L77,22.7l-3.3,1.8l-2.3,1.8
		l0.5,1l0.5,0.4l0.6,0.5l0.3,0.8l0.3,0.1l0.2,0.3l0.3,0.4l0.6,0.4l0.6-0.1l0.3-0.3l0.5-0.1l0.7-0.3l1,0.2l1.2-0.4l1-0.2L81,29
		l1.5-0.9l1.3-1L84,26l0-0.8l-1-0.9l0.8-0.7l2.1-0.4l1.9-0.3l1.4-0.6l1.7-0.8l0.5-0.8l0-0.6l0.1-0.6l-0.6-0.7l0.6-0.6l0.6-0.6
		l0.2-0.4l-0.7-0.4l-0.7-0.3l-0.5-0.4l0-0.3l0.5-0.1l-0.6-0.3l-2.7-1.5L85.6,13l-1.7-0.8l-1.1-0.5 M83.6,19.6L81,20.5l-4.4,1.7
		l-4.4,1.6l-2.9,0.8L68,25l0.4,0.9l0.5,0.7l0.2,0.4l0.2,0.3l0.2,0.8l0.2,0.6l0.5,1l0.4,1.3l0.6-0.3l0.5-0.5l0.7,0l1-0.1l1.3-0.3l1,0
		l1.1,0l1.6,0.8l1.4,0.4l1.8,0l1.1-0.9l2.1-0.6l2-0.7l1.7-1.1l0.4-0.9l0.4-1.1l1.7-1.1l1.1-1l0.9-1l0.5-1l0.7-1l0.3-1.2L92.9,18
		l-0.1-1l-0.6-0.9l-0.5-0.7l-0.6-0.7l-1.5-1.1l-1.3-0.9L86.4,12l-0.9,0.6L84,11.7L82.7,11l-0.9-0.5l-0.5-0.1 M85.2,18.9l-3,1.7
		l-5.2,2.4l-5.7,0.6l-3.3,0.9L67,24.8l0.2,0.6l0.1,0.9l0.2,0.9l0.3,0.9l0.6,1.1l0.8,0.5l1,0.3l0.6,0.3l-0.1,0.5l0.1,0.3l0.6,0.8
		l0.7,0.9l1,1.2l0.9-0.8l0.5-0.5l0.8-0.4l1.1-0.1L77,32l-0.4,0l3.9-0.5l3.7-0.6l2.4-1l1.8-1l2.3-1.2l1.3-1.2l1.2-1.2l1.3-1l0.8-1.1
		l-0.3-1.2l-0.5-1.2l-0.8-1.1l-1.4-1.4l-0.6-0.8l-1.9-1l-0.6-0.7l-2-0.7l-1-0.3l0-0.2l1.3,0l-1.1-0.9L85.9,13L85,12.5l-0.8-0.5
		 M82.9,18.6l-3.3,2l-5.1,1.5l-3.4,0.8l-1.5,0.4L68,23.6l-0.4,0.9L67,25.2l-0.7,0.5L66,26.6l0,1.2l0,0.5l0.4,0.7l0.5,0.2l0.4,0.4
		l0.8,0.6l0.9,0.3l0.6,0.5l0.6,0.6l0.5,0.3l0.5,0l0.9,0.3l1.4,0.5l1.5-0.1l1.2-0.2l5.5,0l4.2-0.3l3.7-0.1l3.1-0.6l2.9-0.6l1-1l1.2-1
		l0.1-1.1l0.7-1.3L97.6,25l0.4-1.3l-0.5-1.4L97,20.7l-2-1.7l-2-1.6L91.1,16l-1.4-1.1L89.1,14l-0.2-0.4l-0.3-0.3l-2-1.1l-0.8-0.6
		l-0.7-0.6l-2-0.8 M84.1,18.1l-3,1.8L78,22l-5.2,1.5l-4.1,0.7l-1.3,0.7l0.6,1l0.7,0.9l0.5,1.2l0.7,1.5l0.8,1l0.7,0.9l1,0.6l0.5-0.3
		l0.7,0.6l0.6,0.5l0.5,0l0.6,0.5l0.7-0.5l0.6,0.2l0.5,0.4l0.2-0.6l0.6-0.4l0.9-0.8l-1-0.1l2-0.9l1.9-1.3l1.6-1l0.8-1l0-1l0.5-0.8
		l0.7-0.8l-0.2-1l1.6-0.9l1-0.9l0.9-0.9l0.2-0.9l-0.5-1l-0.8-0.9l0.3-0.7l-0.5-0.6l-0.1-0.2l1.4-0.3l0.9-0.2l-0.4-0.8l-1.6-1.1
		l-1.3-0.8l-1-0.6l-1.3-0.7 M83.1,18.3l-2.7,1.4l-3.7,2.2l-3.3,1.3L71,24.5l-2.2,0.7l0.1,0.3l0.2,0.5L69,26.7l0.3,0.9l0.5,0.6
		l0.2,0.4l0.5,0.4l0.3,0.5l0,0.4l0.3,0.4l0.5,0.2l0.6,0.2L73,31l1.3,0.3l1.6,0.6l1.7,1l1.5-0.2l1.7-0.5l0.6-0.6l1.2-0.3l2.3-0.2
		l2-0.4l1.6-0.5l1.9-0.6l1.5-0.8l1.1-0.7l1-0.7l1.5-0.5l1-0.6l0.4-0.7l-0.3-0.9l-0.4-1l-0.4-1.2l-0.1-0.9l-0.2-0.9l-1.2-0.8
		l-0.8-0.9l-0.3-0.6l-0.5-1.1l-2.6-1.7l-2-1.6l-1.9-1.3l-1.7-1.1 M84.5,19.2l-0.5,1l-0.7,0.3l0.1-0.3l-1,0.2l1.7,0.8l1.9,1.4
		l1.4,0.1l1.2,0.4l0.9,0l0.8-0.2l1.1-0.2l1.4-0.1l0.6-0.2l0.2-0.5l-0.8-0.8l-1.1-0.6l-0.5-0.7l-0.6-0.1l-0.8-0.6l-0.9,0.2l-1-0.3
		l-0.4,0.3l-0.3,0l-2,1.1l-0.7-0.1l0.6,0.1l1.7-0.1l2.3-0.1l0.7-0.4l0.1-0.4l0.5-0.6L90,18.6l1.7,0l1.2-0.2l0.1-0.4l-0.7-0.7
		l0.5-0.7L91.6,16l-0.4-0.7L89.5,15l-0.9-0.2l-1-0.3l-1-0.3l-1.6-0.3l-2.2-1.2l-1.6-0.8l-0.4-0.3l-1-0.4 M82,20.5l-3.9,1.4l-4,0.8
		l-2.6,0.7l-1.1-0.3L70.2,23l0.1,0.2l-0.2,0.3L70,24l0,0.7l0.4,0.7l0.6,0.7l0.3-0.4l0.4,0.2L72,26l0.1,0.6l-0.1,0.5l0.1,0.6l0.5,0.8
		l0.5,0.4l0.8,0.3l0.7,0.4l0.2-0.2l0.5,0.1l-0.4,0.6l3.3-0.2l2.7-0.3l3-0.5l3-0.6l2.8-0.5l2.1-0.8l1.1-0.7l0.8-0.7l0.6-0.8l0.4-0.6
		l0.3-0.8l0-0.6l0.5-0.7l0.2-1L95,20.3L94,19.1l-0.9-1l-0.7-0.8l-1-0.8l-1-0.4l-3-1.6l-1.6-1L85.1,13l-0.5-0.3 M84.5,21.4l-2.7,1
		l-4.1,1.1l-3.9,1l-2.1-0.1l0.2-0.2l0.7,0.7l0.4,0.5l0.6,0.6l0.2,0.2l-0.1,0.4l0.3,0.3l0.3,0.3l0.5,0.5l0.5,0.2l0.9,0.4l0.7,0.1
		l1-0.2l0.6,0.3l1.2,0.5l0.7-0.3l0.1,0.1l0.4,0.7L80.7,30l-1.4,0.7l2.5-0.5l0.8-0.7l1.5-0.6l1.4-0.6l2-0.6l1.1-0.7l2.2-0.5l1.6-0.7
		l0.9-0.8l0.9-0.9L93.3,23l-1.1-1.1L91.3,21l-0.2-0.8l0.5-0.6l0.5-0.8l0-0.8l0-0.6l0.1-0.4l-1-1l-2-1.3l-1.3-0.9L86.6,13l-1.4-0.8
		 M83.6,19.8l-3,1.1l-4.2,1.9l-2.9,1.2l-2.5,1.3l-2.8,1.1l0.3,1.1l0.2,0.7l0.2,0.4l0.5,0.9l1,0.6l0.6,0l1.1,0.8l1.2,0.3l1.3,0.6
		l1,0.4l1.1,0.6l1.5,0L80,32l1-0.1l0.9-0.2l0.9-0.3l0.5-0.1l0.1-0.1l-0.3-0.1l1.9-0.3l3.1-0.4l2.5-0.4l1.9-0.6l1.4-0.9l1.6-0.9
		l0.3-1.1l0.1-1l-0.2-0.8l-0.3-0.8l0.1-0.9l0.2-0.8l0.4-0.8l-0.4-0.8l0-0.7l0-0.6l-0.8-0.7l0-0.4l0-0.3l-1.3-1.4l-3.7-2.2l-3-1.6
		L85,11.7l-1.6-0.8 M83,22.5l-4.2,0.4l-3.7,0.5l-2.8,0l-2-0.3l-0.9,0.5l-0.2,0.6l-0.1,0.6L69,25.4l0.2,1l0.4,0.7l0.5,0.7l0.5,0.4
		l0.7,0.2l0.8,0l0.6,0.4l0.8,0.5l0.6,0.8l0.8,0.7l0.5,0.4l0.6,0.3l0.8,0.4l0.1,0.3l0.6,0.3l-0.4,0.2l2.6-0.2l2.7-0.3l1.8-0.4
		l2.9-0.5l2.9-0.8l2.2-0.9l0.8-0.9l0.4-1l-0.6-1l-0.2-0.8l0.5-0.7l0.7-0.6l0.5-0.7l0.4-0.7l0.8-0.8l-0.3-1l-0.1-1L94.5,19l-0.3-1.3
		l-0.8-1.4l-2.6-1.6l-1.7-1l-0.3-0.4l-2.4-1.2 M83.6,17.8l-3.1,1.1l-5.1,1.7l-4.3,1.8L68,23.4l-2.5,0.7l0.1,0.7l0.4,0.8l0.7,1.2
		l0.9,1l1.1,1.3l1,0.4L71,30l1.7,0.8l1.4,0.4l1.3,0.6l1.9,0.7l1.3,0.1l1.2-0.2l1.3-0.2l1.1-0.8l0.6-0.6l0.6-0.6l0.4-0.3l-0.1-0.2
		l1.7-0.8l2-0.9l1.3-1l1.1-1.1l0.6-0.9l0.3-0.8l1.3-0.7l1.7-0.6l0.5-0.7l0.8-0.5l0.5-0.4l0.6-0.5l1-0.5l0.3-0.6l-0.1-0.6l0.4-0.5
		l0.2-0.4l-0.4-0.7L96.4,17l-1.3-1.2l-4.3-2.3L87.9,12l-1.9-0.9l-1.3-0.6 M81.3,19.1l-2.5,1.3l-3.5,2L72.1,23l-1.4,0.2l-0.6-0.2
		L70,23.5l0.1,0.5l0.2,1l-0.2,0.7l0.3,1.1l0.6,0.7l0.7,0.3l0.9,0l0.5-0.5l0.6-0.1l0.4,0l0.7,0.2l0.2,0.5l0.4,0.7l0.6,0.7l0.7,0.5
		l1.1,0l1.1,0.2l-0.4,0.2l2.8-0.4l2.5-0.3l3.2-0.6l2.5-0.9l2.5-0.7l1.4,0l1.1-0.1l0.6-0.2l1.4-0.4l0.4-0.6l0.4-0.5l-0.3-0.6l0.6-0.5
		l-0.2-0.7l0.2-0.8l0-1.1l-0.8-1.1l-1-1.1l-1.1-1.2l-1-0.7l-2.9-1.8l-3-1.6l-1.8-0.9l-1.2-0.7 M82.5,17.1l-2,0.1l-4.4,1.6l-4.8,1.8
		l-2.3,0.1l-0.9,0.2l0.1,0.7l0.2,0.7l-0.1,0.5L68.3,23l0.2,0.5l-0.1,0.8L68.2,25l0.2,0.8l0.2,0.6l0,0.5l0.2,0l0.2,0.4l0.5,0.7
		l0.7,0.5l0.6,0.6l0.4,0.2l0.6,0.8l0.5,0.9l-0.3,0.8l4.5,0.3l4,0.2l3.5-0.2l3.7-0.6l3.4-0.4l1.5-0.6l0.9-0.7L94,29l0.7-0.8l1.1-0.9
		l0.8-1l0.3-1.1L97,24l-0.4-1.3l0.4-1.1l-0.8-1.1l-0.7-1.1l-0.6-1l-0.3-0.7l-0.8-0.8l-2.4-1.4l-1.6-1l-1.2-0.6L87,13.1 M82.3,19.1
		l-4.1,1.2l-4.2,1.3l-3.4,1.1l-2.1,0l-0.3-0.2L68,23.2l-0.2,0.3L67.6,24l0.1,0.5l0,0.4l0.1,0.3l0.3,0.4l0.5,0.4l0.7,0.7l0.8,0.6
		l1.1,0.3l0.8,0.8l0.5,0.6l0.7,0.6l0.5,0.3l0.2,0.1l0,0.4l0.2,0.5l-0.6,0.6l2.7,0.1l2.4,0.1l3.2-0.1l3-0.4l3.5-0.3l2.3-0.4l1.5-0.5
		l1.5-0.7l-0.1-0.8l0.3-0.7l0-0.8l0-1l0.5-0.9l0.3-0.8l-0.4-0.8l0.3-0.7l-0.2-0.7l1.2-1l0.2-1.2l-1.1-1.5l-3.8-2.2l-2-1.3l-1.5-1
		L84.6,12 M82.4,20.2l-1.9,0.5l-2.7,1.4L74.7,23l-4.3,0.9l-2,0.7l0.1,0.9l0.3,0.8l0.1,0.7l0.3,0.8l0.2,0.3l0.2,0l0.5,0.2l0.4,0
		l0.6,0.4l0.3,0.3l0.5,0.7l0.5,0.4l0.6,0l0.2,0l0.5-0.2l0.7,0.3l0.6,0.3l0.8,0.6l-0.1,0.3l3.4,0l2.3-0.2l3.1-0.3l1.5-0.5l2.1-0.7
		l1.9-0.7l1.9-0.6l1.4-0.6l1.4-0.7l1.8-0.8l1-0.9l0.8-0.8l0.5-1.1l-0.4-1.2l-1.3-1.2L96,20.2l-1.3-1l-0.1-1l-0.7-0.9l-0.6-1.1
		L90,14.4l-2.8-1.5l-2.1-1.1l-1.1-0.5 M83.4,18.9l-4.2,2.2l-4.1,1.8l-3.3,1.3l-2.9,0.6L67,24.8l0.3,1.3l0.1,0.1l0.2,0.6l0.6,0.6
		l0.4,0.5l0.5,0.6l0.5,0.7l0.2,0.2l0.2,0.1l0.1,0.1l0.2,0.2l0.4,0.8l0.8,1.2l0.6,0l0.2,0.5l-0.1,0.6l-0.1,0.1l0.1,0.6l-1.1,1.2
		l5.2,0.3l3.6,0l3.8-0.2l3.6-0.4l4-0.6l2.2-0.8l1.8-0.9l1.4-0.8l0.5-0.9l1-0.9l0.6-1l0.6-1.1l-0.4-1.2L98.8,25l0.7-1.1l-0.4-1.3
		l-1-1.3l-0.9-1.4l-1-1.1l-1.1-1.6l-4-2.4l-3-1.9l-2.8-1.6L83.3,10 M92.8,12.1l-0.7-2.6l-0.5-3.1l-1.8-0.2l-3.8,3l-3.4,2.9l-1.8,0.5
		l-1.1,0.5l-1,0.9l-0.5,1.6l-0.7,1.6l-0.4,2.4l-0.2,1.6l-0.1,1.6l0.3,1.2l0.2,0.4l0.4,0.9l0.4,1.3l0.7,0.7l0.7,0.5l0.7,0.1l1.3,0.4
		l1.3,0.4l1.6-0.2l1-0.1l1.8,0.3l1.3,0.1l2,0l1.8-0.2l2.1-0.3l1.4-0.6l0.9-0.9l-0.6-1.1l1.3-0.7l0.6-0.8l-0.1-0.9L96.8,22l-0.2-0.9
		l0.3-0.9l-0.5-1.1l-0.9-1.1l-0.8-1l-1.4-0.8l-1.7-0.9l-2.1-0.9l-2.9-1.6l-2.4-1.4l-1.1-0.7L82,10.2 M86.2,18l-3.6,1.9l-5.1,1.9
		l-4.6,1.3l-3.1,1.1l-2.6,1l0.1,0.6l0.1,0.3l0,0.6L68,28l0.8,0.4l0.9,0.1l1.4,0.5l1.4,0.6l1,0.7l1.4,0.1l1.5,0.8l1.2-0.2l1.1,0
		l0.9-0.4l0.9-0.4l1.3-0.2l1.2-0.3l1.2-0.4l0.6-0.8l2-0.9l1.9-1.1l2.8-1.1l1.8-1.1l0.8-1.3l1.8-1.1l-0.4-1.3l-0.3-1.1l0.1-1
		l-0.7-1.1l-1-0.9l-1.5-0.6l0.1-0.5l-0.3-0.5l-0.8-0.6l0.1-0.3l-0.3-0.6l-0.8-0.6l-1.6-0.4L87.4,12l-3.9-1.9L81.3,9L79,8.1l-1.5-0.6
		 M80.4,20.4L77,21.6l-3.2,0.7L71.5,23l-1.4-0.2l-2.4,0.6l-0.2,1.2L67.3,25l0.2,0.9l0.5,0.9l0.3,1.2l0.5,0.7l0.9,0.3l0.8,0.5
		l0.8,0.3l0.8,0.4l1.4,0.7l1.3,0.3l1.1,0l1.4-0.5l1.5-0.3l0.8,0.3l0.8,0.1l0.7-0.2l0.1-0.2l2.6-0.7l2.1-0.7l3.2-0.6l2.8-1l2.9-1
		l1.5-1.3l0.7-1.4l0.1-1.3l-1-1.5l-0.7-1.4l-1.5-1.3L92,17.1l-1.1-1.1l-1.9-1.1l-1.1-0.7l0.4-0.6l0.4-0.5l-0.2-0.3l0.6-0.2l-0.9-0.4
		l-3-1.6l-1.9-1l-1.1-0.6l-1.1-0.5 M83.3,19.5l-2.5,1l-3.3,0.7l-3.6,1.5l-2.7,0.9l-2.3,0.6l0.3,0.7l0.5,0.6l0.3,0.8l0.4,0.7l0.5,0.5
		l0.5,0.4l0.3,0.2l0.4,0.1l0.7,0.2l1,0.5l1.3,0.4l1.1,0.7l0.4,0.3l0.3,0l0,0.5L76.6,31l0-0.2l0.6,0.8l0.8,0.3l3.6,0.1l3.1-0.1
		l2.6-0.3l3.6-0.4l2.5-0.6l1.8-0.8l0.9-1l0.9-1l0.5-1l0.4-1.1l0-0.8l-0.7-1.1l-1.8-1.2l-0.9-1.2l-0.6-1l-1.6-1.1l-0.7-1.1l-1-1.1
		l-0.7-1.1l0-0.9l-2.3-1.5L86,12.3l-1.3-0.7L84,11.3 M82.9,19.8l-3,1L77,21.6l-3,1l-3.8,0.7l-3.2,0.6L67,24.6l0,0.2l0,0.9l0.4,0.4
		l0.5,0.6l0.3,0.1l0.3,0.4L69,28l0.5,0.4l0.9,1l0.5,1.2l0.7,0.9l0.5,0.2l0.6,0.2l0.9-0.1l0.8-0.1l0.4-0.3l0.2,0.3l0.1,0.3l3.9,0.1
		l4,0.1l3.2-0.1l2.1-0.5l2.2-0.5l2.9-0.7l1-0.7l1.5-0.6l1.1-0.7l0.8-0.7l0.3-1l0.1-1.2l-0.9-1.3l-0.9-1.4l-1.1-1.4l-0.8-1.3
		l-1.6-1.3l-1-0.9l-1.5-0.9l1.8-0.8l-2.8-1.8l-2.2-1.5l-1.4-1.1l-1.3-0.9 M82.5,17.9l-3.4,1.7l-3.7,2l-3.7,0.8l-2.9,0.9l-3,0.9
		L65.7,25l0,0.9l0.6,0.8l0.3,0.6l0.6,0.6l0.3,0.4l0.6,0.7l0.6,0.5l1,0.4l0.9,0.6l1.4,1.2l0.9,0l0.9,0l0.5-0.1l0.3-0.1l0.4-0.3
		l-0.1-0.1l-0.1,0.1l0.5,0.2l4.1,0.4l3.5,0.1l2-0.3l2.1-0.2l2.7-0.3l3-0.4l1.6-0.7l2.1-0.7l0.8-0.9l0.6-1l0.2-1.1l0.3-1l-0.4-0.9
		l-0.5-0.9L97,22.4l-0.7-0.9l-0.2-1l0.4-0.9l0.1-0.7l-1.3-1.1l-3.4-2l-3.2-1.8l-2.1-1.3l-1.9-1.1 M82,18.8l-2.9,1.5l-3.6,1.4
		l-2.9,0.6l-1.7,0.2l-1.8,0L68.5,23l-0.7,0.1l-0.1,0.7l0.2,1.3l0.3,1l0.7,0.6l0.8,0.1l0.5,0.7l0.6,0.3l0.4,0.3l0.8,0.4l1.3,0.7
		l1,0.7l1.2,0.6l1.2-0.1l0.8-0.5l0.8,0.3l0.8,0.5l0.1,0.2l2.9-0.3l2.4-0.4l2-0.6l2-0.7l1.8-0.9l2.5-1l2.3-1.1l0.8-1.2l0.1-1.3
		l-0.4-1.4l-0.8-1.5l-1-1.7l-1.5-1.5l-0.8-1.1l-1-1l-1.2-0.9l-1-0.7l-0.4-0.3l-0.3,0.1l-0.4-0.3l-2.2-1.3l-2.5-1.4l-1.3-0.7
		l-1.3-0.6 M82.4,23.1l-4.2,0.4l-3,0.2l-1.8,0.4l-0.8,0.6l-1.1,0.8l-0.1,0.4l0.1,0.4l0.4,0.7l0.4,0.9l0.1,1.1l0.3,0.7l0.4,0.2
		l0.8,0.1l0.9,0l1.5,0.3l1.7,0.1l1.1-0.1l1.4-0.1l0.9,0l1.3-0.2l0.9-0.1l1-0.4l1.1-0.2l-0.8-0.1l2.5-0.9l2.7-1.1l1.7-1.3l2.1-1.3
		l0.4-1.3l1.2-1.3l-0.3-1.6L96,19l0-1.5l-0.6-1.4L95,14.9l-0.6-0.9l-1-0.9l-0.8-0.8l-0.7-0.5l-1.3-0.4L90.1,11l-0.8,0l-1.4,0
		l-2.1-0.3L82,8.8l-2.1-1L77.7,7l-1-0.3 M80.9,20.4l-3,0.9l-3.6,0.9l-2.4,0.3L70.2,23l-0.3,0l-0.2,0.8l-0.3,0.1L69.3,24l-0.3,0.3
		L69,24.6l0,0.5l0.1,0.6l0,0.3l0.2,0.5l0.4,0.7l0.5,1l0.4,0.4l0.5,0.5l0.6,0.3l0.6,0.1l0.7,0.8l0.6,0.6l0.9,0.7L74.4,32l3.9,0.3
		l3.4,0.3l3.8,0l2.8-0.2l2.7-0.3l2-0.5l1.7-0.7l0.9-0.7l0.2-0.8l0.6-0.8l0.1-0.9l0.6-0.8l0.4-1l0.5-1.1l0.3-1.2l-1.2-1.4l-1.8-1.6
		l-1.9-1.2l-0.1-1l-0.3-1.1l-4.2-2.4l-2.4-1.5l-1.6-1l-1.5-0.9 M81.9,17.9L79.4,19l-4,2.1L72,22.2l-2.6,0.4l-1.9,0l0.3,0.2l0.6,0.1
		l0.7,0.5l0.7,0.8l1.1,0.6l0.9,0.3l0.3,0.1l0.8,0.2l0.4-0.1l0.7,0.3l0.2,0.2l0.2,0.4l0.6,0.4l0.8,0.1l0.8,0.2l1.4,0.5l0.9,0l0.8-0.5
		l1.1-0.7l1-0.1l1.6,0.3l0.2,0.2l1.6,0.4l1.7,0.2l0.5,0.2l0.9,0.1L87.6,28l0.7,0.2l2-0.1l0.9-0.4l1-0.3l1.7-0.5l1-0.9l0.5-1.2
		l0.2-1.3l-0.6-1.2l-0.5-1.3l-0.8-1.5l-0.4-1.4l-3.9-2.4l-2.7-1.8l-1.6-1.2l-1.7-1 M81.6,14.7l-2.1,0.9L77.2,18L76,18.7l-1.3,1.2
		L74.2,22l0.4,1.8l0.4,1.8l0.2,0.7l0.3,0.3l0.3,0.7l0.5,0.1l0.3-0.2l0.6,0.1l0.7,0.2l0.7,0.3l0.7,0.2l1.2,0.5l1.2-0.5l1.8,0.1
		l1.9-0.1l2.4-0.3l1.2-0.4l0.9-0.4l0.1-0.1l2.2-0.6l1.7-0.8l2.5-0.9l2.4-0.9l1.8-1.1l0.5-1.2l0.5-1.1l-0.8-1.2L99.9,18l-1.2-1.2
		l-1.1-1.1l-0.9-1L95.3,14l-0.1-0.3l-0.5-0.2l-1-0.5l-1.1-0.3l-0.7,0l-1.6-0.3l-1.7-0.3l-2.7-1.4l-1.8-0.9L83,9.2l-0.9-0.4
		 M83.7,17.6l-3.1,1.6l-5.1,2.7l-4.3,1.2l-2.3,1.2l-1.5,0.6l-0.4,0.9l-0.3,0.8l-0.3,1.2l0,0.7l0.4,1.2l0.6,0.8l0.4,0.5l0.5,0.5
		l0.9,0.6l0.4,0.4l1,0.4l0.7-0.1l1,0.4l1.3,0.1l1.4,0l1.6,0l1.4,0.1l1.3,0l2.1-1l4.1,0l3.7-0.3l3.1-0.5l1.7-0.8l2.9-0.8l1.5-1.1
		l0.4-1.3l1-1.1l-0.1-1.3l-0.1-1.4l-0.3-1.3l-0.8-1.4l-1.1-1.1l-1.4-1.2l-1.4-1L94,16.5l-1.1-1.1l-1.5-1.2L89.3,13l-1.2-0.5L86,11.1
		l-1.3-0.9l-1.6-0.9l-1.5-0.7 M84.9,17.1l-2.4,1.5l-2.9,1.4l-3.9,1.7l-3.7,1.7L68.5,25l-0.1,1l0,0.7l0,0.9l0.1,0.8l0.3,0.8l0.7,1.5
		l0.9,0.5l1.2,0.6l1,0.1l1,0.3l1.3,0.2l1,0l1.2-0.2l1.1,0l1,0.1l1.4-0.3l1.8-0.3l1.7-0.8l2.5-1.3l3.2-0.4l2.9-0.7l2.1-0.9l0.3-1.2
		l0.8-1l0.4-1.1l0.3-1.1l-0.8-1.1l1-0.9l-0.1-1l0.1-0.8l-0.7-0.9l-0.6-1.1l-1.1-1.1l-0.8-1l-0.9-1.1l-1.5-0.9L90.5,13l-2.2-0.7
		l-1.5-0.4l-2.3-1.2L83,9.9l-1.2-0.6L81,9 M81,20.9l-3.2,0.6l-3.7,0.2l-2.8,0.1l-1.5,0.3l-2.1,0.1l-0.6,0.7l-0.4,0.8l-0.4,0.7
		l-0.4,0.8l0,1.2l0.2,1.4l0.4,1.1l0.9,1l1.1,1.2l0.9,0.5l0.9,0.2l1,0.3l1.3,0.4l1.2,0.4l1.2-0.1l0.8,0.2l0.6,0.1l0.6-0.3l1.1-0.3
		l5.1,0.3l3.9,0l3-0.3l2.5-0.5l2-0.6l1.1-0.8l0.7-1l1.2-1l0.5-1.2l0.6-1.3l-0.2-1.5l-0.1-1.4l-1.1-1.6l-0.8-1.4L95,18.9l-1.2-1.3
		l-0.2-1.1l-1-1.1l-1.2-1.2l-2-0.9l-2.9-1.8l-2.5-1.3l-1.3-0.6l-1.1-0.4 M84.5,18.8l-2.3,1.3l-3.8,1l-3.7,1.7l-4,1.2l-1.8,0.6
		l0.5,0.6l0.1,0.3l0.1-0.1l0.2,0.2l0.4,0.8l0.4,0.6l-0.1,0.2l0.2,0.1l0.1,0.3l-0.3,0.2l0.1,0.5l0.5,0.2l0.5,0.4l0.6,0.7l0.7,0.2
		l0.5,0.3l1.3,0.7l1.1,0.5l1.9,0l4.4,0.4l4,0.3l3.8,0.1l3.4-0.2l2.2-0.4l2.8-0.6l1.3-0.9l2-0.9l0.4-1.2l0.1-1.3l-0.4-1.4l-1-1.5
		l-0.6-1.5l-0.9-1.6l-1.7-1.6l-2.2-1.7l-1.8-1.1l-1.9-0.8l-0.9-0.7l-1-0.7l-3.5-1.9l-3-1.6l-1.8-1l-1.7-0.8 M86.5,16.8l-3.8,2
		l-4.4,1.8l-4,1.5L70.6,24L66,25.7l0.7,1.5l0.5,0.9l0.5,1l0.9,1.3l0.6,1.5l0.7,0.5l0.8,0.5l0.9,0.2l1,0.1l1,0.3l0.9,0.2l1.1,0.2
		l0.9-0.4l0.9-0.3l0.7-0.7l0.9-0.4l0.6-0.5l0.4-0.3l1.3-0.8l2.2-0.4l3.4,0l2.8-0.2l2.5-0.3l3-0.3l1-0.6l1.4-0.7l0.6-0.7l0.4-0.6
		l0.6-0.5l0.4-0.6l0.6-0.8l-0.8-1l0-0.9l-0.4-1l-0.6-1l-1.4-1.2l-1.4-1.2l-0.6-1.1l-2-1.7l-4.2-2.3l-3.2-1.7l-1.8-0.9L82.8,10
		 M81.2,18.7l-3.8,0.5l-4.2,0.8l-3.3,0.5l-3.3,0.8l-1.2,0.1l0.4,0.6l0.3,0.3l-0.1,0.3l0.2,0.6l0.4,0.9l0.4,0.9l0.4,1.1l0.6,1.1
		l0.5,0.8l0.9,0.5l0.8,0.3l1.1,0.3l0.9,0.6l1.1,0.6l1.2,0.9l1.1,0.2l1.4,0.5l2,0.7l2.9-0.5l5,0.4l4.1,0.2l4-0.4l1.8-0.7l1.2-0.8
		l1.8-0.9l0.3-1.1l-0.6-1.2l-0.6-1.3l-0.5-1.3l-0.7-1l-0.7-0.9l-0.5-1.2l-0.4-1.1l-0.4-1.2l-1-1.4l-1.6-1.3l-1-1.1l-1.8-1.2
		l-1.7-1.4l-3.8-2.1l-2.5-1.4l-2.3-1.1l-1.3-0.6 M82.6,18.6l-2.4,1.2L75.7,21l-3.3,1L70,23.2l-2.1,0.3l0.2,0.7l0.3,0.5l0.6,0.1
		l0.5,0.1l0.2,1l0.5,0.2l-0.2,0.4l0.2,0.8l0.2,0.4l0.4,0.3l0,0.2l-0.3,0.1l0.1,0.2l0.3,0.9l0.7,0.4l0.5,0.4l0.6,0.1l0.7,0.4l1.7,0.1
		l5,0.4l4.6,0.2l3.7,0.3l2.3-0.1l2.5-0.2l2.5-0.3l1.4-0.5l1.4-0.7l1.1-0.9l0.4-1l0.4-1.1l-0.1-1.2l-0.5-1.5l-1.3-1.6L98,20.9
		l-1.7-1.7l-1.9-1.4l-2.5-1.3L90,15.4l-0.5-1.3l-4.8-2.8l-3.4-2.1l-2.8-1.6L76.9,7 M82,19.2l-3.6,0.7l-4.7,1.6l-3.8,0.7l-2.6,0.5
		L66,23.4l-0.1,0.7l-0.1,0.3l0.1,0.6l0.3,0.6l0.2,0.4l0.1,0.4l0.5,0.6l0.4,0.6l0.4,0.3l0.7,0.7l0.5,0.4l0.9,0.4l0.7,0.7l1,1l0.8,0.2
		l1.2,0.4l1,0.7l0.7,0.7l1.7-0.1l5.4,0.6l4.4,0.4l4,0l2.7-0.3l2.6-0.4l2.6-0.6L100,32l1.7-0.9l0.4-1.1l0.4-1.1l-0.8-1.4l-0.3-1.5
		l-0.5-1.6l-1.3-1.7l-0.1-1.3l-1-1.5l-1.3-1.5l-1.2-1.5l-1.6-1.3l-2-1.1l-3.4-2.1L86.4,11l-2.2-1l-1.3-0.6 M82.9,19L80.7,20
		l-4.1,1.3l-3.7,1.1L70.6,23l-1.9,0.2l-0.3,0.3l0,0.5l0.2,0.9l0.4,1.1l0,1.2l0.2,0.7l0.5,1l0,0.4l0.3,0.5l0.4-0.1l0.7,0.3l0.3,0.5
		l0.3,0.3l0.8,0l1,0.3l1,0.1l1.3,0.4l1.6,0.2l1.4-0.5l4.2-0.2l4.9-0.2l3.5-0.6l2.8-0.4l2.3-0.5l1.3-0.7l0.6-0.6l0.1-0.9l0.2-0.9
		l0.7-0.8l0.1-0.8L99.2,24L99,23l0-0.8l-0.6-1l-1.1-1.1l-1.5-1.3l-1.4-1.2l-2-1.5l-1.9-1l-4-2.2l-2.8-1.4l-1.9-1l-1-0.5 M82.9,19.7
		l-3.2,1.5l-3.8,0.9L72.4,23l-2-0.2l-0.5-0.1l0.1,0.4l0.1,0.4L69.7,24l-0.5,0.7l0,0.6l0.2,0.3l0.5,0.5l0.4,0.2l0.1,0.3l0.2,0.1
		l0.3,0.6l0.4,0.9l0.8,0.9l0.7,0.5l0.8,0.5l1,1l1.4,0l1.7,0.7l2.5-0.6l4.6,0.1l3.6-0.1l3.1-0.3l2.3-0.4l1.6-0.7l2-0.8l0.7-0.9
		l0.8-1.1l1-1.2l-0.5-1.4l-1-1.4l-0.9-1.4l-0.4-1.3l0.1-1.3l-1.1-1.3L95.7,17l-1.6-1l-1.2-0.7l-1.4-0.5l-2-0.7l-4-2l-2.8-1.3
		l-1.9-0.9L79.1,9 M81.3,19l-3,1l-3.4,0.8l-2.7,0.9l-2.3,1l-1.4,0.5l0.7,1l0.9,0.2l0.8,0.3l0.4,0.5l0.7,0.9l0.3,0.5l0.7,0.7l0.3,0.5
		l0.2,0.4l0.2-0.1l0.3,0l0.5,0.4l0.3,0.2l0.1,0l0.4,0.1l0.4,0.5l0.6,0.5l0.7,0.4l0.4,0.2l4.1,0.3l2.9,0.2l3.8,0l2-0.3l2.2-0.2l2-0.5
		l1.3-0.5l0.9-0.7l1.1-1l1.2-1.2l0.7-1.2l0.3-1.3l-0.5-1.4l-0.8-1.2l-0.8-1l-1.1-1.2l-1.1-1.2L94.4,17l-1.8-1.4l-2.1-1.2L86.3,12
		l-3.1-1.6l-1.9-1l-1.6-0.8 M83.9,19.2l-3,1.6l-3.4,0.8l-2.4,0.9l-1.1,0.4l-0.5-0.4l0.4,0.2l-0.3-0.3l-0.6-0.2l-0.5,0l-0.8,0
		l-0.2,0.2l0.3,0.3l0.3,0.7L72,23.6l0.4,0.6l0.8,0.7l0.7,0.6l1,0.6l1.3,0.1l1-0.1l1.6,0.4l1.7,0.1l1.5,0.4l2.2-1.1l1.3-0.1l1.2,0
		l0.7,0.1l0.2,0.1l0.6,0.5l1.1,0.7l0.4,0.6l-0.5,0.6l1,0.3l2.1,0.1l1.8-0.2l0.4-0.6l1-0.8l0.6-0.9l0.1-1.2l-0.3-1.4l-1.1-1.5
		l-0.5-1.5l0.1-1.2l-0.4-1.3l-3.1-2L89,15.2l-2.2-1.3l-1.9-1.1 M84.8,18l-2.5,1.6L77,21.2l-4.2,0l-2.6-0.3l-2.4,1.4l-0.2,0.8
		l-0.3,1.4L67,25.4l0,0.7l0.4,1.1l0.9,1.1l0.7,0.7l0.8,0.5l0.8,0.3l1,0.4l1.4,0.3l1.3,0.4l1.2,0.3l0.9,0.8l0.8,0.4l0.9,0.1l0.7-0.2
		l0.8,0.2l1.9-0.5l4,0.2l3.6,0.2l3.3-0.2l2.5-0.3l3-0.5l1.7-0.8l0.9-0.8l1.3-0.8l0.3-1l-0.2-1.1l0-1l-0.7-1.2l-0.8-1.3l-1-1.3
		l-1.1-1.3l-0.6-1L97.5,19l-0.8-1.1L95,16.6l-2.5-1.7L89,12.9l-2.7-1.5L83.8,10l-1.7-0.9 M81.7,19.7l-2-0.1l-3.2,1l-3.3,2l-3.5,1.6
		l-2.9,1.3l0.2,0.8l0.5,1l0.7,0.3l0.4,0.7l0.6,0.8l0.9,1l0.8,0.5l0.7,0.4l0.9,0.5l0.8,0.4l1.1,0l0.8-0.3l0.8-0.3l1.1,0l0.7-0.2
		l0.8-0.4l1,0.1l0.8-0.1l1.1-0.3l2.8,0.1l2.4,0.1l2.6-0.2l2.7-0.4l1.6-0.6l1.3-0.7l1-0.6l1.1-0.5l0.7-0.5l0.6-0.5l0-0.6l-0.1-0.7
		l0.1-0.7l-0.3-0.8l-0.7-1l-0.4-1l-0.9-1.1l-1.2-1.1l-1.4-1.1l-1.8-1.6l-4.2-2.5l-3-1.8l-1.9-1.1l-1.2-0.7 M79.1,20.4l-2.5,0.3
		L74,21.2l-2.2,0.9l-1.9,0.7l-1.2,0.5l0.3,0.6l0.3,0.2l0.1,0.5l0.2,0.3l0.3,0.5l0,0.7l0.2,1l0.4,0.4l0,0.2l0.3,0.3l0.4,0.4l0.6,0.8
		l0.2,0.4l0,0.7l0.4,0.6L73,31l0.4,0.2l0.5,0.4l0.8,0.5l4.2,0.7l3.9,0.3l3.1,0.1l3.6-0.1l4.3-0.2l3.1-0.4l2-0.5l0.8-0.7l0.2-0.7
		l0.2-0.8l0.6-0.9l1-0.9l0.2-1.1l0.1-1.1l-0.2-1.2l-0.1-1.1l-0.1-1.2l-1-1.2l-1.3-1.3l-2.3-1.4l-4.4-2.5l-3.3-2l-2.4-1.5L84.2,11
		 M82.7,18.1l-3.3,0.9l-4,1.3L72,21.9l-2.3,1.3l-1.5,0.6l-0.2,1l-0.2,1l-0.3,0.5l0,0.8l0.2,0.4l0,0.6l0.3,0.5l0.2,0.4l0.4,0.9
		l0.4,0.4l0.3,0.2l0.4,0.2l0.6-0.1l0.8,0.1l1,0.4l1.3,0.6l1.2,0.4l0.9,0.3l2.4-0.7l3.5,0.3l3.1,0.2l3.3-0.1l2.3-0.1l1.9-0.2l1.7-0.3
		l2-0.4l0.9-0.5l1.3-0.5l0.5-0.7L98,28.2l0.2-0.8l0-0.9L98,25.6l-0.2-0.9l0-1l-0.5-1.1l-1-1.3L95.1,20l-1.3-1.8l-5.4-3.1l-4.1-2.5
		L81.6,11l-2.8-1.6 M82.7,19.7L79.9,20l-4.4,1.9l-3.4,1.1l-2,0.6l-1.3,0.8l0.4,0.8l0.8,1.2l0.9,0.7l0.9,0.7l1.1,0.7l0.9,0.2l0.3,0.3
		l0.3,0.1l-0.2-0.3l-0.9-0.3l-0.6,0.1l-0.2,0.2l-0.3-0.1L72.1,29l0.3,0.3l0.7,0.5l0.6,0.8l1,1.1l2.7-0.3l4.4,0.7l3.7,0.5l4.1,0.3
		l3.7,0.1l3.1-0.1l2.2-0.3l1.3-0.5l1.1-0.7l0.7-0.7l0.1-1l0.4-1.1l0-1.2l-0.6-1.3l-0.5-1.2l-0.6-1.2l-0.6-1.2l-1-1.3L98.1,20
		l-1.4-1.4l-2-1.4L91,15.1l-3.3-1.8l-2.6-1.5l-1.6-0.9 M83.9,17.8l-2.2,0.5L78.3,20l-3.5,0.9l-2,1.1l-2.2,1.1l-0.1,0.3l0.2,0.6
		l-0.2,0.5l0.1,0.7l0,0.5l0.2,0.4l0.3,0.2l0.3,0.4l0.6,0.3l0.9,0.5l1.1,0.1l0.9,0.2l1.2,0l1.4,0.1l1.2,0.2l1.4-0.4l1.4,0.2l1.7-0.2
		l2.8-1.6l0.9-0.1l1.3,0.1l0.3,0.1l0.5,0l0.6,0.2l0.3,0.1l0,0.1l-1.2,0.6l1.5,0.6l1.8,0.4l2.5,0.1l1.6-0.2l0.4-0.5l0.2-0.8l-0.2-1.1
		l-0.6-1.3l-0.3-1.6l-1.4-2.1l-2.5-2.5L90.3,17L87,14.8l-2.3-1.6l-1.6-1.1l-1.3-0.8 M78.5,21.3l-3.1-0.5l-2.5,0.9l-1.9,0.9L68.6,23
		l-0.9-0.2l-0.3,0.3l-0.3,0.6l-0.2,0.7l0.3,1.1l0.3,0.6l0.7,0.5l0.9,0.5l0.5,0.8l0.7,0.5l1,0.8l1,0.2l1.3,0.4l1.1,0.5l1.2,0.2
		l0.9,0.1l0.8,0l0.7,0.2l1,0.2l1.8-0.5l3.8,0.4l3.5,0.3l3.5,0l4.5-0.2l1.8-0.5l1-0.7L100,29l1.1-1l0.1-1.2l-0.2-1.2l0-1.2l-0.7-1.4
		l-0.5-1.4l-0.7-1.5l-1.4-1.5l-1.9-1.5l-2.4-1.6l-1.9-1.3l-2.3-1.4l-2.1-1.1l-3.7-2.1l-2.4-1.4l-1.9-0.8L78,7.1 M79.8,19.9l-2.9,0.7
		l-3.2,1.5l-2.7,0.9l-1.9,0.5l-1,0.1l-0.3,0.6l-0.2,0.4l0,0.5l0,0.5l0,0.3l0.1,0.2l0.1,0.2l0.3,0.6l0.6,0.4l0.3,0.1l0.6,0.4l0.5-0.2
		l0.3-0.2l0.8,0.6l0.7,0.6l1,0.7l1.1,0.3l1.7,0.8l3.4-0.7l5,0.8l4.8,0.4l3.6-0.1l2.7-0.4l1.9-0.6l1.3-0.7l0.9-0.7l0.1-0.7l0.2-0.8
		l-0.1-0.7l0.2-0.5l0-0.7l0.2-0.7l-0.1-0.8l0.2-0.9l-0.7-1.2l-0.9-1.2L97.3,19l-1.7-1.4l-1.8-1.5l-5.3-2.9l-3.9-2.1l-2.5-1.2L80.3,9
		 M79.8,19.5l-2.1,1L75,21.6l-3.3,1.4l-2.9,0.9l-2,1l0.6,0.7l0.4,0.4l0.8,0.3l0.9,0.7l1.3,0.7l0.6,0.7l0.2,0.5l0.2,0.5l0.6,0.4
		l0.6,0.4l0.4,0.2L74,30l0.5-0.4l0.7-0.2l1.1,0.2l0.4,0.3l0.5,0.7l0.9,0.6l2.2-0.3l3.6,0.5l4.1,0.4l2.3,0l2.8-0.1l2.6-0.2l2-0.3
		l1.3-0.5l1-0.5l0.9-0.6l0.4-0.8l0.6-0.7l0.4-0.9l-0.1-1.1l-0.5-1.2l-1-1.4L99.7,22l-1.6-1.6l-2-1.7L94.4,17l-2.1-1.7L88.4,13
		l-3.2-1.8l-2.3-1.2L81,9"/>
	<g>
		<g>
			<polyline class="st11" points="82.9,19 80.1,20 76.4,21.3 73.2,22.2 70.7,22.9 69.1,23.5 69.2,24.2 69.3,24.8 69.4,25.4 
				69.7,26.1 70,26.9 70.4,27.4 70.9,27.9 71.4,28.3 71.9,28.7 72.4,29 73.1,29.4 73.8,29.7 74.5,29.9 75.3,30.1 76.1,30.3 
				76.9,30.4 77.7,30.5 78.6,30.7 79.4,30.5 82.5,30.5 85.4,30.3 88.1,30 90.5,29.5 92.6,29 94.2,28.3 95.3,27.6 95.9,26.8 96.5,26 
				96.9,25.1 97,24.2 96.9,23.2 96.6,22.2 96.2,21.2 95.7,20.2 95,19.1 94.1,18.1 93.2,17.2 92.2,16.3 91,15.3 87.8,13.4 85.9,12.4 
							"/>
			<g>
				<path d="M86.7,12.8l0.1,2.1l-0.1,0l-2-2.4c-0.8-0.7-1.6-1.4-2.4-2.1c1,0.3,2,0.6,3,0.9l3.1,0.4l0,0.1L86.7,12.8z"/>
			</g>
		</g>
	</g>
	<path class="st4" d="M70.9,22.8c0-0.2-0.1-0.3-0.3-0.3s-0.3,0.1-0.3,0.3c0,0.2,0.1,0.3,0.3,0.3S70.9,23,70.9,22.8"/>
	<path class="st9" d="M78.7,30.5c0-0.2-0.1-0.3-0.3-0.3c-0.2,0-0.3,0.1-0.3,0.3c0,0.2,0.1,0.3,0.3,0.3
		C78.6,30.8,78.7,30.7,78.7,30.5"/>
	<path class="st10" d="M92.3,16.1c0-0.2-0.1-0.3-0.3-0.3s-0.3,0.1-0.3,0.3c0,0.2,0.1,0.3,0.3,0.3S92.3,16.3,92.3,16.1"/>
</g>
<g>
	<polyline class="st12" points="114,59.2 107.6,62.6 99.8,64 93.5,65 89.3,65.2 89.2,65.2 89.4,67 89.3,68.7 89.5,70.2 89.1,72.1 
		88.8,73.6 88.3,75.1 87.8,75.9 87.7,77 88.4,78.4 89.5,79.9 90.2,81 91.3,82.4 92.9,83.6 94.8,86.9 96.6,89.8 98.1,89.6 99.9,87.7 
		102,86.1 103,85.3 106.4,85.4 111.5,85.8 117.7,85.5 124,84.9 128.2,83.5 132.8,82.5 136.1,80.7 137.7,78.6 139.1,76.7 140,74.7 
		140.1,72.2 141.1,70.3 140.8,67.9 139.8,65 138.7,62.4 136.2,59.1 134,55.6 131,53.1 128.1,49.9 126.8,49 122.5,45.5 119.3,42.6 
		117,40.5 115.6,38.9 	"/>
	<path class="st4" d="M89.6,64.9c0-0.3-0.2-0.6-0.6-0.6c-0.3,0-0.6,0.2-0.6,0.6s0.2,0.6,0.6,0.6C89.3,65.4,89.6,65.2,89.6,64.9"/>
	<path class="st9" d="M102.2,85.8c0-0.3-0.2-0.6-0.6-0.6c-0.3,0-0.6,0.2-0.6,0.6c0,0.3,0.2,0.6,0.6,0.6
		C102,86.4,102.2,86.2,102.2,85.8"/>
	<path class="st10" d="M128.4,49.6c0-0.3-0.2-0.6-0.6-0.6c-0.3,0-0.6,0.2-0.6,0.6c0,0.3,0.2,0.6,0.6,0.6
		C128.2,50.1,128.4,49.9,128.4,49.6"/>
	<polyline class="st13" points="110.3,53.8 106.7,58 102.4,59.7 98.1,61.3 94.2,61.8 90.8,61.6 90.2,62.8 89.6,63.7 89.6,65.1 
		88.8,68 88.5,70 88.1,72.1 88,74 87.6,74.2 87.7,75.4 88.2,77 88.1,78.1 88.7,80.2 88.5,80.6 88.6,79.7 88.5,79.1 88.6,79.1 
		88.6,79.8 89.4,81.8 90.2,83 97.4,83.9 104.4,84.2 110.7,84.1 118.1,84.1 122.9,83.2 127.2,81.5 129.7,80.1 129.7,78.7 132.3,77.3 
		133.5,75.6 134,73.9 135.4,71.7 136.6,69.8 136.3,67.5 135.5,65.6 135.1,63.5 133.9,60.6 131.9,57.6 129.8,55.6 129,54.3 
		124.7,50.8 121.1,47.7 118,45.1 116.1,43.1 	"/>
	<path class="st4" d="M94.5,61.5c0-0.3-0.2-0.6-0.6-0.6s-0.6,0.2-0.6,0.6c0,0.3,0.2,0.6,0.6,0.6S94.5,61.8,94.5,61.5"/>
	<path class="st9" d="M89.7,81.5c0-0.3-0.2-0.6-0.6-0.6c-0.3,0-0.6,0.2-0.6,0.6c0,0.3,0.2,0.6,0.6,0.6
		C89.4,82.1,89.7,81.8,89.7,81.5"/>
	<path class="st10" d="M130.1,55.3c0-0.3-0.2-0.6-0.6-0.6c-0.3,0-0.6,0.2-0.6,0.6c0,0.3,0.2,0.6,0.6,0.6
		C129.9,55.9,130.1,55.6,130.1,55.3"/>
	<polyline class="st14" points="113.5,54.7 108.9,56.8 101,60.7 93.1,64.5 87.8,66.3 85.4,67.5 86,69.8 87,71.3 87.4,72.3 87.7,73 
		88,74.8 88.4,76.3 89.3,78.7 90,81.8 91,81 91.8,79.9 93,79.8 94.9,79.7 97.2,78.9 99,78.9 101,78.9 103.9,80.8 106.5,81.8 
		109.8,81.7 111.7,79.4 115.6,77.9 119.1,76.1 122.2,73.5 123,71.2 123.6,68.6 126.7,66 128.7,63.6 130.3,61.3 131.2,59 132.4,56.6 
		132.9,53.6 130.2,50.9 130,48.4 129,46.4 128.1,44.7 127,43.1 124.4,40.5 121.9,38.4 118.6,36.4 117.1,37.8 114.3,35.7 111.9,34.1 
		110.3,33 109.4,32.7 	"/>
	<path class="st4" d="M88.1,66c0-0.3-0.2-0.6-0.6-0.6c-0.3,0-0.6,0.2-0.6,0.6c0,0.3,0.2,0.6,0.6,0.6C87.9,66.6,88.1,66.3,88.1,66"/>
	<path class="st9" d="M110,81.4c0-0.3-0.2-0.6-0.6-0.6s-0.6,0.2-0.6,0.6c0,0.3,0.2,0.6,0.6,0.6S110,81.7,110,81.4"/>
	<path class="st10" d="M118.9,36.1c0-0.3-0.2-0.6-0.6-0.6s-0.6,0.2-0.6,0.6c0,0.3,0.2,0.6,0.6,0.6S118.9,36.4,118.9,36.1"/>
	<polyline class="st15" points="117.3,54 112.7,55.8 105.8,59.4 101.6,62.1 95.7,66.4 91.5,70.9 92.4,73.2 93.2,74.2 94.3,75.3 
		94.8,77.3 95.2,77.6 95.6,78.2 96.1,79.2 97.1,80.3 98.1,80 98.6,79.3 99.6,79.1 100.9,78.5 102.7,79 104.9,78 106.8,77.6 
		108.9,77.3 111.6,75.1 113.9,72.7 114.3,70.1 114.3,68.1 112.6,65.9 114.1,64.3 117.8,63.3 121.3,62.6 123.7,61.3 126.7,59.3 
		127.6,57.3 127.5,55.8 127.6,54.3 126.5,52.7 127.5,51.2 128.6,49.8 128.9,48.9 127.6,48.1 126.3,47.4 125.4,46.4 125.4,45.6 
		126.3,45.5 125.2,44.7 120.3,41 117.2,38.8 114.1,36.8 112.2,35.6 	"/>
	<path class="st4" d="M96,66.2c0-0.3-0.2-0.6-0.6-0.6s-0.6,0.2-0.6,0.6c0,0.3,0.2,0.6,0.6,0.6S96,66.5,96,66.2"/>
	<path class="st9" d="M114.2,72.5c0-0.3-0.2-0.6-0.6-0.6c-0.3,0-0.6,0.2-0.6,0.6c0,0.3,0.2,0.6,0.6,0.6
		C114,73,114.2,72.8,114.2,72.5"/>
	<path class="st10" d="M126.6,45.2c0-0.3-0.2-0.6-0.6-0.6c-0.3,0-0.6,0.2-0.6,0.6c0,0.3,0.2,0.6,0.6,0.6
		C126.3,45.7,126.6,45.5,126.6,45.2"/>
	<polyline class="st16" points="116.4,52.9 111,57 101.8,62.6 91.5,64.2 85.7,66.3 83.6,67.1 83.9,68.6 84.2,70.7 84.5,72.8 
		85.1,75 86.2,77.5 87.6,78.8 89.4,79.6 90.5,80.4 90.4,81.5 90.6,82.3 91.7,84.2 92.9,86.4 94.6,89.3 96.2,87.4 97.1,86.1 
		98.4,85.2 100.4,84.9 101.7,84.3 101,84.4 108,83.2 114.6,81.6 119,79.3 122.2,76.9 126.3,74.1 128.5,71.2 130.7,68.3 133,65.8 
		134.4,63.1 133.9,60.2 133,57.3 131.6,54.7 129.1,51.4 128,49.4 124.6,47 123.6,45.3 120,43.5 118.1,42.7 118.1,42.2 120.4,42.2 
		118.5,40.2 117.7,38.9 116.1,37.6 114.6,36.6 	"/>
	<path class="st4" d="M85.9,66.1c0-0.3-0.2-0.6-0.6-0.6c-0.3,0-0.6,0.2-0.6,0.6c0,0.3,0.2,0.6,0.6,0.6
		C85.7,66.6,85.9,66.4,85.9,66.1"/>
	<path class="st9" d="M102,84.1c0-0.3-0.2-0.6-0.6-0.6c-0.3,0-0.6,0.2-0.6,0.6c0,0.3,0.2,0.6,0.6,0.6C101.7,84.6,102,84.4,102,84.1"
		/>
	<path class="st10" d="M118.4,41.9c0-0.3-0.2-0.6-0.6-0.6c-0.3,0-0.6,0.2-0.6,0.6c0,0.3,0.2,0.6,0.6,0.6
		C118.1,42.5,118.4,42.2,118.4,41.9"/>
	<polyline class="st17" points="112.4,52.2 106.4,56.9 97.3,60.5 91.1,62.4 88.5,63.4 85.4,64.1 84.7,66.3 83.7,68.2 82.5,69.5 
		81.9,71.6 81.9,74.5 81.8,75.6 82.6,77.3 83.5,77.8 84.2,78.8 85.6,80.1 87.2,80.8 88.2,82.1 89.2,83.4 90.1,84.1 90.9,84 
		92.6,84.7 95,85.8 97.8,85.6 99.8,85.2 109.7,85.2 117.2,84.5 123.8,84.2 129.4,82.7 134.5,81.1 136.3,78.8 138.5,76.5 138.6,73.9 
		139.9,70.8 138.7,67.7 139.5,64.5 138.7,61.2 137.6,57.4 133.9,53.3 130.3,49.4 127,45.9 124.4,43.3 123.4,41.2 123,40.3 
		122.5,39.6 118.9,37 117.5,35.5 116.2,34.2 112.7,32.2 	"/>
	<path class="st4" d="M88.7,63.1c0-0.3-0.2-0.6-0.6-0.6c-0.3,0-0.6,0.2-0.6,0.6s0.2,0.6,0.6,0.6C88.5,63.6,88.7,63.4,88.7,63.1"/>
	<path class="st9" d="M98,85.3c0-0.3-0.2-0.6-0.6-0.6c-0.3,0-0.6,0.2-0.6,0.6c0,0.3,0.2,0.6,0.6,0.6C97.8,85.8,98,85.6,98,85.3"/>
	<path class="st10" d="M123.3,40c0-0.3-0.2-0.6-0.6-0.6s-0.6,0.2-0.6,0.6c0,0.3,0.2,0.6,0.6,0.6S123.3,40.3,123.3,40"/>
	<polyline class="st18" points="112.7,51.5 107.9,55 101.2,60.2 95.4,63.3 90.8,66.4 86.9,67.9 87.1,68.5 87.4,69.8 87.3,71.7 
		87.9,73.9 88.8,75.3 89.1,76.2 90,77.3 90.4,78.5 90.5,79.5 91.1,80.4 91.9,80.9 92.9,81.3 94.5,82 96.9,82.7 99.7,84.2 
		102.7,86.5 105.4,86.1 108.4,84.9 109.5,83.5 111.6,82.7 115.8,82.3 119.4,81.4 122.2,80.1 125.7,78.7 128.4,76.8 130.4,75.2 
		132.3,73.5 134.9,72.2 136.7,70.8 137.3,69.1 136.8,67 136.1,64.5 135.3,61.6 135.2,59.4 134.8,57.4 132.7,55.5 131.4,53.4 
		130.8,52 129.8,49.5 125.2,45.3 121.5,41.6 118.1,38.4 114.9,35.9 	"/>
	<path class="st4" d="M91.1,66.1c0-0.3-0.2-0.6-0.6-0.6c-0.3,0-0.6,0.2-0.6,0.6c0,0.3,0.2,0.6,0.6,0.6
		C90.9,66.6,91.1,66.4,91.1,66.1"/>
	<path class="st9" d="M108.7,84.7c0-0.3-0.2-0.6-0.6-0.6s-0.6,0.2-0.6,0.6c0,0.3,0.2,0.6,0.6,0.6S108.7,85,108.7,84.7"/>
	<path class="st10" d="M131.1,51.8c0-0.3-0.2-0.6-0.6-0.6c-0.3,0-0.6,0.2-0.6,0.6c0,0.3,0.2,0.6,0.6,0.6
		C130.8,52.3,131.1,52.1,131.1,51.8"/>
</g>
<g>
	<polyline class="st18" points="48.9,79.3 49.2,78.7 45.5,76.6 39.3,73.5 32.8,70.3 28,67.5 25.1,65.2 23.4,63.4 22.4,61.8 
		21.9,60.2 22,58.6 22.2,57.1 22.7,55.4 23.5,53.6 24.8,52.3 27,51.5 30.6,51.9 36.2,53.5 44.1,56.9 53.2,61.4 61,66.4 65.4,71.1 
		66.4,75.4 65.9,78.4 65.6,79.3 65.4,77.1 63.8,71.9 60.2,64.4 55,56.4 49.3,48.8 44.4,42.8 40.8,38.3 38.9,35.3 38.4,33.4 
		38.5,32.5 38.4,32.2 37.4,33.2 35.7,35.3 33.6,38.8 31.3,43.6 29,49.3 26.4,55.6 23.2,62.6 18.8,69.8 13.6,76.9 8.7,82.8 4.9,86.9 
		2.7,89 1.6,89.5 	"/>
	<path class="st4" d="M33.2,70c0-0.3-0.3-0.6-0.6-0.6c-0.3,0-0.6,0.3-0.6,0.6s0.3,0.6,0.6,0.6C32.9,70.7,33.2,70.4,33.2,70"/>
	<path class="st9" d="M66.2,78.1c0-0.3-0.3-0.6-0.6-0.6c-0.3,0-0.6,0.3-0.6,0.6c0,0.3,0.3,0.6,0.6,0.6C66,78.7,66.2,78.4,66.2,78.1"
		/>
	<path class="st10" d="M19.1,69.5c0-0.3-0.3-0.6-0.6-0.6s-0.6,0.3-0.6,0.6c0,0.3,0.3,0.6,0.6,0.6S19.1,69.8,19.1,69.5"/>
	<polyline class="st12" points="34.8,82.6 35.4,82.4 34.5,81 32.1,78.7 28.6,75.9 25.1,73.1 23,71 22.7,69.6 24.3,68.9 27.2,68.3 
		30.4,67.5 32.9,66.4 34,64.9 34,63.4 33.9,61.9 34.7,60.2 36.2,58.1 37.3,54.9 37,51.5 35.9,49 35.4,47.9 37.4,49.1 42.9,53.1 
		51,59.2 59.5,65.3 65.4,68.5 66.8,67.3 64.2,62.4 59,55.8 53,49.4 47.9,44.8 44.5,42.5 42.8,41.5 42.3,41 42.2,40.5 41.7,39.9 
		40.9,39.2 39.7,39 38.9,39.4 38.2,41.2 36.4,44.6 32.9,50 28,56.7 22.2,63.7 16.4,69.6 11.5,74.3 8,77.5 5.9,79.9 5.1,81.9 	"/>
	<path class="st4" d="M28.9,75.6c0-0.3-0.3-0.6-0.6-0.6s-0.6,0.3-0.6,0.6c0,0.3,0.3,0.6,0.6,0.6S28.9,75.9,28.9,75.6"/>
	<path class="st9" d="M51.3,58.9c0-0.3-0.3-0.6-0.6-0.6c-0.3,0-0.6,0.3-0.6,0.6c0,0.3,0.3,0.6,0.6,0.6
		C51.1,59.5,51.3,59.2,51.3,58.9"/>
	<path class="st10" d="M22.5,63.3c0-0.3-0.3-0.6-0.6-0.6c-0.3,0-0.6,0.3-0.6,0.6c0,0.3,0.3,0.6,0.6,0.6C22.2,64,22.5,63.7,22.5,63.3
		"/>
	<polyline class="st15" points="43.3,83.9 45.5,82.1 45,79.1 42.4,75.4 38.9,71.3 36.1,67.1 34.2,63.6 33.1,61.4 33,60.8 34.2,61 
		37.3,61 41.9,60.3 46.5,58.5 48.8,55.9 47.8,53.2 44,50.8 39.5,49.2 35.7,48.6 33.7,48.6 33.9,49 37.1,50.2 42.6,52.8 49,56.6 
		55.3,60.7 60.5,63.4 64.1,63.7 65.8,62.8 65.1,61.9 62.2,61.9 57.3,62.4 51.6,61.8 46.6,59.7 43,56.5 40.9,53 39.6,50.3 39,48.8 
		38.6,48.3 37.9,48.4 36.2,49 33,50.6 28.5,54.2 23.2,59.8 17.7,66.7 12.8,73.9 8.8,80.2 5.9,84.8 4.2,87.7 3.5,89.1 3.4,89.8 	"/>
	<path class="st4" d="M39.2,71c0-0.3-0.3-0.6-0.6-0.6c-0.3,0-0.6,0.3-0.6,0.6c0,0.3,0.3,0.6,0.6,0.6C38.9,71.6,39.2,71.3,39.2,71"/>
	<path class="st9" d="M55.6,60.4c0-0.3-0.3-0.6-0.6-0.6c-0.3,0-0.6,0.3-0.6,0.6c0,0.3,0.3,0.6,0.6,0.6C55.3,61,55.6,60.7,55.6,60.4"
		/>
	<path class="st10" d="M13.1,73.6c0-0.3-0.3-0.6-0.6-0.6c-0.3,0-0.6,0.3-0.6,0.6s0.3,0.6,0.6,0.6C12.8,74.2,13.1,74,13.1,73.6"/>
	<polyline class="st14" points="52.1,88.2 52.3,88.9 51.5,88.2 50.5,86.4 49,84.3 46.4,81.7 42.8,79.2 39.3,77 37.1,75.3 36.4,73.8 
		37,72.5 38.4,71.1 39.7,69.9 40.4,68.5 39.9,67.1 38.5,65.3 37.2,63.8 36.5,62.6 36.8,62.8 37.7,64.6 39,67.6 40.3,70.9 41.4,74 
		42.9,76.5 45.4,78.2 49,79 52.4,78.3 54.1,76 53.6,72.1 50.8,67.6 46.6,63.5 42.1,60.5 38.3,58.5 35.9,57.4 34,56.9 32,56.4 
		30,55.5 28.8,54.4 29,53.4 30,53.5 30.9,54.7 30,57.1 27,60.6 22.1,65.2 16.2,70.6 11,75.8 7.2,80.2 5.2,83.3 4.6,85.6 	"/>
	<path class="st4" d="M49.3,83.9c0-0.3-0.3-0.6-0.6-0.6s-0.6,0.3-0.6,0.6c0,0.3,0.3,0.6,0.6,0.6S49.3,84.3,49.3,83.9"/>
	<path class="st9" d="M43.2,76.2c0-0.3-0.3-0.6-0.6-0.6c-0.3,0-0.6,0.3-0.6,0.6c0,0.3,0.3,0.6,0.6,0.6
		C42.9,76.8,43.2,76.5,43.2,76.2"/>
	<path class="st10" d="M22.4,64.9c0-0.3-0.3-0.6-0.6-0.6s-0.6,0.3-0.6,0.6c0,0.3,0.3,0.6,0.6,0.6S22.4,65.2,22.4,64.9"/>
	<polyline class="st16" points="54.7,84.5 55.9,84.6 53,81.9 46.8,77.4 39.2,72.7 32.7,68.8 28.9,65.9 27.7,63.6 28.7,61.6 
		31.1,59.8 33.4,57.5 34.7,54.6 35.2,51.3 35.6,48.3 36.7,47 39,48.6 42.7,52.3 46.8,56.3 49.1,59 49,59.2 47.4,57.9 47.1,57.4 
		49.9,59.7 55.9,64.8 62.4,70 67,72.7 67.8,72.2 65.2,69.6 60.2,66.3 54,63.2 47.6,60.2 42.2,57 38.4,53.8 36.3,51.2 35.3,50.3 
		34.7,51.4 33.9,53.9 33,57.2 32.4,61.1 32.6,65.7 33.7,70.9 35.1,76.3 35,81.2 31.9,84.8 25.9,87.2 18.8,88.1 12.7,88.4 8.3,88.5 
		5.7,88.8 	"/>
	<path class="st4" d="M39.5,72.4c0-0.3-0.3-0.6-0.6-0.6c-0.3,0-0.6,0.3-0.6,0.6c0,0.3,0.3,0.6,0.6,0.6C39.2,73,39.5,72.7,39.5,72.4"
		/>
	<path class="st9" d="M56.2,64.5c0-0.3-0.3-0.6-0.6-0.6c-0.3,0-0.6,0.3-0.6,0.6s0.3,0.6,0.6,0.6C56,65.1,56.2,64.8,56.2,64.5"/>
	<path class="st10" d="M32.2,84.5c0-0.3-0.3-0.6-0.6-0.6c-0.3,0-0.6,0.3-0.6,0.6c0,0.3,0.3,0.6,0.6,0.6
		C31.9,85.1,32.2,84.9,32.2,84.5"/>
	<polyline class="st17" points="40.6,77.7 40.2,77.2 37,75.4 32.3,72.7 28,69.7 25.3,66.9 24.6,64 25.7,60.5 28.4,56.8 32,53 
		35.7,49.6 38.4,46.2 39.8,42.7 39.9,39.8 39.4,38 38.7,37.9 38.4,39.1 38.7,41.2 38.9,43.7 39.3,46.1 40.1,48.6 42.4,51.9 
		47.4,56.1 54,60.7 60.4,63.6 64.3,63.6 64.2,60.1 60.6,54.8 54.8,49.3 48.9,45.2 43.9,42.8 40.6,42 38,42.2 35.6,43.2 33.4,44.2 
		31.1,45.4 29.2,46.8 27.9,49.6 27.9,53.5 28.8,58.5 29.5,63.5 29,68.4 26.2,73.3 21.6,78 16,81.9 11,84.4 7.4,85.8 5.5,86.6 
		4.7,87.4 	"/>
	<path class="st4" d="M28.3,69.4c0-0.3-0.3-0.6-0.6-0.6c-0.3,0-0.6,0.3-0.6,0.6c0,0.3,0.3,0.6,0.6,0.6C28,70,28.3,69.8,28.3,69.4"/>
	<path class="st9" d="M54.3,60.4c0-0.3-0.3-0.6-0.6-0.6c-0.3,0-0.6,0.3-0.6,0.6c0,0.3,0.3,0.6,0.6,0.6C54,61,54.3,60.7,54.3,60.4"/>
	<path class="st10" d="M21.9,77.7c0-0.3-0.3-0.6-0.6-0.6c-0.3,0-0.6,0.3-0.6,0.6c0,0.3,0.3,0.6,0.6,0.6
		C21.6,78.3,21.9,78.1,21.9,77.7"/>
	<polyline class="st13" points="39.4,78.2 41.4,78.8 41.9,78 41.6,75.9 40.1,73.4 37.5,70.8 34.6,68.6 32.4,66.5 31.5,64.6 
		31.5,62.5 31.5,60.4 31.3,58.8 31.1,58 31.1,57.2 31.4,56.2 32.2,54.8 33.7,53.7 36.2,53.5 40.2,54.6 46,56.9 53.1,60.6 59.5,64.7 
		63.1,68.6 63.7,71.6 62,73.1 59.7,73.1 57.3,71.6 54.5,69.3 51,66.4 46.8,63.4 42.5,60.4 38.9,56.8 36.5,52.9 35.2,49 34.7,46.3 
		34,46.1 32.3,48.7 29.3,52.9 25.9,57.1 23.5,60 22.5,61.9 21.9,63.9 20.3,66.7 17.2,70.4 13,74.7 8.9,78.9 5.7,82.6 3.7,85.3 
		2.8,87.4 	"/>
	<path class="st4" d="M40.4,73.1c0-0.3-0.3-0.6-0.6-0.6c-0.3,0-0.6,0.3-0.6,0.6c0,0.3,0.3,0.6,0.6,0.6
		C40.1,73.7,40.4,73.4,40.4,73.1"/>
	<path class="st9" d="M64,71.3c0-0.3-0.3-0.6-0.6-0.6c-0.3,0-0.6,0.3-0.6,0.6c0,0.3,0.3,0.6,0.6,0.6C63.7,71.9,64,71.6,64,71.3"/>
	<path class="st10" d="M17.5,70.1c0-0.3-0.3-0.6-0.6-0.6s-0.6,0.3-0.6,0.6s0.3,0.6,0.6,0.6S17.5,70.5,17.5,70.1"/>
</g>
</svg>
