<?xml version="1.0" encoding="utf-8"?>
<!-- Generator: Adobe Illustrator 23.0.0, SVG Export Plug-In . SVG Version: 6.00 Build 0)  -->
<svg version="1.1" id="Layer_1" xmlns="http://www.w3.org/2000/svg" xmlns:xlink="http://www.w3.org/1999/xlink" x="0px" y="0px"
	 viewBox="0 0 145.04 91.96" style="enable-background:new 0 0 145.04 91.96;" xml:space="preserve">
<style type="text/css">
	.st0{fill:url(#SVGID_1_);stroke:#00AEED;stroke-width:0.25;}
	.st1{fill:url(#SVGID_2_);stroke:#00AEED;stroke-width:0.25;}
	.st2{fill:url(#SVGID_3_);stroke:#00AEED;stroke-width:0.75;}
	.st3{fill:url(#SVGID_4_);stroke:#00AEED;stroke-width:0.75;}
	.st4{fill:url(#SVGID_5_);stroke:#00AEED;stroke-width:0.75;}
	.st5{fill:url(#SVGID_6_);stroke:#00AEED;stroke-width:0.75;}
	.st6{fill:url(#SVGID_7_);stroke:#00AEED;stroke-width:0.75;}
	.st7{fill:url(#SVGID_8_);stroke:#00AEED;stroke-width:0.75;}
	.st8{fill:url(#SVGID_9_);}
	.st9{fill:url(#SVGID_10_);}
	.st10{fill:url(#SVGID_11_);stroke:#00AEED;stroke-width:0.25;}
	.st11{fill:url(#SVGID_12_);stroke:#00AEED;stroke-width:0.25;}
	.st12{fill:url(#SVGID_13_);}
	.st13{fill:none;stroke:#F3DA00;stroke-width:0.25;}
	.st14{fill:none;stroke:#00AEED;stroke-width:0.25;stroke-dasharray:2,2;}
	.st15{fill:url(#SVGID_14_);stroke:#000000;stroke-width:0.75;}
	.st16{fill:url(#SVGID_15_);stroke:#000000;stroke-width:0.75;}
	.st17{fill:url(#SVGID_16_);stroke:#000000;stroke-width:0.75;}
	.st18{fill:url(#SVGID_17_);stroke:#00AEED;stroke-width:0.25;}
	.st19{fill:url(#SVGID_18_);stroke:#00AEED;stroke-width:0.25;}
	.st20{fill:url(#SVGID_19_);stroke:#00AEED;stroke-width:0.75;}
	.st21{fill:url(#SVGID_20_);stroke:#00AEED;stroke-width:0.75;}
	.st22{fill:url(#SVGID_21_);stroke:#00AEED;stroke-width:0.75;}
	.st23{fill:url(#SVGID_22_);stroke:#00AEED;stroke-width:0.75;}
	.st24{fill:url(#SVGID_23_);stroke:#000000;stroke-width:0.75;}
	.st25{fill:url(#SVGID_24_);stroke:#000000;stroke-width:0.75;}
	.st26{fill:url(#SVGID_25_);}
	.st27{fill:url(#SVGID_26_);}
	.st28{fill:url(#SVGID_27_);stroke:#00AEED;stroke-width:0.25;}
	.st29{fill:url(#SVGID_28_);stroke:#00AEED;stroke-width:0.25;}
	.st30{fill:url(#SVGID_29_);}
	.st31{fill:url(#SVGID_30_);stroke:#000000;stroke-width:0.75;}
</style>
<g>
	<linearGradient id="SVGID_1_" gradientUnits="userSpaceOnUse" x1="13.3406" y1="46.2939" x2="33.1033" y2="46.2939">
		<stop  offset="0" style="stop-color:#00A451"/>
		<stop  offset="0.3455" style="stop-color:#008946"/>
		<stop  offset="1" style="stop-color:#00562D"/>
	</linearGradient>
	<path class="st0" d="M20.25,87.24l0.71-11.52l0.01-0.11l1.97-32.28l1.37-2.6l0.58-3.25l0.3-3.39l1.35-0.79l0.35,1.12l-0.2,3.26
		l0.49-3.73c0,0,6.48,4.78,5.88,4.28c-2.04-1.68-3.78-3.14-3.78-3.14l-2.32-1.94l-0.01-0.06c0.02-1.23,0.19-2.46,0.14-3.69
		c-0.02-1.28-0.42-2.21-0.95-3.33c-0.21-0.4-0.39-0.8-0.59-1.22l-0.01-4.75c0,0,0.18-5.59,0.02-5.84c-0.14-0.25,0.23-2.43,0.23-2.43
		l3.46-6.51l-3.58,5.9l-2.34-2.2l2.05,2.67l-0.26,2.7l0.04,3.96l-0.16,6.65l-0.66,1.52l-2.33,4.91l-8.66,1.52l8.93-0.94
		c0,0-4.41,7.92-4.04,7.45c0.36-0.46,4.1-6.83,4.1-6.83l2.24,1.84l-0.14,4.55l-0.48,2.15l-1.2,2l-1.8,31.61l-0.02,0.16l-0.7,12.29
		L20.25,87.24z"/>
	<linearGradient id="SVGID_2_" gradientUnits="userSpaceOnUse" x1="35.216" y1="45.8487" x2="63.4361" y2="45.8487">
		<stop  offset="0" style="stop-color:#00A451"/>
		<stop  offset="0.3455" style="stop-color:#008946"/>
		<stop  offset="1" style="stop-color:#00562D"/>
	</linearGradient>
	<path class="st1" d="M48.34,87.25l0.3-5.92l1.89-3.99l0.78-5l0.39-5.21l1.88-1.21l0.5,1.73l0.41,4.95l-0.23-6.23
		c0,0,10.01,7.91,9.13,7.2c-3.25-2.61-3.07-2.79-4.98-4.12l-4.24-3.75l-0.01-0.1c0.02-1.9,0.24-3.78,0.17-5.69
		c-0.04-1.98-0.6-3.4-1.35-5.14c-0.29-0.62-0.55-1.24-0.83-1.88l-0.06-7.31c0,0,0.21-8.61-0.02-8.99c-0.2-0.38,0.3-22.13,0.3-22.13
		l4.76-10l-4.94,9.05l-3.28-3.41l2.88,4.14l-0.34,22.54l0.08,6.11l-0.17,10.25l-0.9,2.34l-3.2,7.55l-12.04,2.27l12.42-1.37
		c0,0-6.07,12.17-5.56,11.44c0.5-0.7,5.65-10.49,5.65-10.49l3.14,2.85l-0.16,7.01l-0.66,3.32l-1.65,3.08l-0.27,6.13L48.34,87.25z"/>
	<linearGradient id="SVGID_3_" gradientUnits="userSpaceOnUse" x1="0.9709" y1="47.7528" x2="17.7017" y2="47.7528">
		<stop  offset="0" style="stop-color:#00A451"/>
		<stop  offset="0.3455" style="stop-color:#008946"/>
		<stop  offset="1" style="stop-color:#00562D"/>
	</linearGradient>
	<path class="st2" d="M0.99,35.55l5.89-0.62c0,0-4.41,7.92-4.04,7.45c0.36-0.46,4.09-6.83,4.09-6.83l2.24,1.84l-0.14,4.55
		l-0.48,2.15l-1.2,2.01L5.55,77.7l-0.02,0.16l-0.54,9.42l0.03,0l0.53-8.66l0.01-0.11l1.97-32.28l1.37-2.6l0.58-3.25l0.3-3.38
		l1.35-0.79l0.35,1.12l-0.2,3.26l0.49-3.73c0,0,6.48,4.78,5.87,4.28c-2.04-1.68-3.78-3.14-3.78-3.14l-2.32-1.94l-0.01-0.06
		c0.02-1.23,0.19-2.46,0.14-3.69c-0.02-1.28-0.42-2.21-0.95-3.33c-0.21-0.4-0.39-0.8-0.59-1.22l-0.01-4.75c0,0,0.18-5.59,0.02-5.84
		c-0.14-0.25,0.23-2.43,0.23-2.43l3.46-6.51l-3.58,5.9l-2.34-2.2l2.05,2.68l-0.26,2.7l0.04,3.96l-0.16,6.65l-0.66,1.52L6.6,34.34
		l-5.63,0.99L0.99,35.55z"/>
	<linearGradient id="SVGID_4_" gradientUnits="userSpaceOnUse" x1="14.9243" y1="46.9451" x2="43.1443" y2="46.9451">
		<stop  offset="0" style="stop-color:#00A451"/>
		<stop  offset="0.3455" style="stop-color:#008946"/>
		<stop  offset="1" style="stop-color:#00562D"/>
	</linearGradient>
	<path class="st3" d="M28.16,87.25l0.19-3.74l1.89-3.99l0.78-5l0.39-5.21l1.88-1.21l0.5,1.73l0.41,4.95l-0.23-6.23
		c0,0,10.01,7.91,9.13,7.2c-3.25-2.61-3.07-2.79-4.98-4.12l-4.24-3.75l-0.01-0.1c0.02-1.9,0.24-3.78,0.17-5.69
		c-0.04-1.98-0.6-3.4-1.35-5.14c-0.29-0.62-0.55-1.24-0.83-1.88l-0.06-7.31c0,0,0.21-8.61-0.02-9c-0.2-0.38,0.3-22.13,0.3-22.13
		l4.76-10l-4.94,9.05l-3.28-3.41l2.88,4.14l-0.34,22.54l0.08,6.11l-0.17,10.25l-0.9,2.34l-3.2,7.55l-12.04,2.27l12.42-1.37
		c0,0-6.07,12.17-5.56,11.44c0.5-0.7,5.65-10.49,5.65-10.49l3.14,2.85l-0.16,7.01l-0.66,3.32L28.1,83.3l-0.16,3.9L28.16,87.25z"/>
	<linearGradient id="SVGID_5_" gradientUnits="userSpaceOnUse" x1="35.4932" y1="45.9483" x2="55.2564" y2="45.9483">
		<stop  offset="0" style="stop-color:#00A451"/>
		<stop  offset="0.3455" style="stop-color:#008946"/>
		<stop  offset="1" style="stop-color:#00562D"/>
	</linearGradient>
	<path class="st4" d="M42.36,87.27l0.76-12.25l0.01-0.11l1.97-32.28l1.37-2.6l0.58-3.25l0.3-3.38l1.35-0.79l0.35,1.12l-0.2,3.26
		l0.49-3.73c0,0,6.48,4.78,5.88,4.28c-2.04-1.68-3.78-3.14-3.78-3.14l-2.32-1.94l-0.01-0.06c0.02-1.23,0.19-2.46,0.14-3.69
		c-0.02-1.28-0.42-2.21-0.95-3.33c-0.21-0.4-0.39-0.8-0.59-1.22l-0.01-4.75c0,0,0.18-5.59,0.02-5.84c-0.14-0.25,0.23-2.43,0.23-2.43
		l3.46-6.51l-3.58,5.9l-2.34-2.2L47.52,11l-0.26,2.7l0.04,3.96l-0.16,6.65l-0.66,1.52l-2.33,4.91l-8.67,1.52l8.94-0.94
		c0,0-4.41,7.92-4.04,7.45c0.36-0.46,4.1-6.83,4.1-6.83l2.24,1.84l-0.14,4.55l-0.48,2.15l-1.2,2.01L43.1,74.1l-0.02,0.16
		l-0.75,13.01H42.36z"/>
	<linearGradient id="SVGID_6_" gradientUnits="userSpaceOnUse" x1="47.9897" y1="48.2741" x2="76.2093" y2="48.2741">
		<stop  offset="0" style="stop-color:#00A451"/>
		<stop  offset="0.3455" style="stop-color:#008946"/>
		<stop  offset="1" style="stop-color:#00562D"/>
	</linearGradient>
	<path class="st5" d="M60.88,87.22l2.42-5.05l0.78-5l0.39-5.21l1.88-1.21l0.5,1.73l0.41,4.95l-0.23-6.23c0,0,10.01,7.91,9.12,7.2
		c-3.25-2.61-3.06-2.79-4.98-4.11l-4.24-3.75l-0.01-0.1c0.02-1.9,0.24-3.78,0.17-5.69c-0.04-1.98-0.6-3.4-1.35-5.14
		c-0.29-0.62-0.55-1.24-0.83-1.88l-0.05-7.31c0,0,0.21-8.61-0.02-9c-0.2-0.38,0.3-22.13,0.3-22.13l4.76-10l-4.94,9.05l-3.28-3.41
		l2.88,4.14l-0.34,22.54l0.08,6.11l-0.17,10.25l-0.9,2.34l-3.2,7.55l-12.04,2.27l12.42-1.37c0,0-6.07,12.17-5.56,11.44
		c0.5-0.7,5.65-10.49,5.65-10.49l3.14,2.85l-0.17,7.01l-0.67,3.37l-2.22,4.32L60.88,87.22z"/>
	<linearGradient id="SVGID_7_" gradientUnits="userSpaceOnUse" x1="11.1445" y1="47.5017" x2="34.7803" y2="47.5017">
		<stop  offset="0" style="stop-color:#00A451"/>
		<stop  offset="0.3455" style="stop-color:#008946"/>
		<stop  offset="1" style="stop-color:#00562D"/>
	</linearGradient>
	<path class="st6" d="M23.03,46.08c-0.02-0.57,0.07-5.91-0.19-8.46c-0.37-3.61,0.56,6.24,0.83,7.5c0.19,0.87,0.57,2.65,1.91,2.17
		c1.33-0.49,9.2-4.62,9.2-4.62s-8.94,4.76-9.25,5.3c-0.31,0.54-1.2,2.31-0.76,3.23c0.48,1.02,4.14,6.01,4.75,6.92
		c0.47,0.69-4.82-6.4-5.34-6.68c-0.52-0.29-1.29-0.2-1.84,0.05c-0.55,0.25-4.31,4.6-5.45,6.07c-1.14,1.47,4.7-5.92,4.77-6.53
		c0.06-0.62,0.27-1.79-0.71-2.54c-0.98-0.74-9.15-5.49-9.78-5.96c-0.63-0.48,9.15,5.07,9.57,5.24
		C21.24,47.98,23.1,48.07,23.03,46.08z"/>
	<linearGradient id="SVGID_8_" gradientUnits="userSpaceOnUse" x1="34.7276" y1="45.1019" x2="58.363" y2="45.1019">
		<stop  offset="0" style="stop-color:#00A451"/>
		<stop  offset="0.3455" style="stop-color:#008946"/>
		<stop  offset="1" style="stop-color:#00562D"/>
	</linearGradient>
	<path class="st7" d="M46.62,43.69c-0.02-0.57,0.07-5.91-0.19-8.46c-0.37-3.61,0.56,6.24,0.83,7.5c0.19,0.87,0.57,2.65,1.91,2.17
		c1.34-0.49,9.2-4.62,9.2-4.62s-8.94,4.76-9.25,5.3c-0.31,0.54-1.2,2.31-0.76,3.23c0.48,1.02,4.13,6.01,4.76,6.92
		c0.47,0.69-4.82-6.4-5.34-6.68c-0.52-0.29-1.29-0.2-1.84,0.05c-0.55,0.25-4.31,4.61-5.45,6.07c-1.14,1.47,4.7-5.92,4.77-6.53
		c0.07-0.62,0.27-1.79-0.71-2.54c-0.98-0.74-9.15-5.49-9.78-5.96c-0.63-0.48,9.15,5.07,9.57,5.24
		C44.83,45.58,46.68,45.67,46.62,43.69z"/>
	
		<radialGradient id="SVGID_9_" cx="136.959" cy="62.6211" r="5.2837" gradientTransform="matrix(0.7632 0 0 0.8317 -44.3834 -19.3664)" gradientUnits="userSpaceOnUse">
		<stop  offset="0" style="stop-color:#F5E72E"/>
		<stop  offset="0.1474" style="stop-color:#DFDF35"/>
		<stop  offset="0.462" style="stop-color:#A1CB42"/>
		<stop  offset="0.9156" style="stop-color:#00AF4D"/>
		<stop  offset="1" style="stop-color:#00AB4E"/>
	</radialGradient>
	<path class="st8" d="M55.74,87.25l0.61-9.92l0.01-0.11l1.97-32.28l1.37-2.6l0.58-3.25l0.3-3.39l1.35-0.79l0.35,1.12l-0.2,3.26
		l0.49-3.73c0,0,6.48,4.78,5.88,4.28c-2.04-1.68-3.78-3.14-3.78-3.14l-2.32-1.94l-0.01-0.06c0.02-1.23,0.19-2.46,0.14-3.69
		c-0.02-1.28-0.42-2.21-0.95-3.33c-0.21-0.4-0.39-0.8-0.59-1.22l-0.01-4.75c0,0,0.18-5.59,0.02-5.84c-0.14-0.25,0.23-2.43,0.23-2.43
		l3.46-6.51l-3.58,5.9l-2.34-2.2l2.05,2.67L60.51,16l0.04,3.96l-0.16,6.65l-0.66,1.52l-2.33,4.91l-8.66,1.52l8.93-0.94
		c0,0-4.41,7.92-4.04,7.45c0.36-0.46,4.1-6.83,4.1-6.83l2.24,1.84l-0.14,4.55l-0.48,2.15l-1.2,2l-1.8,31.61l-0.02,0.16l-0.61,10.69
		L55.74,87.25z"/>
	
		<radialGradient id="SVGID_10_" cx="78.8176" cy="102.8648" r="6.8527" gradientTransform="matrix(0.7632 0 0 0.8317 -44.3834 -19.3664)" gradientUnits="userSpaceOnUse">
		<stop  offset="0" style="stop-color:#FDE92B"/>
		<stop  offset="0.1427" style="stop-color:#E6E133"/>
		<stop  offset="0.4472" style="stop-color:#A9CD41"/>
		<stop  offset="0.8861" style="stop-color:#1AB14C"/>
		<stop  offset="1" style="stop-color:#00AB4E"/>
	</radialGradient>
	<path class="st9" d="M0.96,69.74l10.98-1.21c0,0-6.07,12.17-5.56,11.44c0.5-0.7,5.65-10.49,5.65-10.49l3.14,2.85L15,79.34
		l-0.66,3.32l-1.65,3.08l-0.07,1.56l0.26,0l0.07-1.36l1.89-3.99l0.78-5l0.39-5.21l1.88-1.21l0.5,1.73l0.41,4.95l-0.23-6.23
		c0,0,10.01,7.91,9.13,7.2c-3.25-2.61-3.07-2.79-4.98-4.12l-4.24-3.75l-0.01-0.1c0.02-1.9,0.25-3.78,0.17-5.69
		c-0.04-1.98-0.6-3.4-1.35-5.14c-0.29-0.62-0.55-1.24-0.83-1.88l-0.06-7.31c0,0,0.21-8.61-0.02-8.99c-0.2-0.38,0.3-22.13,0.3-22.13
		l4.76-10l-4.94,9.05l-3.28-3.41l2.88,4.14l-0.34,22.54l0.08,6.11l-0.17,10.25l-0.9,2.34l-3.2,7.55l-10.59,2L0.96,69.74z"/>
	<linearGradient id="SVGID_11_" gradientUnits="userSpaceOnUse" x1="26.713" y1="54.6128" x2="50.3489" y2="54.6128">
		<stop  offset="0" style="stop-color:#00A451"/>
		<stop  offset="0.3455" style="stop-color:#008946"/>
		<stop  offset="1" style="stop-color:#00562D"/>
	</linearGradient>
	<path class="st10" d="M38.6,53.2c-0.02-0.57,0.07-5.91-0.19-8.46c-0.37-3.61,0.56,6.24,0.83,7.5c0.19,0.87,0.57,2.65,1.91,2.17
		c1.33-0.49,9.2-4.62,9.2-4.62s-8.94,4.76-9.25,5.3c-0.31,0.54-1.2,2.31-0.76,3.23c0.48,1.02,4.14,6.01,4.76,6.92
		c0.47,0.69-4.82-6.4-5.34-6.68c-0.52-0.29-1.29-0.2-1.84,0.05c-0.55,0.25-4.31,4.6-5.45,6.07c-1.14,1.47,4.7-5.92,4.77-6.53
		c0.06-0.62,0.27-1.79-0.71-2.54c-0.98-0.74-9.15-5.49-9.78-5.96c-0.63-0.48,9.15,5.07,9.57,5.25C36.81,55.09,38.67,55.19,38.6,53.2
		z"/>
	<linearGradient id="SVGID_12_" gradientUnits="userSpaceOnUse" x1="55.386" y1="48.8993" x2="77.2943" y2="48.8993">
		<stop  offset="0" style="stop-color:#00A451"/>
		<stop  offset="0.3455" style="stop-color:#008946"/>
		<stop  offset="1" style="stop-color:#00562D"/>
	</linearGradient>
	<path class="st11" d="M77.29,45c-2.62,1.41-7.29,3.98-7.51,4.37c-0.31,0.54-1.2,2.31-0.76,3.23c0.48,1.02,4.13,6.01,4.75,6.92
		c0.47,0.69-4.82-6.39-5.34-6.68c-0.52-0.29-1.29-0.2-1.84,0.05c-0.56,0.25-4.31,4.6-5.45,6.07c-1.14,1.47,4.7-5.92,4.77-6.53
		c0.07-0.62,0.27-1.79-0.71-2.54c-0.98-0.74-9.15-5.49-9.78-5.97c-0.63-0.48,9.14,5.07,9.57,5.24c0.5,0.21,2.36,0.3,2.29-1.69
		c-0.02-0.57,0.07-5.91-0.19-8.46c-0.37-3.61,0.56,6.24,0.83,7.5c0.19,0.87,0.57,2.65,1.91,2.17c0.94-0.34,5.07-2.47,7.47-3.72"/>
	
		<radialGradient id="SVGID_13_" cx="108.2341" cy="66.2117" r="5.2837" gradientTransform="matrix(0.7632 0 0 0.8317 -44.3834 -19.3664)" gradientUnits="userSpaceOnUse">
		<stop  offset="0" style="stop-color:#F5E72E"/>
		<stop  offset="0.1474" style="stop-color:#DFDF35"/>
		<stop  offset="0.462" style="stop-color:#A1CB42"/>
		<stop  offset="0.9156" style="stop-color:#00AF4D"/>
		<stop  offset="1" style="stop-color:#00AB4E"/>
	</radialGradient>
	<path class="st12" d="M33.82,90.23l0.61-9.92l0.01-0.11l1.97-32.28l1.37-2.6l0.58-3.25l0.3-3.39l1.35-0.79l0.35,1.12l-0.2,3.26
		l0.49-3.73c0,0,6.48,4.78,5.88,4.28c-2.04-1.68-3.78-3.14-3.78-3.14l-2.32-1.94l-0.01-0.06c0.02-1.23,0.19-2.46,0.14-3.69
		c-0.02-1.28-0.42-2.21-0.95-3.33c-0.21-0.4-0.39-0.8-0.59-1.22l-0.01-4.75c0,0,0.18-5.59,0.02-5.84c-0.14-0.25,0.23-2.43,0.23-2.43
		l3.46-6.51l-3.58,5.9l-2.34-2.2l2.05,2.67l-0.26,2.7l0.04,3.96l-0.16,6.65l-0.66,1.52l-2.33,4.91l-8.66,1.52l8.93-0.94
		c0,0-4.41,7.92-4.04,7.45c0.36-0.46,4.1-6.83,4.1-6.83l2.24,1.84l-0.14,4.55l-0.48,2.15l-1.2,2l-1.8,31.61l-0.02,0.16l-0.61,10.69
		L33.82,90.23z"/>
	<path class="st13" d="M20.11,87.24l0.71-11.52l0.01-0.11l1.97-32.28l1.37-2.6l0.58-3.25l0.3-3.39l1.35-0.79l0.35,1.12l-0.2,3.26
		l0.49-3.73c0,0,6.48,4.78,5.87,4.28c-2.04-1.68-3.78-3.14-3.78-3.14l-2.32-1.94l-0.01-0.06c0.02-1.23,0.19-2.46,0.14-3.69
		c-0.02-1.28-0.42-2.21-0.95-3.33c-0.21-0.4-0.39-0.8-0.59-1.22l-0.01-4.75c0,0,0.18-5.59,0.02-5.84c-0.14-0.25,0.23-2.43,0.23-2.43
		l3.46-6.51l-3.58,5.9l-2.34-2.2l2.05,2.67l-0.26,2.7l0.04,3.96l-0.16,6.65l-0.66,1.52l-2.33,4.91l-8.67,1.52l8.93-0.94
		c0,0-4.41,7.92-4.04,7.45c0.36-0.46,4.09-6.83,4.09-6.83l2.24,1.84l-0.14,4.55l-0.48,2.15l-1.2,2l-1.8,31.61l-0.02,0.16l-0.7,12.29
		L20.11,87.24z"/>
	<path class="st13" d="M48.2,87.25l0.3-5.92l1.89-3.99l0.78-5l0.39-5.21l1.88-1.21l0.5,1.73l0.41,4.95l-0.23-6.23
		c0,0,10.01,7.91,9.13,7.2c-3.25-2.61-3.07-2.79-4.98-4.12l-4.24-3.75l-0.01-0.1c0.02-1.9,0.25-3.78,0.17-5.69
		c-0.04-1.98-0.6-3.4-1.35-5.14c-0.29-0.62-0.55-1.24-0.83-1.88l-0.06-7.31c0,0,0.21-8.61-0.01-8.99c-0.2-0.38,0.3-22.13,0.3-22.13
		l4.76-10l-4.94,9.05l-3.28-3.41l2.88,4.14l-0.34,22.54l0.08,6.11l-0.17,10.25l-0.9,2.34l-3.2,7.55l-12.04,2.27l12.42-1.37
		c0,0-6.07,12.17-5.56,11.44c0.5-0.7,5.65-10.49,5.65-10.49l3.14,2.85l-0.16,7.01l-0.66,3.32l-1.65,3.08l-0.27,6.13L48.2,87.25z"/>
	<path class="st13" d="M0.85,35.55l5.89-0.62c0,0-4.41,7.92-4.04,7.45c0.36-0.46,4.09-6.83,4.09-6.83l2.24,1.84l-0.14,4.55
		l-0.48,2.15l-1.2,2.01L5.41,77.7l-0.02,0.16l-0.54,9.42l0.03,0l0.53-8.66l0.01-0.11l1.97-32.28l1.37-2.6l0.58-3.25l0.3-3.38
		L11,36.2l0.35,1.12l-0.2,3.26l0.49-3.73c0,0,6.48,4.78,5.87,4.28c-2.04-1.68-3.78-3.14-3.78-3.14l-2.32-1.94l-0.01-0.06
		c0.02-1.23,0.19-2.46,0.14-3.69c-0.02-1.28-0.42-2.21-0.95-3.33c-0.21-0.4-0.39-0.8-0.59-1.22l-0.01-4.75c0,0,0.18-5.59,0.02-5.84
		c-0.14-0.25,0.23-2.43,0.23-2.43l3.46-6.51l-3.58,5.9l-2.34-2.2l2.05,2.68l-0.26,2.7l0.04,3.96l-0.16,6.65l-0.66,1.52l-2.33,4.91
		l-5.63,0.99L0.85,35.55z"/>
	<path class="st13" d="M28.02,87.25l0.19-3.74l1.89-3.99l0.78-5l0.39-5.21l1.88-1.21l0.5,1.73l0.41,4.95l-0.23-6.23
		c0,0,10.01,7.91,9.13,7.2c-3.25-2.61-3.07-2.79-4.98-4.12l-4.24-3.75l-0.01-0.1c0.02-1.9,0.24-3.78,0.17-5.69
		c-0.04-1.98-0.6-3.4-1.35-5.14c-0.29-0.62-0.55-1.24-0.83-1.88l-0.06-7.31c0,0,0.21-8.61-0.02-9c-0.2-0.38,0.3-22.13,0.3-22.13
		l4.76-10l-4.94,9.05l-3.28-3.41l2.88,4.14l-0.34,22.54l0.08,6.11l-0.17,10.25l-0.9,2.34l-3.2,7.55l-12.04,2.27l12.42-1.37
		c0,0-6.07,12.17-5.56,11.44c0.5-0.7,5.65-10.49,5.65-10.49l3.14,2.85l-0.16,7.01l-0.66,3.32l-1.65,3.08l-0.16,3.9L28.02,87.25z"/>
	<path class="st13" d="M42.21,87.27l0.76-12.25l0.01-0.11l1.97-32.28l1.37-2.6l0.58-3.25l0.3-3.38l1.35-0.79l0.35,1.12l-0.2,3.26
		l0.49-3.73c0,0,6.48,4.78,5.88,4.28c-2.04-1.68-3.78-3.14-3.78-3.14l-2.32-1.94l-0.01-0.06c0.02-1.23,0.19-2.46,0.14-3.69
		c-0.02-1.28-0.42-2.21-0.95-3.33c-0.21-0.4-0.39-0.8-0.59-1.22l-0.01-4.75c0,0,0.18-5.59,0.02-5.84c-0.14-0.25,0.23-2.43,0.23-2.43
		l3.46-6.51l-3.58,5.9l-2.34-2.2L47.38,11l-0.26,2.7l0.04,3.96L47,24.31l-0.66,1.52l-2.33,4.91l-8.67,1.52l8.94-0.94
		c0,0-4.41,7.92-4.04,7.45c0.36-0.46,4.1-6.83,4.1-6.83l2.24,1.84l-0.14,4.55l-0.48,2.15l-1.2,2.01l-1.8,31.61l-0.02,0.16
		L42.2,87.27H42.21z"/>
	<path class="st13" d="M60.74,87.22l2.42-5.05l0.78-5l0.39-5.21l1.88-1.21l0.5,1.73l0.41,4.95l-0.23-6.23c0,0,10.01,7.91,9.13,7.2
		c-3.25-2.61-3.07-2.79-4.98-4.11l-4.24-3.75l-0.01-0.1c0.02-1.9,0.24-3.78,0.17-5.69c-0.04-1.98-0.6-3.4-1.35-5.14
		c-0.29-0.62-0.55-1.24-0.83-1.88l-0.05-7.31c0,0,0.21-8.61-0.02-9C64.5,41.04,65,19.29,65,19.29l4.76-10l-4.94,9.05l-3.28-3.41
		l2.88,4.14l-0.34,22.54l0.08,6.11L64,57.96l-0.9,2.34l-3.2,7.55l-12.04,2.27l12.42-1.37c0,0-6.07,12.17-5.56,11.44
		c0.5-0.7,5.65-10.49,5.65-10.49l3.14,2.85l-0.16,7.01l-0.67,3.37l-2.21,4.32L60.74,87.22z"/>
	<path class="st13" d="M22.89,46.08c-0.02-0.57,0.07-5.91-0.19-8.46c-0.37-3.61,0.56,6.24,0.83,7.5c0.19,0.87,0.57,2.65,1.91,2.17
		c1.33-0.49,9.2-4.62,9.2-4.62s-8.94,4.76-9.25,5.3c-0.31,0.54-1.2,2.31-0.76,3.23c0.48,1.02,4.14,6.01,4.76,6.92
		c0.47,0.69-4.82-6.4-5.34-6.68c-0.52-0.29-1.29-0.2-1.84,0.05c-0.55,0.25-4.31,4.6-5.45,6.07c-1.14,1.47,4.7-5.92,4.77-6.53
		c0.06-0.62,0.26-1.79-0.71-2.54c-0.98-0.74-9.15-5.49-9.78-5.96c-0.63-0.48,9.15,5.07,9.57,5.24
		C21.1,47.98,22.96,48.07,22.89,46.08z"/>
	<path class="st13" d="M46.47,43.69c-0.02-0.57,0.07-5.91-0.19-8.46c-0.37-3.61,0.56,6.24,0.83,7.5c0.19,0.87,0.57,2.65,1.91,2.17
		c1.34-0.49,9.2-4.62,9.2-4.62s-8.94,4.76-9.25,5.3c-0.31,0.54-1.2,2.31-0.76,3.23c0.48,1.02,4.14,6.01,4.76,6.92
		c0.47,0.69-4.82-6.4-5.34-6.68c-0.52-0.29-1.29-0.2-1.84,0.05c-0.55,0.25-4.31,4.61-5.45,6.07c-1.14,1.47,4.7-5.92,4.77-6.53
		c0.07-0.62,0.27-1.79-0.71-2.54c-0.98-0.74-9.15-5.49-9.78-5.96c-0.63-0.48,9.15,5.07,9.57,5.24
		C44.68,45.58,46.54,45.67,46.47,43.69z"/>
	<path class="st13" d="M55.6,87.25l0.61-9.92l0.01-0.11l1.97-32.28l1.37-2.6l0.58-3.25l0.3-3.39l1.35-0.79l0.35,1.12l-0.2,3.26
		l0.49-3.73c0,0,6.48,4.78,5.88,4.28c-2.04-1.68-3.78-3.14-3.78-3.14l-2.32-1.94L62.2,34.7c0.02-1.23,0.19-2.46,0.14-3.69
		c-0.02-1.28-0.42-2.21-0.95-3.33c-0.21-0.4-0.39-0.8-0.59-1.22l-0.01-4.75c0,0,0.18-5.59,0.02-5.84c-0.14-0.25,0.23-2.43,0.23-2.43
		l3.46-6.51l-3.58,5.9l-2.34-2.2l2.05,2.67L60.37,16l0.04,3.96l-0.16,6.65l-0.66,1.52l-2.33,4.91l-8.66,1.52l8.93-0.94
		c0,0-4.41,7.92-4.04,7.45c0.36-0.46,4.1-6.83,4.1-6.83l2.24,1.84l-0.14,4.55l-0.48,2.15l-1.2,2l-1.8,31.61l-0.02,0.16l-0.61,10.69
		L55.6,87.25z"/>
	<path class="st13" d="M0.82,69.74l10.98-1.21c0,0-6.07,12.17-5.56,11.44c0.5-0.7,5.65-10.49,5.65-10.49l3.14,2.85l-0.17,7.01
		l-0.65,3.32l-1.65,3.08l-0.07,1.56l0.26,0l0.07-1.36l1.89-3.99l0.78-5l0.39-5.21l1.88-1.21l0.5,1.73l0.41,4.95l-0.23-6.23
		c0,0,10.01,7.91,9.13,7.2c-3.25-2.61-3.07-2.79-4.98-4.12l-4.24-3.75l-0.01-0.1c0.02-1.9,0.24-3.78,0.17-5.69
		c-0.04-1.98-0.6-3.4-1.35-5.14c-0.29-0.62-0.55-1.24-0.83-1.88l-0.05-7.31c0,0,0.21-8.61-0.02-8.99c-0.2-0.38,0.3-22.13,0.3-22.13
		l4.76-10l-4.94,9.05l-3.28-3.41l2.88,4.14l-0.34,22.54l0.08,6.11l-0.17,10.25l-0.9,2.34l-3.2,7.55l-10.59,2L0.82,69.74z"/>
	<path class="st13" d="M38.46,53.2c-0.02-0.57,0.07-5.91-0.19-8.46c-0.37-3.61,0.56,6.24,0.83,7.5c0.19,0.87,0.57,2.65,1.91,2.17
		c1.34-0.49,9.2-4.62,9.2-4.62s-8.94,4.76-9.25,5.3c-0.31,0.54-1.2,2.31-0.76,3.23c0.48,1.02,4.13,6.01,4.75,6.92
		c0.47,0.69-4.82-6.4-5.34-6.68c-0.52-0.29-1.29-0.2-1.84,0.05c-0.55,0.25-4.31,4.6-5.45,6.07c-1.14,1.47,4.7-5.92,4.77-6.53
		c0.06-0.62,0.26-1.79-0.71-2.54c-0.98-0.74-9.15-5.49-9.78-5.96c-0.63-0.48,9.15,5.07,9.57,5.24
		C36.67,55.09,38.53,55.19,38.46,53.2z"/>
	<path class="st13" d="M77.15,45c-2.62,1.41-7.29,3.98-7.51,4.37c-0.31,0.54-1.2,2.31-0.76,3.23c0.48,1.02,4.13,6.01,4.75,6.92
		c0.47,0.69-4.82-6.39-5.34-6.68c-0.52-0.29-1.29-0.2-1.84,0.05c-0.56,0.25-4.31,4.6-5.45,6.07c-1.14,1.47,4.7-5.92,4.77-6.53
		c0.07-0.62,0.27-1.79-0.71-2.54c-0.98-0.74-9.15-5.49-9.77-5.97c-0.63-0.48,9.14,5.07,9.57,5.24c0.5,0.21,2.36,0.3,2.29-1.69
		c-0.02-0.57,0.07-5.91-0.19-8.46c-0.37-3.61,0.56,6.24,0.83,7.5c0.19,0.87,0.57,2.65,1.91,2.17c0.94-0.34,5.07-2.47,7.47-3.72"/>
	<path class="st13" d="M33.68,90.23l0.61-9.92l0.01-0.11l1.97-32.28l1.37-2.6l0.58-3.25l0.3-3.39l1.35-0.79l0.35,1.12l-0.2,3.26
		l0.49-3.73c0,0,6.48,4.78,5.88,4.28c-2.04-1.68-3.78-3.14-3.78-3.14l-2.32-1.94l-0.01-0.06c0.02-1.23,0.19-2.46,0.14-3.69
		c-0.02-1.28-0.42-2.21-0.95-3.33c-0.2-0.4-0.39-0.8-0.59-1.22l-0.01-4.75c0,0,0.18-5.59,0.02-5.84c-0.14-0.25,0.23-2.43,0.23-2.43
		l3.46-6.51l-3.58,5.9l-2.34-2.2l2.05,2.67l-0.26,2.7l0.04,3.96l-0.16,6.65l-0.66,1.52l-2.33,4.91l-8.67,1.52l8.93-0.94
		c0,0-4.41,7.92-4.04,7.45c0.36-0.46,4.09-6.83,4.09-6.83l2.24,1.84l-0.14,4.55l-0.48,2.15l-1.2,2.01l-1.8,31.61l-0.02,0.16
		l-0.61,10.69L33.68,90.23z"/>
	<path class="st14" d="M20.11,87.24l0.71-11.52l0.01-0.11l1.97-32.28l1.37-2.6l0.58-3.25l0.3-3.39l1.35-0.79l0.35,1.12l-0.2,3.26
		l0.49-3.73c0,0,6.48,4.78,5.87,4.28c-2.04-1.68-3.78-3.14-3.78-3.14l-2.32-1.94l-0.01-0.06c0.02-1.23,0.19-2.46,0.14-3.69
		c-0.02-1.28-0.42-2.21-0.95-3.33c-0.21-0.4-0.39-0.8-0.59-1.22l-0.01-4.75c0,0,0.18-5.59,0.02-5.84c-0.14-0.25,0.23-2.43,0.23-2.43
		l3.46-6.51l-3.58,5.9l-2.34-2.2l2.05,2.67l-0.26,2.7l0.04,3.96l-0.16,6.65l-0.66,1.52l-2.33,4.91l-8.67,1.52l8.93-0.94
		c0,0-4.41,7.92-4.04,7.45c0.36-0.46,4.09-6.83,4.09-6.83l2.24,1.84l-0.14,4.55l-0.48,2.15l-1.2,2l-1.8,31.61l-0.02,0.16l-0.7,12.29
		L20.11,87.24z"/>
	<path class="st14" d="M48.2,87.25l0.3-5.92l1.89-3.99l0.78-5l0.39-5.21l1.88-1.21l0.5,1.73l0.41,4.95l-0.23-6.23
		c0,0,10.01,7.91,9.13,7.2c-3.25-2.61-3.07-2.79-4.98-4.12l-4.24-3.75l-0.01-0.1c0.02-1.9,0.25-3.78,0.17-5.69
		c-0.04-1.98-0.6-3.4-1.35-5.14c-0.29-0.62-0.55-1.24-0.83-1.88l-0.06-7.31c0,0,0.21-8.61-0.01-8.99c-0.2-0.38,0.3-22.13,0.3-22.13
		l4.76-10l-4.94,9.05l-3.28-3.41l2.88,4.14l-0.34,22.54l0.08,6.11l-0.17,10.25l-0.9,2.34l-3.2,7.55l-12.04,2.27l12.42-1.37
		c0,0-6.07,12.17-5.56,11.44c0.5-0.7,5.65-10.49,5.65-10.49l3.14,2.85l-0.16,7.01l-0.66,3.32l-1.65,3.08l-0.27,6.13L48.2,87.25z"/>
	<path class="st14" d="M0.85,35.55l5.89-0.62c0,0-4.41,7.92-4.04,7.45c0.36-0.46,4.09-6.83,4.09-6.83l2.24,1.84l-0.14,4.55
		l-0.48,2.15l-1.2,2.01L5.41,77.7l-0.02,0.16l-0.54,9.42l0.03,0l0.53-8.66l0.01-0.11l1.97-32.28l1.37-2.6l0.58-3.25l0.3-3.38
		L11,36.2l0.35,1.12l-0.2,3.26l0.49-3.73c0,0,6.48,4.78,5.87,4.28c-2.04-1.68-3.78-3.14-3.78-3.14l-2.32-1.94l-0.01-0.06
		c0.02-1.23,0.19-2.46,0.14-3.69c-0.02-1.28-0.42-2.21-0.95-3.33c-0.21-0.4-0.39-0.8-0.59-1.22l-0.01-4.75c0,0,0.18-5.59,0.02-5.84
		c-0.14-0.25,0.23-2.43,0.23-2.43l3.46-6.51l-3.58,5.9l-2.34-2.2l2.05,2.68l-0.26,2.7l0.04,3.96l-0.16,6.65l-0.66,1.52l-2.33,4.91
		l-5.63,0.99L0.85,35.55z"/>
	<path class="st14" d="M28.02,87.25l0.19-3.74l1.89-3.99l0.78-5l0.39-5.21l1.88-1.21l0.5,1.73l0.41,4.95l-0.23-6.23
		c0,0,10.01,7.91,9.13,7.2c-3.25-2.61-3.07-2.79-4.98-4.12l-4.24-3.75l-0.01-0.1c0.02-1.9,0.24-3.78,0.17-5.69
		c-0.04-1.98-0.6-3.4-1.35-5.14c-0.29-0.62-0.55-1.24-0.83-1.88l-0.06-7.31c0,0,0.21-8.61-0.02-9c-0.2-0.38,0.3-22.13,0.3-22.13
		l4.76-10l-4.94,9.05l-3.28-3.41l2.88,4.14l-0.34,22.54l0.08,6.11l-0.17,10.25l-0.9,2.34l-3.2,7.55l-12.04,2.27l12.42-1.37
		c0,0-6.07,12.17-5.56,11.44c0.5-0.7,5.65-10.49,5.65-10.49l3.14,2.85l-0.16,7.01l-0.66,3.32l-1.65,3.08l-0.16,3.9L28.02,87.25z"/>
	<path class="st14" d="M42.21,87.27l0.76-12.25l0.01-0.11l1.97-32.28l1.37-2.6l0.58-3.25l0.3-3.38l1.35-0.79l0.35,1.12l-0.2,3.26
		l0.49-3.73c0,0,6.48,4.78,5.88,4.28c-2.04-1.68-3.78-3.14-3.78-3.14l-2.32-1.94l-0.01-0.06c0.02-1.23,0.19-2.46,0.14-3.69
		c-0.02-1.28-0.42-2.21-0.95-3.33c-0.21-0.4-0.39-0.8-0.59-1.22l-0.01-4.75c0,0,0.18-5.59,0.02-5.84c-0.14-0.25,0.23-2.43,0.23-2.43
		l3.46-6.51l-3.58,5.9l-2.34-2.2L47.38,11l-0.26,2.7l0.04,3.96L47,24.31l-0.66,1.52l-2.33,4.91l-8.67,1.52l8.94-0.94
		c0,0-4.41,7.92-4.04,7.45c0.36-0.46,4.1-6.83,4.1-6.83l2.24,1.84l-0.14,4.55l-0.48,2.15l-1.2,2.01l-1.8,31.61l-0.02,0.16
		L42.2,87.27H42.21z"/>
	<path class="st14" d="M60.74,87.22l2.42-5.05l0.78-5l0.39-5.21l1.88-1.21l0.5,1.73l0.41,4.95l-0.23-6.23c0,0,10.01,7.91,9.13,7.2
		c-3.25-2.61-3.07-2.79-4.98-4.11l-4.24-3.75l-0.01-0.1c0.02-1.9,0.24-3.78,0.17-5.69c-0.04-1.98-0.6-3.4-1.35-5.14
		c-0.29-0.62-0.55-1.24-0.83-1.88l-0.05-7.31c0,0,0.21-8.61-0.02-9C64.5,41.04,65,19.29,65,19.29l4.76-10l-4.94,9.05l-3.28-3.41
		l2.88,4.14l-0.34,22.54l0.08,6.11L64,57.96l-0.9,2.34l-3.2,7.55l-12.04,2.27l12.42-1.37c0,0-6.07,12.17-5.56,11.44
		c0.5-0.7,5.65-10.49,5.65-10.49l3.14,2.85l-0.16,7.01l-0.67,3.37l-2.21,4.32L60.74,87.22z"/>
	<linearGradient id="SVGID_14_" gradientUnits="userSpaceOnUse" x1="11.0037" y1="47.5017" x2="34.6396" y2="47.5017">
		<stop  offset="0" style="stop-color:#BCBEC0"/>
		<stop  offset="0.2669" style="stop-color:#A4A6A8"/>
		<stop  offset="0.8454" style="stop-color:#6A6B6E"/>
		<stop  offset="1" style="stop-color:#58595B"/>
	</linearGradient>
	<path class="st15" d="M22.89,46.08c-0.02-0.57,0.07-5.91-0.19-8.46c-0.37-3.61,0.56,6.24,0.83,7.5c0.19,0.87,0.57,2.65,1.91,2.17
		c1.33-0.49,9.2-4.62,9.2-4.62s-8.94,4.76-9.25,5.3c-0.31,0.54-1.2,2.31-0.76,3.23c0.48,1.02,4.14,6.01,4.76,6.92
		c0.47,0.69-4.82-6.4-5.34-6.68c-0.52-0.29-1.29-0.2-1.84,0.05c-0.55,0.25-4.31,4.6-5.45,6.07c-1.14,1.47,4.7-5.92,4.77-6.53
		c0.06-0.62,0.26-1.79-0.71-2.54c-0.98-0.74-9.15-5.49-9.78-5.96c-0.63-0.48,9.15,5.07,9.57,5.24
		C21.1,47.98,22.96,48.07,22.89,46.08z"/>
	<linearGradient id="SVGID_15_" gradientUnits="userSpaceOnUse" x1="34.5869" y1="45.1019" x2="58.2229" y2="45.1019">
		<stop  offset="0" style="stop-color:#BCBEC0"/>
		<stop  offset="0.2669" style="stop-color:#A4A6A8"/>
		<stop  offset="0.8454" style="stop-color:#6A6B6E"/>
		<stop  offset="1" style="stop-color:#58595B"/>
	</linearGradient>
	<path class="st16" d="M46.47,43.69c-0.02-0.57,0.07-5.91-0.19-8.46c-0.37-3.61,0.56,6.24,0.83,7.5c0.19,0.87,0.57,2.65,1.91,2.17
		c1.34-0.49,9.2-4.62,9.2-4.62s-8.94,4.76-9.25,5.3c-0.31,0.54-1.2,2.31-0.76,3.23c0.48,1.02,4.14,6.01,4.76,6.92
		c0.47,0.69-4.82-6.4-5.34-6.68c-0.52-0.29-1.29-0.2-1.84,0.05c-0.55,0.25-4.31,4.61-5.45,6.07c-1.14,1.47,4.7-5.92,4.77-6.53
		c0.07-0.62,0.27-1.79-0.71-2.54c-0.98-0.74-9.15-5.49-9.78-5.96c-0.63-0.48,9.15,5.07,9.57,5.24
		C44.68,45.58,46.54,45.67,46.47,43.69z"/>
	<path class="st14" d="M55.6,87.25l0.61-9.92l0.01-0.11l1.97-32.28l1.37-2.6l0.58-3.25l0.3-3.39l1.35-0.79l0.35,1.12l-0.2,3.26
		l0.49-3.73c0,0,6.48,4.78,5.88,4.28c-2.04-1.68-3.78-3.14-3.78-3.14l-2.32-1.94L62.2,34.7c0.02-1.23,0.19-2.46,0.14-3.69
		c-0.02-1.28-0.42-2.21-0.95-3.33c-0.21-0.4-0.39-0.8-0.59-1.22l-0.01-4.75c0,0,0.18-5.59,0.02-5.84c-0.14-0.25,0.23-2.43,0.23-2.43
		l3.46-6.51l-3.58,5.9l-2.34-2.2l2.05,2.67L60.37,16l0.04,3.96l-0.16,6.65l-0.66,1.52l-2.33,4.91l-8.66,1.52l8.93-0.94
		c0,0-4.41,7.92-4.04,7.45c0.36-0.46,4.1-6.83,4.1-6.83l2.24,1.84l-0.14,4.55l-0.48,2.15l-1.2,2l-1.8,31.61l-0.02,0.16l-0.61,10.69
		L55.6,87.25z"/>
	<path class="st14" d="M0.82,69.74l10.98-1.21c0,0-6.07,12.17-5.56,11.44c0.5-0.7,5.65-10.49,5.65-10.49l3.14,2.85l-0.17,7.01
		l-0.65,3.32l-1.65,3.08l-0.07,1.56l0.26,0l0.07-1.36l1.89-3.99l0.78-5l0.39-5.21l1.88-1.21l0.5,1.73l0.41,4.95l-0.23-6.23
		c0,0,10.01,7.91,9.13,7.2c-3.25-2.61-3.07-2.79-4.98-4.12l-4.24-3.75l-0.01-0.1c0.02-1.9,0.24-3.78,0.17-5.69
		c-0.04-1.98-0.6-3.4-1.35-5.14c-0.29-0.62-0.55-1.24-0.83-1.88l-0.05-7.31c0,0,0.21-8.61-0.02-8.99c-0.2-0.38,0.3-22.13,0.3-22.13
		l4.76-10l-4.94,9.05l-3.28-3.41l2.88,4.14l-0.34,22.54l0.08,6.11l-0.17,10.25l-0.9,2.34l-3.2,7.55l-10.59,2L0.82,69.74z"/>
	<path class="st14" d="M38.46,53.2c-0.02-0.57,0.07-5.91-0.19-8.46c-0.37-3.61,0.56,6.24,0.83,7.5c0.19,0.87,0.57,2.65,1.91,2.17
		c1.34-0.49,9.2-4.62,9.2-4.62s-8.94,4.76-9.25,5.3c-0.31,0.54-1.2,2.31-0.76,3.23c0.48,1.02,4.13,6.01,4.75,6.92
		c0.47,0.69-4.82-6.4-5.34-6.68c-0.52-0.29-1.29-0.2-1.84,0.05c-0.55,0.25-4.31,4.6-5.45,6.07c-1.14,1.47,4.7-5.92,4.77-6.53
		c0.06-0.62,0.26-1.79-0.71-2.54c-0.98-0.74-9.15-5.49-9.78-5.96c-0.63-0.48,9.15,5.07,9.57,5.24
		C36.67,55.09,38.53,55.19,38.46,53.2z"/>
	<linearGradient id="SVGID_16_" gradientUnits="userSpaceOnUse" x1="55.2457" y1="48.8993" x2="77.1541" y2="48.8993">
		<stop  offset="0" style="stop-color:#BCBEC0"/>
		<stop  offset="0.2669" style="stop-color:#A4A6A8"/>
		<stop  offset="0.8454" style="stop-color:#6A6B6E"/>
		<stop  offset="1" style="stop-color:#58595B"/>
	</linearGradient>
	<path class="st17" d="M77.15,45c-2.62,1.41-7.29,3.98-7.51,4.37c-0.31,0.54-1.2,2.31-0.76,3.23c0.48,1.02,4.13,6.01,4.75,6.92
		c0.47,0.69-4.82-6.39-5.34-6.68c-0.52-0.29-1.29-0.2-1.84,0.05c-0.56,0.25-4.31,4.6-5.45,6.07c-1.14,1.47,4.7-5.92,4.77-6.53
		c0.07-0.62,0.27-1.79-0.71-2.54c-0.98-0.74-9.15-5.49-9.77-5.97c-0.63-0.48,9.14,5.07,9.57,5.24c0.5,0.21,2.36,0.3,2.29-1.69
		c-0.02-0.57,0.07-5.91-0.19-8.46c-0.37-3.61,0.56,6.24,0.83,7.5c0.19,0.87,0.57,2.65,1.91,2.17c0.94-0.34,5.07-2.47,7.47-3.72"/>
	<path class="st14" d="M33.68,90.23l0.61-9.92l0.01-0.11l1.97-32.28l1.37-2.6l0.58-3.25l0.3-3.39l1.35-0.79l0.35,1.12l-0.2,3.26
		l0.49-3.73c0,0,6.48,4.78,5.88,4.28c-2.04-1.68-3.78-3.14-3.78-3.14l-2.32-1.94l-0.01-0.06c0.02-1.23,0.19-2.46,0.14-3.69
		c-0.02-1.28-0.42-2.21-0.95-3.33c-0.2-0.4-0.39-0.8-0.59-1.22l-0.01-4.75c0,0,0.18-5.59,0.02-5.84c-0.14-0.25,0.23-2.43,0.23-2.43
		l3.46-6.51l-3.58,5.9l-2.34-2.2l2.05,2.67l-0.26,2.7l0.04,3.96l-0.16,6.65l-0.66,1.52l-2.33,4.91l-8.67,1.52l8.93-0.94
		c0,0-4.41,7.92-4.04,7.45c0.36-0.46,4.09-6.83,4.09-6.83l2.24,1.84l-0.14,4.55l-0.48,2.15l-1.2,2.01l-1.8,31.61l-0.02,0.16
		l-0.61,10.69L33.68,90.23z"/>
	<linearGradient id="SVGID_17_" gradientUnits="userSpaceOnUse" x1="80.7816" y1="45.5691" x2="100.5443" y2="45.5691">
		<stop  offset="0" style="stop-color:#00A451"/>
		<stop  offset="0.3455" style="stop-color:#008946"/>
		<stop  offset="1" style="stop-color:#00562D"/>
	</linearGradient>
	<path class="st18" d="M87.69,86.52L88.4,75l0.01-0.11l1.97-32.28l1.37-2.6l0.58-3.25l0.3-3.39l1.35-0.79l0.35,1.12l-0.2,3.26
		l0.49-3.73c0,0,6.48,4.78,5.88,4.28c-2.04-1.68-3.78-3.14-3.78-3.14l-2.32-1.94l-0.01-0.06c0.02-1.23,0.19-2.46,0.14-3.69
		c-0.02-1.28-0.42-2.21-0.95-3.33c-0.21-0.4-0.39-0.8-0.59-1.22l-0.01-4.75c0,0,0.18-5.59,0.02-5.84c-0.14-0.25,0.23-2.43,0.23-2.43
		l3.46-6.51l-3.58,5.9l-2.34-2.2l2.05,2.67l-0.26,2.7l0.04,3.96l-0.16,6.65l-0.66,1.52l-2.33,4.91l-8.66,1.52l8.93-0.94
		c0,0-4.41,7.92-4.04,7.45c0.36-0.46,4.1-6.83,4.1-6.83l2.24,1.84l-0.14,4.55l-0.48,2.15l-1.2,2l-1.8,31.61l-0.02,0.16l-0.7,12.29
		L87.69,86.52z"/>
	<linearGradient id="SVGID_18_" gradientUnits="userSpaceOnUse" x1="102.6571" y1="45.1239" x2="130.8771" y2="45.1239">
		<stop  offset="0" style="stop-color:#00A451"/>
		<stop  offset="0.3455" style="stop-color:#008946"/>
		<stop  offset="1" style="stop-color:#00562D"/>
	</linearGradient>
	<path class="st19" d="M115.78,86.52l0.3-5.92l1.89-3.99l0.78-5l0.39-5.21l1.88-1.21l0.5,1.73l0.41,4.95l-0.23-6.23
		c0,0,10.01,7.91,9.13,7.2c-3.25-2.61-3.07-2.79-4.98-4.12l-4.24-3.75l-0.01-0.1c0.02-1.9,0.24-3.78,0.17-5.69
		c-0.04-1.98-0.6-3.4-1.35-5.14c-0.29-0.62-0.55-1.24-0.83-1.88l-0.06-7.31c0,0,0.21-8.61-0.02-8.99c-0.2-0.38,0.3-22.13,0.3-22.13
		l4.76-10l-4.94,9.05l-3.28-3.41l2.88,4.14l-0.34,22.54l0.08,6.11L118.8,52.4l-0.9,2.34l-3.2,7.55l-12.04,2.27l12.42-1.37
		c0,0-6.07,12.17-5.56,11.44c0.5-0.7,5.65-10.49,5.65-10.49l3.14,2.85L118.14,74l-0.66,3.32l-1.65,3.08l-0.27,6.13L115.78,86.52z"/>
	<linearGradient id="SVGID_19_" gradientUnits="userSpaceOnUse" x1="68.412" y1="47.028" x2="85.1428" y2="47.028">
		<stop  offset="0" style="stop-color:#00A451"/>
		<stop  offset="0.3455" style="stop-color:#008946"/>
		<stop  offset="1" style="stop-color:#00562D"/>
	</linearGradient>
	<path class="st20" d="M68.43,34.82l5.89-0.62c0,0-4.41,7.92-4.04,7.45c0.36-0.46,4.09-6.83,4.09-6.83l2.24,1.84l-0.14,4.55
		l-0.48,2.15l-1.2,2.01l-1.8,31.61l-0.02,0.16l-0.54,9.42l0.03,0L73,77.9l0.01-0.11l1.97-32.28l1.37-2.6l0.58-3.25l0.3-3.38
		l1.35-0.79l0.35,1.12l-0.2,3.26l0.49-3.73c0,0,6.48,4.78,5.87,4.28c-2.04-1.68-3.78-3.14-3.78-3.14L79,35.33l-0.01-0.06
		c0.02-1.23,0.19-2.46,0.14-3.69c-0.02-1.28-0.42-2.21-0.95-3.33c-0.21-0.4-0.39-0.8-0.59-1.22l-0.01-4.75c0,0,0.18-5.59,0.02-5.84
		c-0.14-0.25,0.23-2.43,0.23-2.43l3.46-6.51l-3.58,5.9l-2.34-2.2l2.05,2.68l-0.26,2.7l0.04,3.96l-0.16,6.65l-0.66,1.52l-2.33,4.91
		l-5.63,0.99L68.43,34.82z"/>
	<linearGradient id="SVGID_20_" gradientUnits="userSpaceOnUse" x1="82.3653" y1="46.2203" x2="110.5854" y2="46.2203">
		<stop  offset="0" style="stop-color:#00A451"/>
		<stop  offset="0.3455" style="stop-color:#008946"/>
		<stop  offset="1" style="stop-color:#00562D"/>
	</linearGradient>
	<path class="st21" d="M95.6,86.53l0.19-3.74l1.89-3.99l0.78-5l0.39-5.21l1.88-1.21l0.5,1.73l0.41,4.95l-0.23-6.23
		c0,0,10.01,7.91,9.13,7.2c-3.25-2.61-3.07-2.79-4.98-4.12l-4.24-3.75l-0.01-0.1c0.02-1.9,0.24-3.78,0.17-5.69
		c-0.04-1.98-0.6-3.4-1.35-5.14c-0.29-0.62-0.55-1.24-0.83-1.88l-0.06-7.31c0,0,0.21-8.61-0.02-9c-0.2-0.38,0.3-22.13,0.3-22.13
		l4.76-10l-4.94,9.05l-3.28-3.41l2.88,4.14L98.6,38.23l0.08,6.11l-0.17,10.25l-0.9,2.34l-3.2,7.55l-12.04,2.27l12.42-1.37
		c0,0-6.07,12.17-5.56,11.44c0.5-0.7,5.65-10.49,5.65-10.49l3.14,2.85l-0.16,7.01l-0.66,3.32l-1.65,3.08l-0.16,3.9L95.6,86.53z"/>
	<linearGradient id="SVGID_21_" gradientUnits="userSpaceOnUse" x1="102.9342" y1="45.2235" x2="122.6974" y2="45.2235">
		<stop  offset="0" style="stop-color:#00A451"/>
		<stop  offset="0.3455" style="stop-color:#008946"/>
		<stop  offset="1" style="stop-color:#00562D"/>
	</linearGradient>
	<path class="st22" d="M109.8,86.54l0.76-12.25l0.01-0.11l1.97-32.28l1.37-2.6l0.58-3.25l0.3-3.38l1.35-0.79l0.35,1.12l-0.2,3.26
		l0.49-3.73c0,0,6.48,4.78,5.88,4.28c-2.04-1.68-3.78-3.14-3.78-3.14l-2.32-1.94l-0.01-0.06c0.02-1.23,0.19-2.46,0.14-3.69
		c-0.02-1.28-0.42-2.21-0.95-3.33c-0.21-0.4-0.39-0.8-0.59-1.22l-0.01-4.75c0,0,0.18-5.59,0.02-5.84c-0.14-0.25,0.23-2.43,0.23-2.43
		l3.46-6.51l-3.58,5.9l-2.34-2.2l2.06,2.68l-0.26,2.7l0.04,3.96l-0.16,6.65l-0.66,1.52l-2.33,4.91l-8.67,1.52l8.94-0.94
		c0,0-4.41,7.92-4.04,7.45c0.36-0.46,4.1-6.83,4.1-6.83l2.24,1.84l-0.14,4.55l-0.48,2.15l-1.2,2.01l-1.8,31.61l-0.02,0.16
		l-0.75,13.01H109.8z"/>
	<linearGradient id="SVGID_22_" gradientUnits="userSpaceOnUse" x1="115.4308" y1="47.5493" x2="143.6503" y2="47.5493">
		<stop  offset="0" style="stop-color:#00A451"/>
		<stop  offset="0.3455" style="stop-color:#008946"/>
		<stop  offset="1" style="stop-color:#00562D"/>
	</linearGradient>
	<path class="st23" d="M128.32,86.5l2.42-5.05l0.78-5l0.39-5.21l1.88-1.21l0.5,1.73l0.41,4.95l-0.23-6.23c0,0,10.01,7.91,9.12,7.2
		c-3.25-2.61-3.06-2.79-4.98-4.11l-4.24-3.75l-0.01-0.1c0.02-1.9,0.24-3.78,0.17-5.69c-0.04-1.98-0.6-3.4-1.35-5.14
		c-0.29-0.62-0.55-1.24-0.83-1.88l-0.05-7.31c0,0,0.21-8.61-0.02-9c-0.2-0.38,0.3-22.13,0.3-22.13l4.76-10l-4.94,9.05l-3.28-3.41
		l2.88,4.14l-0.34,22.54l0.08,6.11l-0.17,10.25l-0.9,2.34l-3.2,7.55l-12.04,2.27l12.42-1.37c0,0-6.07,12.17-5.56,11.44
		c0.5-0.7,5.65-10.49,5.65-10.49l3.14,2.85l-0.17,7.01l-0.67,3.37l-2.22,4.32L128.32,86.5z"/>
	<linearGradient id="SVGID_23_" gradientUnits="userSpaceOnUse" x1="78.5855" y1="46.7769" x2="102.2214" y2="46.7769">
		<stop  offset="0" style="stop-color:#BCBEC0"/>
		<stop  offset="0.2669" style="stop-color:#A4A6A8"/>
		<stop  offset="0.8454" style="stop-color:#6A6B6E"/>
		<stop  offset="1" style="stop-color:#58595B"/>
	</linearGradient>
	<path class="st24" d="M90.47,45.36c-0.02-0.57,0.07-5.91-0.19-8.46c-0.37-3.61,0.56,6.24,0.83,7.5c0.19,0.87,0.57,2.65,1.91,2.17
		c1.33-0.49,9.2-4.62,9.2-4.62s-8.94,4.76-9.25,5.3c-0.31,0.54-1.2,2.31-0.76,3.23c0.48,1.02,4.14,6.01,4.75,6.92
		c0.47,0.69-4.82-6.4-5.34-6.68c-0.52-0.29-1.29-0.2-1.84,0.05c-0.55,0.25-4.31,4.6-5.45,6.07c-1.14,1.47,4.7-5.92,4.77-6.53
		c0.06-0.62,0.27-1.79-0.71-2.54c-0.98-0.74-9.15-5.49-9.78-5.96c-0.63-0.48,9.15,5.07,9.57,5.24
		C88.68,47.26,90.54,47.35,90.47,45.36z"/>
	<linearGradient id="SVGID_24_" gradientUnits="userSpaceOnUse" x1="102.1687" y1="44.3771" x2="125.8041" y2="44.3771">
		<stop  offset="0" style="stop-color:#BCBEC0"/>
		<stop  offset="0.2669" style="stop-color:#A4A6A8"/>
		<stop  offset="0.8454" style="stop-color:#6A6B6E"/>
		<stop  offset="1" style="stop-color:#58595B"/>
	</linearGradient>
	<path class="st25" d="M114.06,42.96c-0.02-0.57,0.07-5.91-0.19-8.46c-0.37-3.61,0.56,6.24,0.83,7.5c0.19,0.87,0.57,2.65,1.91,2.17
		c1.34-0.49,9.2-4.62,9.2-4.62s-8.94,4.76-9.25,5.3c-0.31,0.54-1.2,2.31-0.76,3.23c0.48,1.02,4.13,6.01,4.76,6.92
		c0.47,0.69-4.82-6.4-5.34-6.68c-0.52-0.29-1.29-0.2-1.84,0.05c-0.55,0.25-4.31,4.61-5.45,6.07c-1.14,1.47,4.7-5.92,4.77-6.53
		c0.07-0.62,0.27-1.79-0.71-2.54c-0.98-0.74-9.15-5.49-9.78-5.96c-0.63-0.48,9.15,5.07,9.57,5.24
		C112.27,44.86,114.12,44.95,114.06,42.96z"/>
	
		<radialGradient id="SVGID_25_" cx="225.3286" cy="61.7497" r="5.2837" gradientTransform="matrix(0.7632 0 0 0.8317 -44.3834 -19.3664)" gradientUnits="userSpaceOnUse">
		<stop  offset="0" style="stop-color:#F5E72E"/>
		<stop  offset="0.1474" style="stop-color:#DFDF35"/>
		<stop  offset="0.462" style="stop-color:#A1CB42"/>
		<stop  offset="0.9156" style="stop-color:#00AF4D"/>
		<stop  offset="1" style="stop-color:#00AB4E"/>
	</radialGradient>
	<path class="st26" d="M123.18,86.52l0.61-9.92l0.01-0.11l1.97-32.28l1.37-2.6l0.58-3.25l0.3-3.39l1.35-0.79l0.35,1.12l-0.2,3.26
		l0.49-3.73c0,0,6.48,4.78,5.88,4.28c-2.04-1.68-3.78-3.14-3.78-3.14l-2.32-1.94l-0.01-0.06c0.02-1.23,0.19-2.46,0.14-3.69
		c-0.02-1.28-0.42-2.21-0.95-3.33c-0.21-0.4-0.39-0.8-0.59-1.22l-0.01-4.75c0,0,0.18-5.59,0.02-5.84c-0.14-0.25,0.23-2.43,0.23-2.43
		l3.46-6.51l-3.58,5.9l-2.34-2.2l2.05,2.67l-0.26,2.7l0.04,3.96l-0.16,6.65l-0.66,1.52l-2.33,4.91l-8.66,1.52l8.93-0.94
		c0,0-4.41,7.92-4.04,7.45c0.36-0.46,4.1-6.83,4.1-6.83l2.24,1.84l-0.14,4.55l-0.48,2.15l-1.2,2l-1.8,31.61l-0.02,0.16l-0.61,10.69
		L123.18,86.52z"/>
	
		<radialGradient id="SVGID_26_" cx="167.1872" cy="101.9934" r="6.8527" gradientTransform="matrix(0.7632 0 0 0.8317 -44.3834 -19.3664)" gradientUnits="userSpaceOnUse">
		<stop  offset="0" style="stop-color:#FDE92B"/>
		<stop  offset="0.1427" style="stop-color:#E6E133"/>
		<stop  offset="0.4472" style="stop-color:#A9CD41"/>
		<stop  offset="0.8861" style="stop-color:#1AB14C"/>
		<stop  offset="1" style="stop-color:#00AB4E"/>
	</radialGradient>
	<path class="st27" d="M68.41,69.01l10.98-1.21c0,0-6.07,12.17-5.56,11.44c0.5-0.7,5.65-10.49,5.65-10.49l3.14,2.85l-0.16,7.01
		l-0.66,3.32l-1.65,3.08l-0.07,1.56l0.26,0l0.07-1.36l1.89-3.99l0.78-5l0.39-5.21l1.88-1.21l0.5,1.73l0.41,4.95L86,70.25
		c0,0,10.01,7.91,9.13,7.2c-3.25-2.61-3.07-2.79-4.98-4.12l-4.24-3.75l-0.01-0.1c0.02-1.9,0.25-3.78,0.17-5.69
		c-0.04-1.98-0.6-3.4-1.35-5.14c-0.29-0.62-0.55-1.24-0.83-1.88l-0.06-7.31c0,0,0.21-8.61-0.02-8.99c-0.2-0.38,0.3-22.13,0.3-22.13
		l4.76-10l-4.94,9.05l-3.28-3.41l2.88,4.14L83.2,40.66l0.08,6.11l-0.17,10.25l-0.9,2.34l-3.2,7.55l-10.59,2L68.41,69.01z"/>
	<linearGradient id="SVGID_27_" gradientUnits="userSpaceOnUse" x1="94.154" y1="53.8881" x2="117.79" y2="53.8881">
		<stop  offset="0" style="stop-color:#00A451"/>
		<stop  offset="0.3455" style="stop-color:#008946"/>
		<stop  offset="1" style="stop-color:#00562D"/>
	</linearGradient>
	<path class="st28" d="M106.04,52.47c-0.02-0.57,0.07-5.91-0.19-8.46c-0.37-3.61,0.56,6.24,0.83,7.5c0.19,0.87,0.57,2.65,1.91,2.17
		c1.33-0.49,9.2-4.62,9.2-4.62s-8.94,4.76-9.25,5.3c-0.31,0.54-1.2,2.31-0.76,3.23c0.48,1.02,4.14,6.01,4.76,6.92
		c0.47,0.69-4.82-6.4-5.34-6.68c-0.52-0.29-1.29-0.2-1.84,0.05c-0.55,0.25-4.31,4.6-5.45,6.07c-1.14,1.47,4.7-5.92,4.77-6.53
		c0.06-0.62,0.27-1.79-0.71-2.54c-0.98-0.74-9.15-5.49-9.78-5.96c-0.63-0.48,9.15,5.07,9.57,5.25
		C104.25,54.37,106.11,54.46,106.04,52.47z"/>
	<linearGradient id="SVGID_28_" gradientUnits="userSpaceOnUse" x1="122.827" y1="48.1745" x2="144.7354" y2="48.1745">
		<stop  offset="0" style="stop-color:#00A451"/>
		<stop  offset="0.3455" style="stop-color:#008946"/>
		<stop  offset="1" style="stop-color:#00562D"/>
	</linearGradient>
	<path class="st29" d="M144.73,44.27c-2.62,1.41-7.29,3.98-7.51,4.37c-0.31,0.54-1.2,2.31-0.76,3.23c0.48,1.02,4.13,6.01,4.75,6.92
		c0.47,0.69-4.82-6.39-5.34-6.68c-0.52-0.29-1.29-0.2-1.84,0.05c-0.56,0.25-4.31,4.6-5.45,6.07c-1.14,1.47,4.7-5.92,4.77-6.53
		c0.07-0.62,0.27-1.79-0.71-2.54c-0.98-0.74-9.15-5.49-9.78-5.97c-0.63-0.48,9.14,5.07,9.57,5.24c0.5,0.21,2.36,0.3,2.29-1.69
		c-0.02-0.57,0.07-5.91-0.19-8.46c-0.37-3.61,0.56,6.24,0.83,7.5c0.19,0.87,0.57,2.65,1.91,2.17c0.94-0.34,5.07-2.47,7.47-3.72"/>
	
		<radialGradient id="SVGID_29_" cx="196.6037" cy="65.3403" r="5.2837" gradientTransform="matrix(0.7632 0 0 0.8317 -44.3834 -19.3664)" gradientUnits="userSpaceOnUse">
		<stop  offset="0" style="stop-color:#F5E72E"/>
		<stop  offset="0.1474" style="stop-color:#DFDF35"/>
		<stop  offset="0.462" style="stop-color:#A1CB42"/>
		<stop  offset="0.9156" style="stop-color:#00AF4D"/>
		<stop  offset="1" style="stop-color:#00AB4E"/>
	</radialGradient>
	<path class="st30" d="M101.26,89.51l0.61-9.92l0.01-0.11l1.97-32.28l1.37-2.6l0.58-3.25l0.3-3.39l1.35-0.79l0.35,1.12l-0.2,3.26
		l0.49-3.73c0,0,6.48,4.78,5.88,4.28c-2.04-1.68-3.78-3.14-3.78-3.14l-2.32-1.94l-0.01-0.06c0.02-1.23,0.19-2.46,0.14-3.69
		c-0.02-1.28-0.42-2.21-0.95-3.33c-0.21-0.4-0.39-0.8-0.59-1.22l-0.01-4.75c0,0,0.18-5.59,0.02-5.84c-0.14-0.25,0.23-2.43,0.23-2.43
		l3.46-6.51l-3.58,5.9l-2.34-2.2l2.05,2.67l-0.26,2.7l0.04,3.96l-0.16,6.65l-0.66,1.52l-2.33,4.91l-8.66,1.52l8.93-0.94
		c0,0-4.41,7.92-4.04,7.45c0.36-0.46,4.1-6.83,4.1-6.83l2.24,1.84l-0.14,4.55l-0.48,2.15l-1.2,2l-1.8,31.61l-0.02,0.16l-0.61,10.69
		L101.26,89.51z"/>
	<path class="st13" d="M87.55,86.52L88.26,75l0.01-0.11l1.97-32.28l1.37-2.6l0.58-3.25l0.3-3.39l1.35-0.79l0.35,1.12l-0.2,3.26
		l0.49-3.73c0,0,6.48,4.78,5.87,4.28c-2.04-1.68-3.78-3.14-3.78-3.14l-2.32-1.94l-0.01-0.06c0.02-1.23,0.19-2.46,0.14-3.69
		c-0.02-1.28-0.42-2.21-0.95-3.33c-0.21-0.4-0.39-0.8-0.59-1.22l-0.01-4.75c0,0,0.18-5.59,0.02-5.84c-0.14-0.25,0.23-2.43,0.23-2.43
		l3.46-6.51l-3.58,5.9l-2.34-2.2l2.05,2.67l-0.26,2.7l0.04,3.96l-0.16,6.65l-0.66,1.52l-2.33,4.91l-8.67,1.52l8.93-0.94
		c0,0-4.41,7.92-4.04,7.45c0.36-0.46,4.09-6.83,4.09-6.83l2.24,1.84l-0.14,4.55l-0.48,2.15l-1.2,2l-1.8,31.61l-0.02,0.16l-0.7,12.29
		L87.55,86.52z"/>
	<path class="st13" d="M115.64,86.52l0.3-5.92l1.89-3.99l0.78-5l0.39-5.21l1.88-1.21l0.5,1.73l0.41,4.95l-0.23-6.23
		c0,0,10.01,7.91,9.13,7.2c-3.25-2.61-3.07-2.79-4.98-4.12l-4.24-3.75l-0.01-0.1c0.02-1.9,0.25-3.78,0.17-5.69
		c-0.04-1.98-0.6-3.4-1.35-5.14c-0.29-0.62-0.55-1.24-0.83-1.88l-0.06-7.31c0,0,0.21-8.61-0.01-8.99c-0.2-0.38,0.3-22.13,0.3-22.13
		l4.76-10l-4.94,9.05l-3.28-3.41l2.88,4.14l-0.34,22.54l0.08,6.11l-0.17,10.25l-0.9,2.34l-3.2,7.55l-12.04,2.27l12.42-1.37
		c0,0-6.07,12.17-5.56,11.44c0.5-0.7,5.65-10.49,5.65-10.49l3.14,2.85L118,74l-0.66,3.32l-1.65,3.08l-0.27,6.13L115.64,86.52z"/>
	<path class="st13" d="M68.29,34.82l5.89-0.62c0,0-4.41,7.92-4.04,7.45c0.36-0.46,4.09-6.83,4.09-6.83l2.24,1.84l-0.14,4.55
		l-0.48,2.15l-1.2,2.01l-1.8,31.61l-0.02,0.16l-0.54,9.42l0.03,0l0.53-8.66l0.01-0.11l1.97-32.28l1.37-2.6l0.58-3.25l0.3-3.38
		l1.35-0.79l0.35,1.12l-0.2,3.26l0.49-3.73c0,0,6.48,4.78,5.87,4.28c-2.04-1.68-3.78-3.14-3.78-3.14l-2.32-1.94l-0.01-0.06
		c0.02-1.23,0.19-2.46,0.14-3.69c-0.02-1.28-0.42-2.21-0.95-3.33c-0.21-0.4-0.39-0.8-0.59-1.22l-0.01-4.75c0,0,0.18-5.59,0.02-5.84
		c-0.14-0.25,0.23-2.43,0.23-2.43l3.46-6.51l-3.58,5.9l-2.34-2.2l2.05,2.68l-0.26,2.7l0.04,3.96l-0.16,6.65l-0.66,1.52l-2.33,4.91
		l-5.63,0.99L68.29,34.82z"/>
	<path class="st13" d="M95.46,86.53l0.19-3.74l1.89-3.99l0.78-5l0.39-5.21l1.88-1.21l0.5,1.73l0.41,4.95l-0.23-6.23
		c0,0,10.01,7.91,9.13,7.2c-3.25-2.61-3.07-2.79-4.98-4.12l-4.24-3.75l-0.01-0.1c0.02-1.9,0.24-3.78,0.17-5.69
		c-0.04-1.98-0.6-3.4-1.35-5.14c-0.29-0.62-0.55-1.24-0.83-1.88l-0.06-7.31c0,0,0.21-8.61-0.02-9c-0.2-0.38,0.3-22.13,0.3-22.13
		l4.76-10l-4.94,9.05l-3.28-3.41l2.88,4.14l-0.34,22.54l0.08,6.11l-0.17,10.25l-0.9,2.34l-3.2,7.55l-12.04,2.27l12.42-1.37
		c0,0-6.07,12.17-5.56,11.44c0.5-0.7,5.65-10.49,5.65-10.49l3.14,2.85l-0.16,7.01l-0.66,3.32l-1.65,3.08l-0.16,3.9L95.46,86.53z"/>
	<path class="st13" d="M109.66,86.54l0.76-12.25l0.01-0.11l1.97-32.28l1.37-2.6l0.58-3.25l0.3-3.38l1.35-0.79l0.35,1.12l-0.2,3.26
		l0.49-3.73c0,0,6.48,4.78,5.88,4.28c-2.04-1.68-3.78-3.14-3.78-3.14l-2.32-1.94l-0.01-0.06c0.02-1.23,0.19-2.46,0.14-3.69
		c-0.02-1.28-0.42-2.21-0.95-3.33c-0.21-0.4-0.39-0.8-0.59-1.22l-0.01-4.75c0,0,0.18-5.59,0.02-5.84c-0.14-0.25,0.23-2.43,0.23-2.43
		l3.46-6.51l-3.58,5.9l-2.34-2.2l2.06,2.68l-0.26,2.7l0.04,3.96l-0.16,6.65l-0.66,1.52l-2.33,4.91l-8.67,1.52l8.94-0.94
		c0,0-4.41,7.92-4.04,7.45c0.36-0.46,4.1-6.83,4.1-6.83l2.24,1.84l-0.14,4.55l-0.48,2.15l-1.2,2.01l-1.8,31.61l-0.02,0.16
		l-0.75,13.01H109.66z"/>
	<path class="st13" d="M128.18,86.5l2.42-5.05l0.78-5l0.39-5.21l1.88-1.21l0.5,1.73l0.41,4.95l-0.23-6.23c0,0,10.01,7.91,9.13,7.2
		c-3.25-2.61-3.07-2.79-4.98-4.11l-4.24-3.75l-0.01-0.1c0.02-1.9,0.24-3.78,0.17-5.69c-0.04-1.98-0.6-3.4-1.35-5.14
		c-0.29-0.62-0.55-1.24-0.83-1.88l-0.05-7.31c0,0,0.21-8.61-0.02-9c-0.2-0.38,0.3-22.13,0.3-22.13l4.76-10l-4.94,9.05l-3.28-3.41
		l2.88,4.14l-0.34,22.54l0.08,6.11l-0.17,10.25l-0.9,2.34l-3.2,7.55l-12.04,2.27l12.42-1.37c0,0-6.07,12.17-5.56,11.44
		c0.5-0.7,5.65-10.49,5.65-10.49l3.14,2.85l-0.16,7.01l-0.67,3.37l-2.21,4.32L128.18,86.5z"/>
	<path class="st13" d="M123.04,86.52l0.61-9.92l0.01-0.11l1.97-32.28l1.37-2.6l0.58-3.25l0.3-3.39l1.35-0.79l0.35,1.12l-0.2,3.26
		l0.49-3.73c0,0,6.48,4.78,5.88,4.28c-2.04-1.68-3.78-3.14-3.78-3.14l-2.32-1.94l-0.01-0.06c0.02-1.23,0.19-2.46,0.14-3.69
		c-0.02-1.28-0.42-2.21-0.95-3.33c-0.21-0.4-0.39-0.8-0.59-1.22l-0.01-4.75c0,0,0.18-5.59,0.02-5.84c-0.14-0.25,0.23-2.43,0.23-2.43
		l3.46-6.51l-3.58,5.9l-2.34-2.2l2.05,2.67l-0.26,2.7l0.04,3.96l-0.16,6.65l-0.66,1.52l-2.33,4.91l-8.66,1.52l8.93-0.94
		c0,0-4.41,7.92-4.04,7.45c0.36-0.46,4.1-6.83,4.1-6.83l2.24,1.84l-0.14,4.55l-0.48,2.15l-1.2,2l-1.8,31.61l-0.02,0.16l-0.61,10.69
		L123.04,86.52z"/>
	<path class="st13" d="M68.27,69.01l10.98-1.21c0,0-6.07,12.17-5.56,11.44c0.5-0.7,5.65-10.49,5.65-10.49l3.14,2.85l-0.17,7.01
		l-0.65,3.32L80,85.01l-0.07,1.56l0.26,0l0.07-1.36l1.89-3.99l0.78-5l0.39-5.21l1.88-1.21l0.5,1.73l0.41,4.95l-0.23-6.23
		c0,0,10.01,7.91,9.13,7.2c-3.25-2.61-3.07-2.79-4.98-4.12l-4.24-3.75l-0.01-0.1c0.02-1.9,0.24-3.78,0.17-5.69
		c-0.04-1.98-0.6-3.4-1.35-5.14c-0.29-0.62-0.55-1.24-0.83-1.88l-0.05-7.31c0,0,0.21-8.61-0.02-8.99c-0.2-0.38,0.3-22.13,0.3-22.13
		l4.76-10l-4.94,9.05l-3.28-3.41l2.88,4.14l-0.34,22.54l0.08,6.11l-0.17,10.25l-0.9,2.34l-3.2,7.55l-10.59,2L68.27,69.01z"/>
	<path class="st13" d="M105.9,52.47c-0.02-0.57,0.07-5.91-0.19-8.46c-0.37-3.61,0.56,6.24,0.83,7.5c0.19,0.87,0.57,2.65,1.91,2.17
		c1.34-0.49,9.2-4.62,9.2-4.62s-8.94,4.76-9.25,5.3c-0.31,0.54-1.2,2.31-0.76,3.23c0.48,1.02,4.13,6.01,4.75,6.92
		c0.47,0.69-4.82-6.4-5.34-6.68c-0.52-0.29-1.29-0.2-1.84,0.05c-0.55,0.25-4.31,4.6-5.45,6.07c-1.14,1.47,4.7-5.92,4.77-6.53
		c0.06-0.62,0.26-1.79-0.71-2.54c-0.98-0.74-9.15-5.49-9.78-5.96c-0.63-0.48,9.15,5.07,9.57,5.24
		C104.11,54.37,105.97,54.46,105.9,52.47z"/>
	<path class="st13" d="M144.59,44.27c-2.62,1.41-7.29,3.98-7.51,4.37c-0.31,0.54-1.2,2.31-0.76,3.23c0.48,1.02,4.13,6.01,4.75,6.92
		c0.47,0.69-4.82-6.39-5.34-6.68c-0.52-0.29-1.29-0.2-1.84,0.05c-0.56,0.25-4.31,4.6-5.45,6.07c-1.14,1.47,4.7-5.92,4.77-6.53
		c0.07-0.62,0.27-1.79-0.71-2.54c-0.98-0.74-9.15-5.49-9.77-5.97c-0.63-0.48,9.14,5.07,9.57,5.24c0.5,0.21,2.36,0.3,2.29-1.69
		c-0.02-0.57,0.07-5.91-0.19-8.46c-0.37-3.61,0.56,6.24,0.83,7.5c0.19,0.87,0.57,2.65,1.91,2.17c0.94-0.34,5.07-2.47,7.47-3.72"/>
	<path class="st13" d="M101.12,89.51l0.61-9.92l0.01-0.11l1.97-32.28l1.37-2.6l0.58-3.25l0.3-3.39l1.35-0.79l0.35,1.12l-0.2,3.26
		l0.49-3.73c0,0,6.48,4.78,5.88,4.28c-2.04-1.68-3.78-3.14-3.78-3.14l-2.32-1.94l-0.01-0.06c0.02-1.23,0.19-2.46,0.14-3.69
		c-0.02-1.28-0.42-2.21-0.95-3.33c-0.2-0.4-0.39-0.8-0.59-1.22l-0.01-4.75c0,0,0.18-5.59,0.02-5.84c-0.14-0.25,0.23-2.43,0.23-2.43
		l3.46-6.51l-3.58,5.9l-2.34-2.2l2.05,2.67l-0.26,2.7l0.04,3.96l-0.16,6.65l-0.66,1.52l-2.33,4.91l-8.67,1.52l8.93-0.94
		c0,0-4.41,7.92-4.04,7.45c0.36-0.46,4.09-6.83,4.09-6.83l2.24,1.84l-0.14,4.55l-0.48,2.15l-1.2,2.01l-1.8,31.61l-0.02,0.16
		l-0.61,10.69L101.12,89.51z"/>
	<path class="st14" d="M87.55,86.52L88.26,75l0.01-0.11l1.97-32.28l1.37-2.6l0.58-3.25l0.3-3.39l1.35-0.79l0.35,1.12l-0.2,3.26
		l0.49-3.73c0,0,6.48,4.78,5.87,4.28c-2.04-1.68-3.78-3.14-3.78-3.14l-2.32-1.94l-0.01-0.06c0.02-1.23,0.19-2.46,0.14-3.69
		c-0.02-1.28-0.42-2.21-0.95-3.33c-0.21-0.4-0.39-0.8-0.59-1.22l-0.01-4.75c0,0,0.18-5.59,0.02-5.84c-0.14-0.25,0.23-2.43,0.23-2.43
		l3.46-6.51l-3.58,5.9l-2.34-2.2l2.05,2.67l-0.26,2.7l0.04,3.96l-0.16,6.65l-0.66,1.52l-2.33,4.91l-8.67,1.52l8.93-0.94
		c0,0-4.41,7.92-4.04,7.45c0.36-0.46,4.09-6.83,4.09-6.83l2.24,1.84l-0.14,4.55l-0.48,2.15l-1.2,2l-1.8,31.61l-0.02,0.16l-0.7,12.29
		L87.55,86.52z"/>
	<path class="st14" d="M115.64,86.52l0.3-5.92l1.89-3.99l0.78-5l0.39-5.21l1.88-1.21l0.5,1.73l0.41,4.95l-0.23-6.23
		c0,0,10.01,7.91,9.13,7.2c-3.25-2.61-3.07-2.79-4.98-4.12l-4.24-3.75l-0.01-0.1c0.02-1.9,0.25-3.78,0.17-5.69
		c-0.04-1.98-0.6-3.4-1.35-5.14c-0.29-0.62-0.55-1.24-0.83-1.88l-0.06-7.31c0,0,0.21-8.61-0.01-8.99c-0.2-0.38,0.3-22.13,0.3-22.13
		l4.76-10l-4.94,9.05l-3.28-3.41l2.88,4.14l-0.34,22.54l0.08,6.11l-0.17,10.25l-0.9,2.34l-3.2,7.55l-12.04,2.27l12.42-1.37
		c0,0-6.07,12.17-5.56,11.44c0.5-0.7,5.65-10.49,5.65-10.49l3.14,2.85L118,74l-0.66,3.32l-1.65,3.08l-0.27,6.13L115.64,86.52z"/>
	<path class="st14" d="M68.29,34.82l5.89-0.62c0,0-4.41,7.92-4.04,7.45c0.36-0.46,4.09-6.83,4.09-6.83l2.24,1.84l-0.14,4.55
		l-0.48,2.15l-1.2,2.01l-1.8,31.61l-0.02,0.16l-0.54,9.42l0.03,0l0.53-8.66l0.01-0.11l1.97-32.28l1.37-2.6l0.58-3.25l0.3-3.38
		l1.35-0.79l0.35,1.12l-0.2,3.26l0.49-3.73c0,0,6.48,4.78,5.87,4.28c-2.04-1.68-3.78-3.14-3.78-3.14l-2.32-1.94l-0.01-0.06
		c0.02-1.23,0.19-2.46,0.14-3.69c-0.02-1.28-0.42-2.21-0.95-3.33c-0.21-0.4-0.39-0.8-0.59-1.22l-0.01-4.75c0,0,0.18-5.59,0.02-5.84
		c-0.14-0.25,0.23-2.43,0.23-2.43l3.46-6.51l-3.58,5.9l-2.34-2.2l2.05,2.68l-0.26,2.7l0.04,3.96l-0.16,6.65l-0.66,1.52l-2.33,4.91
		l-5.63,0.99L68.29,34.82z"/>
	<path class="st14" d="M95.46,86.53l0.19-3.74l1.89-3.99l0.78-5l0.39-5.21l1.88-1.21l0.5,1.73l0.41,4.95l-0.23-6.23
		c0,0,10.01,7.91,9.13,7.2c-3.25-2.61-3.07-2.79-4.98-4.12l-4.24-3.75l-0.01-0.1c0.02-1.9,0.24-3.78,0.17-5.69
		c-0.04-1.98-0.6-3.4-1.35-5.14c-0.29-0.62-0.55-1.24-0.83-1.88l-0.06-7.31c0,0,0.21-8.61-0.02-9c-0.2-0.38,0.3-22.13,0.3-22.13
		l4.76-10l-4.94,9.05l-3.28-3.41l2.88,4.14l-0.34,22.54l0.08,6.11l-0.17,10.25l-0.9,2.34l-3.2,7.55l-12.04,2.27l12.42-1.37
		c0,0-6.07,12.17-5.56,11.44c0.5-0.7,5.65-10.49,5.65-10.49l3.14,2.85l-0.16,7.01l-0.66,3.32l-1.65,3.08l-0.16,3.9L95.46,86.53z"/>
	<path class="st14" d="M109.66,86.54l0.76-12.25l0.01-0.11l1.97-32.28l1.37-2.6l0.58-3.25l0.3-3.38l1.35-0.79l0.35,1.12l-0.2,3.26
		l0.49-3.73c0,0,6.48,4.78,5.88,4.28c-2.04-1.68-3.78-3.14-3.78-3.14l-2.32-1.94l-0.01-0.06c0.02-1.23,0.19-2.46,0.14-3.69
		c-0.02-1.28-0.42-2.21-0.95-3.33c-0.21-0.4-0.39-0.8-0.59-1.22l-0.01-4.75c0,0,0.18-5.59,0.02-5.84c-0.14-0.25,0.23-2.43,0.23-2.43
		l3.46-6.51l-3.58,5.9l-2.34-2.2l2.06,2.68l-0.26,2.7l0.04,3.96l-0.16,6.65l-0.66,1.52l-2.33,4.91l-8.67,1.52l8.94-0.94
		c0,0-4.41,7.92-4.04,7.45c0.36-0.46,4.1-6.83,4.1-6.83l2.24,1.84l-0.14,4.55l-0.48,2.15l-1.2,2.01l-1.8,31.61l-0.02,0.16
		l-0.75,13.01H109.66z"/>
	<path class="st14" d="M128.18,86.5l2.42-5.05l0.78-5l0.39-5.21l1.88-1.21l0.5,1.73l0.41,4.95l-0.23-6.23c0,0,10.01,7.91,9.13,7.2
		c-3.25-2.61-3.07-2.79-4.98-4.11l-4.24-3.75l-0.01-0.1c0.02-1.9,0.24-3.78,0.17-5.69c-0.04-1.98-0.6-3.4-1.35-5.14
		c-0.29-0.62-0.55-1.24-0.83-1.88l-0.05-7.31c0,0,0.21-8.61-0.02-9c-0.2-0.38,0.3-22.13,0.3-22.13l4.76-10l-4.94,9.05l-3.28-3.41
		l2.88,4.14l-0.34,22.54l0.08,6.11l-0.17,10.25l-0.9,2.34l-3.2,7.55l-12.04,2.27l12.42-1.37c0,0-6.07,12.17-5.56,11.44
		c0.5-0.7,5.65-10.49,5.65-10.49l3.14,2.85l-0.16,7.01l-0.67,3.37l-2.21,4.32L128.18,86.5z"/>
	<path class="st14" d="M123.04,86.52l0.61-9.92l0.01-0.11l1.97-32.28l1.37-2.6l0.58-3.25l0.3-3.39l1.35-0.79l0.35,1.12l-0.2,3.26
		l0.49-3.73c0,0,6.48,4.78,5.88,4.28c-2.04-1.68-3.78-3.14-3.78-3.14l-2.32-1.94l-0.01-0.06c0.02-1.23,0.19-2.46,0.14-3.69
		c-0.02-1.28-0.42-2.21-0.95-3.33c-0.21-0.4-0.39-0.8-0.59-1.22l-0.01-4.75c0,0,0.18-5.59,0.02-5.84c-0.14-0.25,0.23-2.43,0.23-2.43
		l3.46-6.51l-3.58,5.9l-2.34-2.2l2.05,2.67l-0.26,2.7l0.04,3.96l-0.16,6.65l-0.66,1.52l-2.33,4.91l-8.66,1.52l8.93-0.94
		c0,0-4.41,7.92-4.04,7.45c0.36-0.46,4.1-6.83,4.1-6.83l2.24,1.84l-0.14,4.55l-0.48,2.15l-1.2,2l-1.8,31.61l-0.02,0.16l-0.61,10.69
		L123.04,86.52z"/>
	<path class="st14" d="M68.27,69.01l10.98-1.21c0,0-6.07,12.17-5.56,11.44c0.5-0.7,5.65-10.49,5.65-10.49l3.14,2.85l-0.17,7.01
		l-0.65,3.32L80,85.01l-0.07,1.56l0.26,0l0.07-1.36l1.89-3.99l0.78-5l0.39-5.21l1.88-1.21l0.5,1.73l0.41,4.95l-0.23-6.23
		c0,0,10.01,7.91,9.13,7.2c-3.25-2.61-3.07-2.79-4.98-4.12l-4.24-3.75l-0.01-0.1c0.02-1.9,0.24-3.78,0.17-5.69
		c-0.04-1.98-0.6-3.4-1.35-5.14c-0.29-0.62-0.55-1.24-0.83-1.88l-0.05-7.31c0,0,0.21-8.61-0.02-8.99c-0.2-0.38,0.3-22.13,0.3-22.13
		l4.76-10l-4.94,9.05l-3.28-3.41l2.88,4.14l-0.34,22.54l0.08,6.11l-0.17,10.25l-0.9,2.34l-3.2,7.55l-10.59,2L68.27,69.01z"/>
	<path class="st14" d="M105.9,52.47c-0.02-0.57,0.07-5.91-0.19-8.46c-0.37-3.61,0.56,6.24,0.83,7.5c0.19,0.87,0.57,2.65,1.91,2.17
		c1.34-0.49,9.2-4.62,9.2-4.62s-8.94,4.76-9.25,5.3c-0.31,0.54-1.2,2.31-0.76,3.23c0.48,1.02,4.13,6.01,4.75,6.92
		c0.47,0.69-4.82-6.4-5.34-6.68c-0.52-0.29-1.29-0.2-1.84,0.05c-0.55,0.25-4.31,4.6-5.45,6.07c-1.14,1.47,4.7-5.92,4.77-6.53
		c0.06-0.62,0.26-1.79-0.71-2.54c-0.98-0.74-9.15-5.49-9.78-5.96c-0.63-0.48,9.15,5.07,9.57,5.24
		C104.11,54.37,105.97,54.46,105.9,52.47z"/>
	<linearGradient id="SVGID_30_" gradientUnits="userSpaceOnUse" x1="122.6868" y1="48.1745" x2="144.5951" y2="48.1745">
		<stop  offset="0" style="stop-color:#BCBEC0"/>
		<stop  offset="0.2669" style="stop-color:#A4A6A8"/>
		<stop  offset="0.8454" style="stop-color:#6A6B6E"/>
		<stop  offset="1" style="stop-color:#58595B"/>
	</linearGradient>
	<path class="st31" d="M144.59,44.27c-2.62,1.41-7.29,3.98-7.51,4.37c-0.31,0.54-1.2,2.31-0.76,3.23c0.48,1.02,4.13,6.01,4.75,6.92
		c0.47,0.69-4.82-6.39-5.34-6.68c-0.52-0.29-1.29-0.2-1.84,0.05c-0.56,0.25-4.31,4.6-5.45,6.07c-1.14,1.47,4.7-5.92,4.77-6.53
		c0.07-0.62,0.27-1.79-0.71-2.54c-0.98-0.74-9.15-5.49-9.77-5.97c-0.63-0.48,9.14,5.07,9.57,5.24c0.5,0.21,2.36,0.3,2.29-1.69
		c-0.02-0.57,0.07-5.91-0.19-8.46c-0.37-3.61,0.56,6.24,0.83,7.5c0.19,0.87,0.57,2.65,1.91,2.17c0.94-0.34,5.07-2.47,7.47-3.72"/>
	<path class="st14" d="M101.12,89.51l0.61-9.92l0.01-0.11l1.97-32.28l1.37-2.6l0.58-3.25l0.3-3.39l1.35-0.79l0.35,1.12l-0.2,3.26
		l0.49-3.73c0,0,6.48,4.78,5.88,4.28c-2.04-1.68-3.78-3.14-3.78-3.14l-2.32-1.94l-0.01-0.06c0.02-1.23,0.19-2.46,0.14-3.69
		c-0.02-1.28-0.42-2.21-0.95-3.33c-0.2-0.4-0.39-0.8-0.59-1.22l-0.01-4.75c0,0,0.18-5.59,0.02-5.84c-0.14-0.25,0.23-2.43,0.23-2.43
		l3.46-6.51l-3.58,5.9l-2.34-2.2l2.05,2.67l-0.26,2.7l0.04,3.96l-0.16,6.65l-0.66,1.52l-2.33,4.91l-8.67,1.52l8.93-0.94
		c0,0-4.41,7.92-4.04,7.45c0.36-0.46,4.09-6.83,4.09-6.83l2.24,1.84l-0.14,4.55l-0.48,2.15l-1.2,2.01l-1.8,31.61l-0.02,0.16
		l-0.61,10.69L101.12,89.51z"/>
</g>
</svg>
