<?xml version="1.0" encoding="utf-8"?>
<!-- Generator: Adobe Illustrator 23.0.0, SVG Export Plug-In . SVG Version: 6.00 Build 0)  -->
<svg version="1.1" id="Layer_1" xmlns="http://www.w3.org/2000/svg" xmlns:xlink="http://www.w3.org/1999/xlink" x="0px" y="0px"
	 viewBox="0 0 145.04 91.96" style="enable-background:new 0 0 145.04 91.96;" xml:space="preserve">
<style type="text/css">
	.st0{fill:none;stroke:#231F20;stroke-width:1.3073;stroke-linecap:round;stroke-linejoin:round;stroke-miterlimit:10;}
	.st1{fill:#231F20;}
	.st2{fill:#020202;}
	.st3{fill:none;stroke:#020202;stroke-width:0.7957;stroke-miterlimit:10;}
	.st4{font-family:'ArialMT';}
	.st5{font-size:8px;}
	.st6{fill:url(#SVGID_1_);}
	.st7{fill:none;stroke:#231F20;stroke-width:0.5;stroke-miterlimit:10;}
	.st8{fill:url(#SVGID_2_);stroke:#000000;stroke-width:0.75;}
	.st9{fill:url(#SVGID_3_);stroke:#000000;stroke-width:0.75;}
	.st10{fill:url(#SVGID_4_);stroke:#000000;stroke-width:0.75;}
	.st11{fill:url(#SVGID_5_);stroke:#000000;stroke-width:0.75;}
	.st12{fill:url(#SVGID_6_);stroke:#000000;stroke-width:0.75;}
	.st13{fill:url(#SVGID_7_);stroke:#000000;stroke-width:0.75;}
	.st14{fill:url(#SVGID_8_);stroke:#000000;stroke-width:0.75;}
	.st15{fill:url(#SVGID_9_);stroke:#000000;stroke-width:0.75;}
	.st16{fill:none;stroke:#231F20;stroke-width:0.4802;}
	.st17{fill:none;stroke:#221F20;stroke-width:0.482;stroke-miterlimit:10;}
	.st18{fill:#010101;}
	.st19{font-size:6.0444px;}
</style>
<g>
	<path class="st0" d="M97.1,71.83h32.73c7.22,0,17.44-6.63,10.53-14.07c-3.69-3.98-26.15-16.68-32.02-17.35
		c-8.09-1.66-17.97-0.28-17.97-0.28"/>
	<path class="st1" d="M140.36,57.76v8.95c0,0,3.89-0.16,4.61-3.53C145.69,59.81,140.36,57.76,140.36,57.76"/>
	<path class="st2" d="M120.57,52.89c-1.28-0.46-2.1-1.47-1.81-2.28c0.29-0.81,1.56-1.09,2.84-0.64c1.29,0.45,2.1,1.48,1.81,2.28
		C123.13,53.06,121.85,53.35,120.57,52.89"/>
	<line class="st3" x1="130.05" y1="62.69" x2="121.08" y2="89.76"/>
	<line class="st3" x1="124.76" y1="61.59" x2="108.85" y2="90.92"/>
	<line class="st3" x1="135.86" y1="63.6" x2="131.35" y2="83.86"/>
	<text transform="matrix(1 0 0 1 59.0669 30.2775)"><tspan x="0" y="0" class="st1 st4 st5">Silicon</tspan><tspan x="0" y="9.6" class="st1 st4 st5">probe</tspan></text>
	<g>
		<g>
			
				<linearGradient id="SVGID_1_" gradientUnits="userSpaceOnUse" x1="-21.1284" y1="32.4722" x2="-17.17" y2="32.4722" gradientTransform="matrix(0.9253 -0.3793 0.3793 0.9253 98.0565 -9.2624)">
				<stop  offset="0" style="stop-color:#FFFFFF"/>
				<stop  offset="1" style="stop-color:#FFFFFF"/>
			</linearGradient>
			<polygon class="st6" points="95.3,39.45 84.28,12.84 87.88,11.47 98.91,38.08 99.2,44 			"/>
			<line class="st7" x1="84.15" y1="12.79" x2="95.15" y2="39.62"/>
			<line class="st7" x1="87.84" y1="11.28" x2="98.83" y2="38.11"/>
			<linearGradient id="SVGID_2_" gradientUnits="userSpaceOnUse" x1="85.9486" y1="14.3085" x2="87.872" y2="14.3085">
				<stop  offset="0" style="stop-color:#F7941D"/>
				<stop  offset="0.2669" style="stop-color:#E57A25"/>
				<stop  offset="0.8454" style="stop-color:#C6382D"/>
				<stop  offset="1" style="stop-color:#BE1E2D"/>
			</linearGradient>
			<path class="st8" d="M87.78,13.95c0.23,0.56,0.03,1.17-0.45,1.37c-0.48,0.2-1.05-0.1-1.28-0.66c-0.23-0.56-0.03-1.17,0.45-1.37
				C86.97,13.1,87.55,13.39,87.78,13.95z"/>
			<linearGradient id="SVGID_3_" gradientUnits="userSpaceOnUse" x1="87.3708" y1="17.7783" x2="89.2943" y2="17.7783">
				<stop  offset="0" style="stop-color:#F7941D"/>
				<stop  offset="0.2669" style="stop-color:#E57A25"/>
				<stop  offset="0.8454" style="stop-color:#C6382D"/>
				<stop  offset="1" style="stop-color:#BE1E2D"/>
			</linearGradient>
			<path class="st9" d="M89.2,17.42c0.23,0.56,0.03,1.17-0.45,1.37c-0.48,0.2-1.05-0.1-1.28-0.66c-0.23-0.56-0.03-1.17,0.45-1.37
				C88.4,16.57,88.97,16.86,89.2,17.42z"/>
			<linearGradient id="SVGID_4_" gradientUnits="userSpaceOnUse" x1="88.7934" y1="21.248" x2="90.7168" y2="21.248">
				<stop  offset="0" style="stop-color:#F7941D"/>
				<stop  offset="0.2669" style="stop-color:#E57A25"/>
				<stop  offset="0.8454" style="stop-color:#C6382D"/>
				<stop  offset="1" style="stop-color:#BE1E2D"/>
			</linearGradient>
			<path class="st10" d="M90.62,20.89c0.23,0.56,0.03,1.17-0.45,1.37c-0.48,0.2-1.05-0.1-1.28-0.66c-0.23-0.56-0.03-1.17,0.45-1.37
				C89.82,20.04,90.39,20.33,90.62,20.89z"/>
			<linearGradient id="SVGID_5_" gradientUnits="userSpaceOnUse" x1="90.2161" y1="24.7177" x2="92.1394" y2="24.7177">
				<stop  offset="0" style="stop-color:#F7941D"/>
				<stop  offset="0.2669" style="stop-color:#E57A25"/>
				<stop  offset="0.8454" style="stop-color:#C6382D"/>
				<stop  offset="1" style="stop-color:#BE1E2D"/>
			</linearGradient>
			<path class="st11" d="M92.05,24.36c0.23,0.56,0.03,1.17-0.45,1.37c-0.48,0.2-1.05-0.1-1.28-0.66c-0.23-0.56-0.03-1.17,0.45-1.37
				C91.24,23.51,91.82,23.8,92.05,24.36z"/>
			<linearGradient id="SVGID_6_" gradientUnits="userSpaceOnUse" x1="91.6383" y1="28.1874" x2="93.5619" y2="28.1874">
				<stop  offset="0" style="stop-color:#F7941D"/>
				<stop  offset="0.2669" style="stop-color:#E57A25"/>
				<stop  offset="0.8454" style="stop-color:#C6382D"/>
				<stop  offset="1" style="stop-color:#BE1E2D"/>
			</linearGradient>
			<path class="st12" d="M93.47,27.83c0.23,0.56,0.03,1.17-0.45,1.37c-0.48,0.2-1.05-0.1-1.28-0.66c-0.23-0.56-0.03-1.17,0.45-1.37
				C92.66,26.98,93.24,27.27,93.47,27.83z"/>
			<linearGradient id="SVGID_7_" gradientUnits="userSpaceOnUse" x1="93.0608" y1="31.6571" x2="94.9842" y2="31.6571">
				<stop  offset="0" style="stop-color:#F7941D"/>
				<stop  offset="0.2669" style="stop-color:#E57A25"/>
				<stop  offset="0.8454" style="stop-color:#C6382D"/>
				<stop  offset="1" style="stop-color:#BE1E2D"/>
			</linearGradient>
			<path class="st13" d="M94.89,31.3c0.23,0.56,0.03,1.17-0.45,1.37c-0.48,0.2-1.05-0.1-1.28-0.66c-0.23-0.56-0.03-1.17,0.45-1.37
				C94.09,30.45,94.66,30.74,94.89,31.3z"/>
			<linearGradient id="SVGID_8_" gradientUnits="userSpaceOnUse" x1="94.4833" y1="35.127" x2="96.4063" y2="35.127">
				<stop  offset="0" style="stop-color:#F7941D"/>
				<stop  offset="0.2669" style="stop-color:#E57A25"/>
				<stop  offset="0.8454" style="stop-color:#C6382D"/>
				<stop  offset="1" style="stop-color:#BE1E2D"/>
			</linearGradient>
			<path class="st14" d="M96.31,34.77c0.23,0.56,0.03,1.17-0.45,1.37c-0.48,0.2-1.05-0.1-1.28-0.66c-0.23-0.56-0.03-1.17,0.45-1.37
				C95.51,33.92,96.08,34.21,96.31,34.77z"/>
			<linearGradient id="SVGID_9_" gradientUnits="userSpaceOnUse" x1="95.9058" y1="38.5967" x2="97.8291" y2="38.5967">
				<stop  offset="0" style="stop-color:#F7941D"/>
				<stop  offset="0.2669" style="stop-color:#E57A25"/>
				<stop  offset="0.8454" style="stop-color:#C6382D"/>
				<stop  offset="1" style="stop-color:#BE1E2D"/>
			</linearGradient>
			<path class="st15" d="M97.73,38.24c0.23,0.56,0.03,1.17-0.45,1.37c-0.48,0.2-1.05-0.1-1.28-0.66c-0.23-0.56-0.03-1.17,0.45-1.37
				C96.93,37.39,97.51,37.68,97.73,38.24z"/>
		</g>
		<line class="st7" x1="94.98" y1="39.43" x2="99.09" y2="44.5"/>
		<line class="st7" x1="98.74" y1="37.88" x2="99.38" y2="44.38"/>
	</g>
</g>
<g>
	<path class="st0" d="M12.33,71.83h32.73c7.22,0,17.44-6.63,10.53-14.07c-3.69-3.98-26.15-16.68-32.02-17.35
		c-8.09-1.66-17.97-0.28-17.97-0.28"/>
	<path class="st1" d="M55.59,57.76v8.95c0,0,3.89-0.16,4.61-3.53C60.92,59.81,55.59,57.76,55.59,57.76"/>
	<path class="st2" d="M35.8,52.89c-1.28-0.45-2.1-1.47-1.81-2.28c0.29-0.81,1.56-1.09,2.84-0.64c1.28,0.45,2.1,1.47,1.81,2.28
		C38.36,53.06,37.09,53.35,35.8,52.89"/>
	<path class="st16" d="M0.27,30.03"/>
	<line class="st3" x1="45.28" y1="62.69" x2="36.32" y2="89.76"/>
	<rect x="1.51" y="2.58" class="st17" width="22.94" height="24.76"/>
	<polygon class="st17" points="7.27,33.67 18.7,33.67 24.4,27.39 1.56,27.39 	"/>
	<text transform="matrix(1 0 0 1 6.2859 11.6525)" class="st18 st4 st19">16 X</text>
	<text transform="matrix(1 0 0 1 3.4094 22.4577)" class="st18 st4 st19">0.8 NA</text>
	<line class="st3" x1="39.99" y1="61.59" x2="24.09" y2="90.92"/>
	<line class="st3" x1="51.09" y1="63.6" x2="46.58" y2="83.86"/>
</g>
</svg>
