<?xml version="1.0" encoding="utf-8"?>
<!-- Generator: Adobe Illustrator 23.0.0, SVG Export Plug-In . SVG Version: 6.00 Build 0)  -->
<svg version="1.1" id="Layer_1" xmlns="http://www.w3.org/2000/svg" xmlns:xlink="http://www.w3.org/1999/xlink" x="0px" y="0px"
	 viewBox="0 0 145.04 91.96" style="enable-background:new 0 0 145.04 91.96;" xml:space="preserve">
<style type="text/css">
	.st0{fill:none;stroke:#808080;stroke-width:2;stroke-miterlimit:10;}
	.st1{fill:none;stroke:#808080;stroke-miterlimit:10;}
	.st2{fill:#808080;}
	.st3{fill:#F05A28;stroke:#7F2F8C;stroke-miterlimit:10;}
	.st4{fill:#37B34A;stroke:#7F2F8C;stroke-miterlimit:10;}
	.st5{fill:none;stroke:#231F20;stroke-width:2;stroke-miterlimit:10;}
	.st6{fill:none;stroke:#BE1E2D;stroke-miterlimit:10;}
	.st7{fill:#BE1E2D;}
	.st8{fill:none;stroke:#0B72B9;stroke-linejoin:round;}
	.st9{fill:#0B72B9;}
	.st10{fill:none;stroke:#A21D31;stroke-linejoin:round;}
	.st11{fill:#A21D31;}
	.st12{fill:none;stroke:#ECB01F;stroke-linejoin:round;}
	.st13{fill:#ECB01F;}
	.st14{fill:none;stroke:#77AC42;stroke-linejoin:round;}
	.st15{fill:#77AC42;}
	.st16{fill:none;stroke:#2E3191;stroke-miterlimit:10;}
	.st17{fill:#2E3191;}
	.st18{fill:#0B72B9;stroke:#231F20;stroke-miterlimit:10;}
	.st19{fill:#77AC42;stroke:#231F20;stroke-miterlimit:10;}
	.st20{fill:#A21D31;stroke:#231F20;stroke-miterlimit:10;}
	.st21{fill:#ECB01F;stroke:#231F20;stroke-miterlimit:10;}
	.st22{fill:#50BDEC;stroke:#231F20;stroke-miterlimit:10;}
	.st23{fill:none;stroke:#50BDEC;stroke-linejoin:round;}
	.st24{fill:#50BDEC;}
	.st25{fill:#7F2F8C;}
	.st26{fill:#231F20;}
</style>
<g>
	<circle class="st0" cx="108.19" cy="58.16" r="26.94"/>
	<g>
		<g>
			<path class="st1" d="M101.08,41.49c-0.35-0.02-0.7,0.21-0.83,0.54c0.49-1.96,2.1-3.54,4-4.23s4.04-0.55,5.94,0.14
				c1.82,0.66,3.46,1.82,4.7,3.31"/>
			<g>
				<polygon class="st2" points="114.92,43.96 114.71,41.05 117.37,42.24 				"/>
			</g>
		</g>
	</g>
	<g>
		<g>
			<path class="st1" d="M117.83,50.16c-0.7,1.36-2.12,2.19-3.54,2.74c-1.42,0.55-2.93,0.9-4.26,1.66c-1.92,1.09-3.32,2.99-4.05,5.08
				c-0.54,1.56-0.73,3.23-0.68,4.89"/>
			<g>
				<path class="st2" d="M104.24,64.83c0.2,0.59,0.84,0.91,1.43,0.71c0.59-0.2,0.91-0.84,0.71-1.43c-0.2-0.59-0.83-0.91-1.43-0.71
					C104.36,63.6,104.04,64.24,104.24,64.83z"/>
			</g>
		</g>
	</g>
	<g>
		<g>
			<path class="st1" d="M94.37,57.28c-0.05,0-0.1,0-0.15,0c0.8-0.36,0.99-1.54,1.18-2.89c0.14-1,0.14-2.03,0.17-3.06"/>
			<g>
				<path class="st2" d="M96.7,51.43c0.02-0.62-0.47-1.14-1.09-1.16c-0.62-0.02-1.14,0.47-1.16,1.09c-0.02,0.62,0.47,1.14,1.09,1.16
					C96.16,52.54,96.68,52.05,96.7,51.43z"/>
			</g>
		</g>
	</g>
	<g>
		<g>
			<path class="st1" d="M100.9,68.33c0.28-2.35-1.37-4.72-3.59-5.45"/>
			<g>
				<path class="st2" d="M97.61,61.8c-0.61-0.13-1.21,0.25-1.34,0.86c-0.13,0.61,0.25,1.21,0.86,1.34c0.61,0.13,1.21-0.25,1.34-0.86
					C98.6,62.54,98.21,61.94,97.61,61.8z"/>
			</g>
		</g>
	</g>
	<g>
		<g>
			<path class="st1" d="M122.83,68.26c-1.8,6.38-6.48,11.2-12.23,12.32c-1.11,0.22-5.9,1.07-10.3-2c-4.01-2.8-5.2-7.1-5.54-9.56"/>
			<g>
				<polygon class="st2" points="96.5,66.91 94.82,69.3 93.52,66.69 				"/>
			</g>
		</g>
	</g>
	<g>
		<g>
			<path class="st1" d="M100.51,41.8c1.26-2.45,2.82-3.78,3.74-4.44c3.34-2.41,7.43-2.9,11.54-2.18c1.24,0.19,6.29,1.09,9.68,5.56
				c3.01,3.97,3.66,9.39,1.88,14.36"/>
			<g>
				<polygon class="st2" points="125.08,56.58 127.42,54.84 127.84,57.73 				"/>
			</g>
		</g>
	</g>
	<g>
		<g>
			<path class="st1" d="M112.1,69.38c-0.32-1.64,0.62-3.33,1.88-4.26c0.97-0.71,2.1-1.08,3.24-1.35"/>
			<g>
				<path class="st2" d="M117.44,64.91c0.6-0.15,0.97-0.76,0.82-1.37c-0.15-0.6-0.76-0.97-1.37-0.82c-0.6,0.15-0.97,0.76-0.82,1.37
					C116.22,64.69,116.84,65.06,117.44,64.91z"/>
			</g>
		</g>
	</g>
	<g>
		<g>
			<path class="st1" d="M100.73,50.22c1.16,2.7,0.52,5.78,0.25,8.7c-0.19,2.15-0.05,4.56,0.98,6.36"/>
			<g>
				<polygon class="st2" points="102.31,67.9 101.86,65.02 104.62,66 				"/>
			</g>
		</g>
	</g>
</g>
<g>
	<circle class="st3" cx="34.49" cy="46.27" r="7.27"/>
	<circle class="st4" cx="45.38" cy="65.74" r="7.27"/>
	<circle class="st5" cx="39.88" cy="57.16" r="26.94"/>
	<g>
		<g>
			<path class="st6" d="M26.88,43.96c0-0.08,0-0.17,0-0.25c-1.37-3.02-0.9-6.36,1.12-8.32c0.21-0.2,2.58-2.43,5.44-1.59
				c1.71,0.5,3.08,1.96,3.66,3.84"/>
			<g>
				<polygon class="st7" points="35.91,40.11 36.98,37.38 38.86,39.62 				"/>
			</g>
		</g>
	</g>
	<g>
		<g>
			<path class="st6" d="M52.27,67.38c2.1,1.97,2.73,4.92,1.63,7.22c-1.26,2.65-4.23,3.19-4.63,3.26c-0.77,0.13-2.48,0.41-3.94-0.69
				c-0.79-0.59-1.23-1.37-1.47-2.1"/>
			<g>
				<polygon class="st7" points="45.05,72.61 43.98,75.32 42.1,73.08 				"/>
			</g>
		</g>
	</g>
	<g>
		<g>
			<path class="st6" d="M42.04,45.26c2.85,0.66,5.21,2.93,6.26,5.67c0.92,2.4,0.87,5.11,0.09,7.57"/>
			<g>
				<path class="st7" d="M47.34,58.07c-0.21,0.59,0.09,1.23,0.68,1.44c0.59,0.21,1.23-0.09,1.44-0.68c0.21-0.59-0.09-1.23-0.68-1.44
					C48.19,57.18,47.55,57.48,47.34,58.07z"/>
			</g>
		</g>
	</g>
	<g>
		<g>
			<path class="st6" d="M28.09,50.92c-0.1,0.16-0.19,0.34-0.28,0.51c-1.13,2.37-0.95,4.73-0.67,6.34c0.14,0.83,0.56,2.81,1.88,5
				c0.61,1.02,1.77,2.93,3.97,4.3c2.6,1.61,5.59,1.8,5.56,1.94c-0.01,0.04-0.31,0.02-0.55,0"/>
			<g>
				<path class="st7" d="M27.26,50.21c0.43-0.46,1.14-0.48,1.59-0.05c0.46,0.43,0.48,1.14,0.05,1.59c-0.43,0.46-1.14,0.48-1.59,0.05
					C26.86,51.38,26.83,50.66,27.26,50.21z"/>
			</g>
		</g>
	</g>
	<g>
		<g>
			<path class="st8" d="M90.02,32.09c0.34,0.63-0.46,1.06-0.12,1.69c0.34,0.64,1.14,0.21,1.48,0.84c0.34,0.64-0.46,1.06-0.12,1.7
				c0.34,0.64,1.14,0.21,1.48,0.84c0.34,0.64-0.46,1.06-0.12,1.7c0,0.01,0.01,0.02,0.01,0.02"/>
			<g>
				<polygon class="st9" points="90.68,39.19 93.98,41.43 94.27,37.45 				"/>
			</g>
		</g>
	</g>
	<g>
		<g>
			<path class="st10" d="M126.88,32.01c-0.35,0.67-1.2,0.23-1.55,0.9c-0.35,0.67,0.49,1.12,0.14,1.79c-0.35,0.67-1.2,0.23-1.55,0.9
				c-0.35,0.67,0.49,1.12,0.14,1.79c-0.35,0.67-1.2,0.23-1.56,0.9c-0.03,0.06-0.05,0.11-0.07,0.17"/>
			<g>
				<polygon class="st11" points="120.97,37 121.08,40.99 124.48,38.9 				"/>
			</g>
		</g>
	</g>
	<g>
		<g>
			<path class="st12" d="M132.68,50.93c-0.35,0.67-1.2,0.23-1.55,0.9c-0.35,0.67,0.49,1.12,0.14,1.79c-0.35,0.67-1.2,0.23-1.55,0.9
				c-0.35,0.67,0.49,1.12,0.14,1.79c-0.35,0.67-1.2,0.23-1.56,0.9c-0.03,0.06-0.05,0.11-0.07,0.17"/>
			<g>
				<polygon class="st13" points="126.77,55.92 126.88,59.91 130.28,57.82 				"/>
			</g>
		</g>
	</g>
	<g>
		<g>
			<path class="st14" d="M113.48,58c-0.35,0.67-1.2,0.23-1.55,0.9c-0.35,0.67,0.49,1.12,0.14,1.79c-0.35,0.67-1.2,0.23-1.55,0.9
				c-0.35,0.67,0.49,1.12,0.14,1.79c-0.35,0.67-1.2,0.23-1.56,0.9c-0.03,0.06-0.05,0.11-0.07,0.17"/>
			<g>
				<polygon class="st15" points="107.57,62.99 107.68,66.98 111.08,64.9 				"/>
			</g>
		</g>
	</g>
	<g>
		<g>
			<path class="st16" d="M53.05,66.18c5.71,6.96,13.73,12,22.48,14.12c4.84,1.17,9.85,1.47,14.83,1.56
				c5.07,0.1,10.33-0.05,14.9-2.25c2.37-1.14,4.46-2.78,6.48-4.47c2.16-1.8,4.28-3.67,6.33-5.59"/>
			<g>
				<path class="st17" d="M117.41,70.15l-2.03-0.56l0.02-0.07l2.94-1.17c0.9-0.54,1.8-1.08,2.69-1.62c-0.59,0.87-1.18,1.73-1.77,2.6
					l-1.33,2.87l-0.07,0.02L117.41,70.15z"/>
			</g>
		</g>
	</g>
	<g>
		<g>
			<path class="st16" d="M52.4,64.03c7.96,4.08,16.39,7.27,25.06,9.49c3.68,0.94,7.43,1.71,11.23,1.73c2.43,0.01,4.89-0.29,7.2-1.02
				"/>
			<g>
				<path class="st17" d="M95.01,74.46l-1.7-1.25l0.04-0.06l3.16-0.04c1.03-0.18,2.06-0.36,3.1-0.54c-0.86,0.6-1.72,1.19-2.58,1.79
					l-2.27,2.19l-0.07-0.01L95.01,74.46z"/>
			</g>
		</g>
	</g>
	<g>
		<g>
			<path class="st16" d="M51.71,62.09c2.6-1.81,5.92-2.19,9.09-2.34c6.49-0.3,13.15,0.19,19.23,2.35"/>
			<g>
				<path class="st17" d="M79.18,61.82l-0.34-2.08l0.07-0.01l2.28,2.18c0.86,0.59,1.73,1.19,2.59,1.78
					c-1.03-0.18-2.07-0.35-3.1-0.53l-3.16-0.02l-0.05-0.05L79.18,61.82z"/>
			</g>
		</g>
	</g>
	<g>
		<g>
			<path class="st16" d="M40.78,42.62c14.49,1.18,28.68,5.98,40.9,13.85c0.2,0.13,0.41,0.27,0.61,0.4"/>
			<g>
				<path class="st17" d="M81.56,56.35l0.45-2.06l0.07,0.01l1.32,2.87c0.58,0.87,1.17,1.74,1.75,2.61c-0.9-0.54-1.79-1.09-2.69-1.63
					l-2.93-1.18l-0.02-0.06L81.56,56.35z"/>
			</g>
		</g>
	</g>
	<g>
		<g>
			<path class="st16" d="M39.23,40.53c0.08-0.06,0.2-0.15,0.35-0.26c2.26-1.65,5.92-3.68,12.99-4.74
				c7.74-1.17,13.91-0.33,18.78,0.37c3.11,0.45,4.85,0.7,7.22,1.47c3.84,1.25,6.93,3.09,9.3,4.86"/>
			<g>
				<path class="st17" d="M87.12,41.72l0.29-2.09l0.07,0.01l1.54,2.76c0.65,0.82,1.3,1.64,1.96,2.46c-0.94-0.47-1.87-0.94-2.81-1.41
					l-3.02-0.95l-0.03-0.06L87.12,41.72z"/>
			</g>
		</g>
	</g>
	<g>
		<g>
			<path class="st16" d="M38.19,39.73c1.51-2.02,3.33-3.78,5.31-5.33c10.05-7.91,23.79-10.24,36.37-7.9
				c11.24,2.09,21.59,7.61,30.61,14.69"/>
			<g>
				<path class="st17" d="M109.77,40.64l0.29-2.09l0.07,0.01l1.54,2.76c0.65,0.82,1.3,1.64,1.96,2.46
					c-0.94-0.47-1.87-0.94-2.81-1.41l-3.02-0.95l-0.03-0.06L109.77,40.64z"/>
			</g>
		</g>
	</g>
	<circle class="st18" cx="96.14" cy="46.17" r="5.38"/>
	<circle class="st19" cx="105.65" cy="71.01" r="5.38"/>
	<circle class="st20" cx="119.56" cy="46.17" r="5.38"/>
	<circle class="st21" cx="123.1" cy="62.66" r="5.38"/>
	<circle class="st22" cx="89.96" cy="62.66" r="5.38"/>
	<g>
		<g>
			<path class="st16" d="M49.58,59.72c2.69-2.98,6.78-4.79,10.76-6.3C68.9,50.17,78,47.75,86.9,47.56"/>
			<g>
				<path class="st17" d="M86,47.6l-1.08-1.81l0.06-0.04l2.93,1.18c1.02,0.23,2.04,0.46,3.07,0.69c-1.02,0.22-2.05,0.44-3.07,0.66
					l-2.94,1.15l-0.06-0.03L86,47.6z"/>
			</g>
		</g>
	</g>
	<g>
		<g>
			<path class="st23" d="M85.06,47.72c0.34,0.63-0.46,1.06-0.12,1.69c0.34,0.64,1.14,0.21,1.48,0.84c0.34,0.64-0.46,1.06-0.12,1.7
				c0.34,0.64,1.14,0.21,1.48,0.84c0.34,0.64-0.46,1.06-0.12,1.7c0,0.01,0.01,0.02,0.01,0.02"/>
			<g>
				<polygon class="st24" points="85.72,54.81 89.02,57.05 89.31,53.07 				"/>
			</g>
		</g>
	</g>
</g>
<g>
	<path class="st25" d="M6.9,13.76c0.04,0.3,0.12,0.52,0.25,0.66c0.22,0.27,0.61,0.4,1.15,0.4c0.33,0,0.59-0.04,0.79-0.11
		c0.39-0.13,0.58-0.39,0.58-0.75c0-0.21-0.09-0.38-0.28-0.5c-0.19-0.11-0.49-0.22-0.9-0.3l-0.7-0.15c-0.69-0.15-1.16-0.32-1.42-0.5
		c-0.44-0.3-0.65-0.77-0.65-1.4c0-0.58,0.21-1.06,0.64-1.45s1.05-0.58,1.88-0.58c0.69,0,1.28,0.18,1.77,0.54
		c0.49,0.36,0.74,0.89,0.77,1.58h-1.3c-0.02-0.39-0.2-0.67-0.52-0.83c-0.22-0.11-0.49-0.16-0.81-0.16c-0.36,0-0.64,0.07-0.86,0.21
		s-0.32,0.34-0.32,0.59c0,0.23,0.1,0.4,0.32,0.52c0.14,0.08,0.42,0.17,0.86,0.27l1.14,0.27c0.5,0.12,0.87,0.27,1.12,0.47
		c0.39,0.3,0.58,0.75,0.58,1.32c0,0.59-0.23,1.08-0.69,1.47c-0.46,0.39-1.1,0.59-1.94,0.59c-0.85,0-1.52-0.19-2.01-0.58
		c-0.49-0.38-0.73-0.91-0.73-1.59H6.9z"/>
	<path class="st25" d="M15.27,10.99c0.24,0.1,0.44,0.26,0.59,0.47c0.13,0.18,0.21,0.36,0.24,0.55c0.03,0.19,0.04,0.5,0.04,0.93v2.81
		h-1.28v-2.92c0-0.26-0.04-0.47-0.13-0.62c-0.11-0.22-0.33-0.33-0.65-0.33c-0.33,0-0.58,0.11-0.75,0.33
		c-0.17,0.22-0.26,0.54-0.26,0.95v2.6h-1.25V9.3h1.25v2.29c0.18-0.28,0.39-0.47,0.63-0.58c0.24-0.11,0.49-0.16,0.75-0.16
		C14.76,10.84,15.03,10.89,15.27,10.99z"/>
	<path class="st25" d="M19.22,12.84c0.23-0.03,0.4-0.07,0.5-0.11c0.18-0.08,0.27-0.19,0.27-0.36c0-0.2-0.07-0.33-0.21-0.41
		c-0.14-0.07-0.34-0.11-0.61-0.11c-0.3,0-0.51,0.07-0.64,0.22c-0.09,0.11-0.15,0.25-0.18,0.44h-1.21c0.03-0.42,0.14-0.76,0.35-1.03
		c0.33-0.42,0.9-0.63,1.71-0.63c0.53,0,0.99,0.1,1.4,0.31c0.41,0.21,0.61,0.6,0.61,1.18v2.2c0,0.15,0,0.34,0.01,0.55
		c0.01,0.16,0.03,0.28,0.07,0.33s0.1,0.11,0.18,0.15v0.18h-1.36c-0.04-0.1-0.06-0.19-0.08-0.27s-0.03-0.18-0.04-0.29
		c-0.17,0.19-0.37,0.35-0.6,0.48c-0.27,0.16-0.58,0.23-0.92,0.23c-0.44,0-0.8-0.12-1.08-0.37c-0.28-0.25-0.43-0.6-0.43-1.05
		c0-0.59,0.23-1.02,0.69-1.28c0.25-0.14,0.62-0.25,1.11-0.31L19.22,12.84z M19.99,13.43c-0.08,0.05-0.16,0.09-0.24,0.12
		c-0.08,0.03-0.19,0.06-0.34,0.09l-0.29,0.05c-0.27,0.05-0.46,0.1-0.58,0.17c-0.2,0.11-0.3,0.29-0.3,0.53
		c0,0.21,0.06,0.37,0.18,0.46c0.12,0.1,0.27,0.14,0.44,0.14c0.27,0,0.53-0.08,0.76-0.24s0.35-0.45,0.36-0.87V13.43z"/>
	<path class="st25" d="M24.99,10.85c0.02,0,0.05,0,0.11,0.01v1.28c-0.08-0.01-0.15-0.01-0.21-0.02s-0.11,0-0.15,0
		c-0.5,0-0.84,0.16-1.02,0.49c-0.1,0.18-0.15,0.47-0.15,0.85v2.29h-1.26v-4.79h1.2v0.83c0.19-0.32,0.36-0.54,0.51-0.65
		c0.23-0.2,0.54-0.29,0.91-0.29C24.96,10.85,24.98,10.85,24.99,10.85z"/>
	<path class="st25" d="M28.96,11.06c0.33,0.15,0.61,0.39,0.83,0.71c0.2,0.28,0.32,0.61,0.38,0.99c0.03,0.22,0.05,0.54,0.04,0.95
		h-3.49c0.02,0.48,0.19,0.82,0.5,1.01c0.19,0.12,0.42,0.18,0.69,0.18c0.29,0,0.52-0.07,0.7-0.22c0.1-0.08,0.18-0.19,0.26-0.33h1.28
		c-0.03,0.28-0.19,0.57-0.46,0.87c-0.43,0.47-1.03,0.7-1.8,0.7c-0.64,0-1.2-0.2-1.69-0.59s-0.73-1.03-0.73-1.92
		c0-0.83,0.22-1.47,0.66-1.91c0.44-0.44,1.01-0.66,1.71-0.66C28.25,10.84,28.62,10.91,28.96,11.06z M27.08,12.15
		c-0.18,0.18-0.29,0.43-0.33,0.74h2.16c-0.02-0.33-0.13-0.58-0.33-0.76c-0.2-0.17-0.45-0.26-0.74-0.26
		C27.51,11.87,27.26,11.96,27.08,12.15z"/>
	<path class="st25" d="M33.38,11.04c0.23,0.13,0.41,0.3,0.55,0.53V9.29h1.27v6.47h-1.22v-0.66c-0.18,0.28-0.38,0.49-0.61,0.62
		s-0.51,0.19-0.85,0.19c-0.56,0-1.03-0.23-1.41-0.68c-0.38-0.45-0.57-1.03-0.57-1.74c0-0.82,0.19-1.46,0.56-1.93
		c0.38-0.47,0.88-0.7,1.51-0.7C32.9,10.85,33.15,10.92,33.38,11.04z M33.69,14.46c0.18-0.26,0.28-0.6,0.28-1.02
		c0-0.59-0.15-1-0.44-1.26c-0.18-0.15-0.39-0.23-0.63-0.23c-0.37,0-0.64,0.14-0.81,0.42c-0.17,0.28-0.26,0.62-0.26,1.03
		c0,0.44,0.09,0.8,0.26,1.06s0.44,0.4,0.79,0.4S33.5,14.72,33.69,14.46z"/>
	<path class="st25" d="M40.73,12.84c0.23-0.03,0.4-0.07,0.5-0.11c0.18-0.08,0.27-0.19,0.27-0.36c0-0.2-0.07-0.33-0.21-0.41
		c-0.14-0.07-0.34-0.11-0.61-0.11c-0.3,0-0.51,0.07-0.64,0.22c-0.09,0.11-0.15,0.25-0.18,0.44h-1.21c0.03-0.42,0.14-0.76,0.35-1.03
		c0.33-0.42,0.9-0.63,1.71-0.63c0.53,0,0.99,0.1,1.4,0.31c0.41,0.21,0.61,0.6,0.61,1.18v2.2c0,0.15,0,0.34,0.01,0.55
		c0.01,0.16,0.03,0.28,0.07,0.33s0.1,0.11,0.18,0.15v0.18h-1.36c-0.04-0.1-0.06-0.19-0.08-0.27s-0.03-0.18-0.04-0.29
		c-0.17,0.19-0.37,0.35-0.6,0.48c-0.27,0.16-0.58,0.23-0.92,0.23c-0.44,0-0.8-0.12-1.08-0.37c-0.28-0.25-0.43-0.6-0.43-1.05
		c0-0.59,0.23-1.02,0.69-1.28c0.25-0.14,0.62-0.25,1.11-0.31L40.73,12.84z M41.5,13.43c-0.08,0.05-0.16,0.09-0.24,0.12
		c-0.08,0.03-0.19,0.06-0.34,0.09l-0.29,0.05c-0.27,0.05-0.46,0.1-0.58,0.17c-0.2,0.11-0.3,0.29-0.3,0.53
		c0,0.21,0.06,0.37,0.18,0.46c0.12,0.1,0.27,0.14,0.44,0.14c0.27,0,0.53-0.08,0.76-0.24s0.35-0.45,0.36-0.87V13.43z"/>
	<path class="st25" d="M46.71,12.68c-0.02-0.18-0.08-0.34-0.18-0.48c-0.14-0.19-0.36-0.29-0.66-0.29c-0.42,0-0.71,0.21-0.87,0.63
		c-0.08,0.22-0.12,0.52-0.12,0.89c0,0.35,0.04,0.63,0.12,0.85c0.15,0.4,0.43,0.6,0.85,0.6c0.29,0,0.5-0.08,0.63-0.24
		c0.12-0.16,0.2-0.36,0.22-0.62h1.28c-0.03,0.38-0.17,0.74-0.41,1.08c-0.39,0.55-0.98,0.82-1.75,0.82c-0.77,0-1.34-0.23-1.7-0.69
		s-0.55-1.05-0.55-1.78c0-0.82,0.2-1.46,0.6-1.92s0.96-0.69,1.66-0.69c0.6,0,1.09,0.13,1.48,0.4s0.61,0.75,0.68,1.43H46.71z"/>
	<path class="st25" d="M48.36,11.9v-0.89h0.67V9.67h1.24v1.34h0.78v0.89h-0.78v2.53c0,0.2,0.02,0.32,0.07,0.37
		c0.05,0.05,0.2,0.07,0.46,0.07c0.04,0,0.08,0,0.12,0c0.04,0,0.08,0,0.12-0.01v0.94l-0.59,0.02c-0.59,0.02-1-0.08-1.21-0.31
		c-0.14-0.14-0.21-0.36-0.21-0.66V11.9H48.36z"/>
	<path class="st25" d="M53.13,10.4h-1.27V9.24h1.27V10.4z M51.86,10.97h1.27v4.79h-1.27V10.97z"/>
	<path class="st25" d="M57.3,10.97h1.34l-1.73,4.79h-1.32l-1.72-4.79h1.41l1,3.53L57.3,10.97z"/>
	<path class="st25" d="M60.64,10.4h-1.27V9.24h1.27V10.4z M59.37,10.97h1.27v4.79h-1.27V10.97z"/>
	<path class="st25" d="M61.36,11.9v-0.89h0.67V9.67h1.24v1.34h0.78v0.89h-0.78v2.53c0,0.2,0.02,0.32,0.07,0.37
		c0.05,0.05,0.2,0.07,0.46,0.07c0.04,0,0.08,0,0.12,0c0.04,0,0.08,0,0.12-0.01v0.94l-0.59,0.02c-0.59,0.02-1-0.08-1.21-0.31
		c-0.14-0.14-0.21-0.36-0.21-0.66V11.9H61.36z"/>
	<path class="st25" d="M65.04,16.67l0.16,0.01c0.12,0.01,0.24,0,0.35-0.01s0.21-0.05,0.28-0.1c0.07-0.05,0.14-0.15,0.2-0.31
		s0.09-0.25,0.08-0.29l-1.76-5h1.39l1.05,3.53l0.99-3.53h1.33l-1.64,4.71c-0.32,0.91-0.57,1.47-0.75,1.69
		c-0.19,0.22-0.55,0.33-1.11,0.33c-0.11,0-0.2,0-0.27,0c-0.07,0-0.17-0.01-0.3-0.02V16.67z"/>
	<path class="st25" d="M26.05,25.03c0.03,0.22,0.08,0.38,0.17,0.47c0.16,0.17,0.44,0.25,0.87,0.25c0.25,0,0.44-0.04,0.59-0.11
		c0.15-0.07,0.22-0.18,0.22-0.33c0-0.14-0.06-0.25-0.18-0.32c-0.12-0.07-0.55-0.2-1.31-0.38c-0.54-0.13-0.93-0.3-1.15-0.51
		c-0.22-0.2-0.33-0.49-0.33-0.86c0-0.44,0.17-0.82,0.52-1.14c0.35-0.32,0.84-0.48,1.47-0.48c0.6,0,1.09,0.12,1.46,0.36
		c0.38,0.24,0.59,0.65,0.65,1.24h-1.25c-0.02-0.16-0.06-0.29-0.14-0.38c-0.14-0.17-0.37-0.25-0.71-0.25c-0.27,0-0.47,0.04-0.58,0.13
		c-0.12,0.08-0.17,0.18-0.17,0.3c0,0.14,0.06,0.25,0.19,0.31c0.12,0.07,0.56,0.18,1.31,0.35c0.5,0.12,0.87,0.29,1.12,0.53
		c0.25,0.24,0.37,0.54,0.37,0.9c0,0.47-0.18,0.86-0.53,1.16c-0.35,0.3-0.9,0.45-1.64,0.45c-0.75,0-1.31-0.16-1.67-0.48
		c-0.36-0.32-0.54-0.72-0.54-1.21H26.05z"/>
	<path class="st25" d="M34.11,22.28c0.39,0.41,0.59,1.02,0.59,1.82c0,0.84-0.19,1.49-0.57,1.93s-0.87,0.66-1.48,0.66
		c-0.38,0-0.7-0.1-0.96-0.29c-0.14-0.11-0.27-0.26-0.41-0.46v2.5h-1.24v-6.68h1.2v0.71c0.14-0.21,0.28-0.37,0.43-0.49
		c0.28-0.21,0.61-0.32,1-0.32C33.25,21.66,33.72,21.87,34.11,22.28z M33.15,23.18c-0.17-0.28-0.45-0.43-0.83-0.43
		c-0.46,0-0.77,0.22-0.95,0.65c-0.09,0.23-0.13,0.52-0.13,0.87c0,0.56,0.15,0.95,0.45,1.17c0.18,0.13,0.39,0.2,0.63,0.2
		c0.35,0,0.62-0.13,0.81-0.4c0.18-0.27,0.28-0.63,0.28-1.08C33.41,23.79,33.32,23.47,33.15,23.18z"/>
	<path class="st25" d="M37.48,23.64c0.23-0.03,0.4-0.07,0.5-0.11c0.18-0.08,0.27-0.19,0.27-0.36c0-0.2-0.07-0.33-0.21-0.41
		c-0.14-0.07-0.34-0.11-0.61-0.11c-0.3,0-0.51,0.07-0.64,0.22c-0.09,0.11-0.15,0.25-0.18,0.44h-1.21c0.03-0.42,0.14-0.76,0.35-1.03
		c0.33-0.42,0.9-0.63,1.71-0.63c0.53,0,0.99,0.1,1.4,0.31c0.41,0.21,0.61,0.6,0.61,1.18v2.2c0,0.15,0,0.34,0.01,0.55
		c0.01,0.16,0.03,0.28,0.07,0.33s0.1,0.11,0.18,0.15v0.18H38.4c-0.04-0.1-0.06-0.19-0.08-0.27s-0.03-0.18-0.04-0.29
		c-0.17,0.19-0.37,0.35-0.6,0.48c-0.27,0.16-0.58,0.23-0.92,0.23c-0.44,0-0.8-0.12-1.08-0.37c-0.28-0.25-0.43-0.6-0.43-1.05
		c0-0.59,0.23-1.02,0.69-1.28c0.25-0.14,0.62-0.25,1.11-0.31L37.48,23.64z M38.25,24.23c-0.08,0.05-0.16,0.09-0.24,0.12
		c-0.08,0.03-0.19,0.06-0.34,0.09l-0.29,0.05c-0.27,0.05-0.46,0.1-0.58,0.17c-0.2,0.11-0.3,0.29-0.3,0.53
		c0,0.21,0.06,0.37,0.18,0.46c0.12,0.1,0.27,0.14,0.44,0.14c0.27,0,0.53-0.08,0.76-0.24s0.35-0.45,0.36-0.87V24.23z"/>
	<path class="st25" d="M43.45,23.48c-0.02-0.18-0.08-0.34-0.18-0.48c-0.14-0.19-0.36-0.29-0.66-0.29c-0.42,0-0.71,0.21-0.87,0.63
		c-0.08,0.22-0.12,0.52-0.12,0.89c0,0.35,0.04,0.63,0.12,0.85c0.15,0.4,0.43,0.6,0.85,0.6c0.29,0,0.5-0.08,0.63-0.24
		c0.12-0.16,0.2-0.36,0.22-0.62h1.28c-0.03,0.38-0.17,0.74-0.41,1.08c-0.39,0.55-0.98,0.82-1.75,0.82c-0.77,0-1.34-0.23-1.7-0.69
		s-0.55-1.05-0.55-1.78c0-0.82,0.2-1.46,0.6-1.92s0.96-0.69,1.66-0.69c0.6,0,1.09,0.13,1.48,0.4s0.61,0.75,0.68,1.43H43.45z"/>
	<path class="st25" d="M48.71,21.86c0.33,0.15,0.61,0.39,0.83,0.71c0.2,0.28,0.32,0.61,0.38,0.99c0.03,0.22,0.05,0.54,0.04,0.95
		h-3.49c0.02,0.48,0.19,0.82,0.5,1.01c0.19,0.12,0.42,0.18,0.69,0.18c0.29,0,0.52-0.07,0.7-0.22c0.1-0.08,0.18-0.19,0.26-0.33h1.28
		c-0.03,0.28-0.19,0.57-0.46,0.87c-0.43,0.47-1.03,0.7-1.8,0.7c-0.64,0-1.2-0.2-1.69-0.59s-0.73-1.03-0.73-1.92
		c0-0.83,0.22-1.47,0.66-1.91c0.44-0.44,1.01-0.66,1.71-0.66C48,21.64,48.38,21.71,48.71,21.86z M46.84,22.95
		c-0.18,0.18-0.29,0.43-0.33,0.74h2.16c-0.02-0.33-0.13-0.58-0.33-0.76c-0.2-0.17-0.45-0.26-0.74-0.26
		C47.27,22.67,47.02,22.76,46.84,22.95z"/>
</g>
<g>
	<path class="st26" d="M75.19,10.28h1.42l2.57,4.52v-4.52h1.26v6.48h-1.35l-2.64-4.6v4.6h-1.26V10.28z"/>
	<path class="st26" d="M84.74,12.06c0.33,0.15,0.61,0.39,0.83,0.71c0.2,0.28,0.32,0.61,0.38,0.99c0.03,0.22,0.05,0.54,0.04,0.95
		H82.5c0.02,0.48,0.19,0.82,0.5,1.01c0.19,0.12,0.42,0.18,0.69,0.18c0.29,0,0.52-0.07,0.7-0.22c0.1-0.08,0.18-0.19,0.26-0.33h1.28
		c-0.03,0.28-0.19,0.57-0.46,0.87c-0.43,0.47-1.03,0.7-1.8,0.7c-0.64,0-1.2-0.2-1.69-0.59s-0.73-1.03-0.73-1.92
		c0-0.83,0.22-1.47,0.66-1.91c0.44-0.44,1.01-0.66,1.71-0.66C84.03,11.84,84.4,11.91,84.74,12.06z M82.86,13.15
		c-0.18,0.18-0.29,0.43-0.33,0.74h2.16c-0.02-0.33-0.13-0.58-0.33-0.76c-0.2-0.17-0.45-0.26-0.74-0.26
		C83.29,12.87,83.04,12.96,82.86,13.15z"/>
	<path class="st26" d="M87.87,11.97v2.89c0,0.27,0.03,0.48,0.1,0.62c0.11,0.24,0.34,0.36,0.67,0.36c0.43,0,0.72-0.17,0.87-0.52
		c0.08-0.19,0.12-0.44,0.12-0.74v-2.61h1.27v4.79h-1.22v-0.68c-0.01,0.01-0.04,0.06-0.09,0.13s-0.1,0.14-0.17,0.19
		c-0.2,0.18-0.39,0.3-0.57,0.36s-0.4,0.1-0.64,0.1c-0.71,0-1.18-0.25-1.43-0.76c-0.14-0.28-0.21-0.7-0.21-1.24v-2.89H87.87z"/>
	<path class="st26" d="M94.78,11.85c0.02,0,0.05,0,0.11,0.01v1.28c-0.08-0.01-0.15-0.01-0.21-0.02s-0.11,0-0.15,0
		c-0.5,0-0.84,0.16-1.02,0.49c-0.1,0.18-0.14,0.47-0.14,0.85v2.29H92.1v-4.79h1.2v0.83c0.19-0.32,0.36-0.54,0.51-0.65
		c0.23-0.2,0.54-0.29,0.91-0.29C94.74,11.85,94.76,11.85,94.78,11.85z"/>
	<path class="st26" d="M97.52,13.84c0.23-0.03,0.4-0.07,0.5-0.11c0.18-0.08,0.27-0.19,0.27-0.36c0-0.2-0.07-0.33-0.21-0.41
		c-0.14-0.07-0.34-0.11-0.61-0.11c-0.3,0-0.51,0.07-0.64,0.22c-0.09,0.11-0.15,0.25-0.18,0.44h-1.21c0.03-0.42,0.14-0.76,0.35-1.03
		c0.33-0.42,0.9-0.63,1.71-0.63c0.53,0,0.99,0.1,1.4,0.31s0.61,0.6,0.61,1.18v2.2c0,0.15,0,0.34,0.01,0.55
		c0.01,0.16,0.03,0.28,0.08,0.33s0.1,0.11,0.18,0.15v0.18h-1.36c-0.04-0.1-0.06-0.19-0.08-0.27s-0.03-0.18-0.04-0.29
		c-0.17,0.19-0.38,0.35-0.6,0.48c-0.27,0.16-0.58,0.23-0.92,0.23c-0.44,0-0.8-0.12-1.08-0.37c-0.28-0.25-0.43-0.6-0.43-1.05
		c0-0.59,0.23-1.02,0.69-1.28c0.25-0.14,0.62-0.25,1.11-0.31L97.52,13.84z M98.28,14.43c-0.08,0.05-0.16,0.09-0.24,0.12
		c-0.08,0.03-0.19,0.06-0.34,0.09l-0.29,0.05c-0.27,0.05-0.46,0.1-0.58,0.17c-0.2,0.11-0.3,0.29-0.3,0.53
		c0,0.21,0.06,0.37,0.18,0.46c0.12,0.1,0.27,0.14,0.44,0.14c0.27,0,0.53-0.08,0.76-0.24s0.35-0.45,0.36-0.87V14.43z"/>
	<path class="st26" d="M101.9,16.76h-1.25v-6.48h1.25V16.76z"/>
	<path class="st26" d="M107.52,13.84c0.23-0.03,0.4-0.07,0.5-0.11c0.18-0.08,0.27-0.19,0.27-0.36c0-0.2-0.07-0.33-0.21-0.41
		c-0.14-0.07-0.34-0.11-0.61-0.11c-0.3,0-0.51,0.07-0.64,0.22c-0.09,0.11-0.15,0.25-0.18,0.44h-1.21c0.03-0.42,0.14-0.76,0.35-1.03
		c0.33-0.42,0.9-0.63,1.71-0.63c0.53,0,1,0.1,1.4,0.31c0.41,0.21,0.61,0.6,0.61,1.18v2.2c0,0.15,0,0.34,0.01,0.55
		c0.01,0.16,0.03,0.28,0.07,0.33s0.1,0.11,0.18,0.15v0.18h-1.36c-0.04-0.1-0.06-0.19-0.08-0.27s-0.03-0.18-0.04-0.29
		c-0.17,0.19-0.37,0.35-0.6,0.48c-0.27,0.16-0.58,0.23-0.92,0.23c-0.44,0-0.8-0.12-1.08-0.37c-0.29-0.25-0.43-0.6-0.43-1.05
		c0-0.59,0.23-1.02,0.69-1.28c0.25-0.14,0.62-0.25,1.11-0.31L107.52,13.84z M108.29,14.43c-0.08,0.05-0.16,0.09-0.24,0.12
		c-0.08,0.03-0.19,0.06-0.34,0.09l-0.29,0.05c-0.27,0.05-0.46,0.1-0.58,0.17c-0.2,0.11-0.3,0.29-0.3,0.53
		c0,0.21,0.06,0.37,0.18,0.46c0.12,0.1,0.27,0.14,0.44,0.14c0.27,0,0.53-0.08,0.76-0.24s0.35-0.45,0.36-0.87V14.43z"/>
	<path class="st26" d="M113.5,13.69c-0.02-0.18-0.08-0.34-0.18-0.48c-0.14-0.19-0.36-0.29-0.66-0.29c-0.42,0-0.71,0.21-0.87,0.63
		c-0.08,0.22-0.12,0.52-0.12,0.89c0,0.35,0.04,0.63,0.12,0.85c0.15,0.4,0.43,0.6,0.85,0.6c0.29,0,0.5-0.08,0.62-0.24
		s0.2-0.36,0.22-0.62h1.28c-0.03,0.38-0.17,0.74-0.41,1.08c-0.39,0.55-0.97,0.82-1.75,0.82s-1.34-0.23-1.7-0.69
		c-0.36-0.46-0.55-1.05-0.55-1.78c0-0.82,0.2-1.46,0.6-1.92c0.4-0.46,0.96-0.69,1.66-0.69c0.6,0,1.09,0.13,1.48,0.4
		s0.61,0.75,0.68,1.43H113.5z"/>
	<path class="st26" d="M115.14,12.9v-0.89h0.67v-1.34h1.24v1.34h0.78v0.89h-0.78v2.53c0,0.2,0.02,0.32,0.07,0.37
		c0.05,0.05,0.2,0.07,0.46,0.07c0.04,0,0.08,0,0.12,0c0.04,0,0.08,0,0.12-0.01v0.94l-0.59,0.02c-0.59,0.02-1-0.08-1.21-0.31
		c-0.14-0.14-0.21-0.36-0.21-0.66V12.9H115.14z"/>
	<path class="st26" d="M119.92,11.4h-1.27v-1.16h1.27V11.4z M118.65,11.97h1.27v4.79h-1.27V11.97z"/>
	<path class="st26" d="M124.08,11.97h1.34l-1.73,4.79h-1.32l-1.72-4.79h1.41l1,3.53L124.08,11.97z"/>
	<path class="st26" d="M127.43,11.4h-1.27v-1.16h1.27V11.4z M126.16,11.97h1.27v4.79h-1.27V11.97z"/>
	<path class="st26" d="M128.15,12.9v-0.89h0.67v-1.34h1.24v1.34h0.78v0.89h-0.78v2.53c0,0.2,0.03,0.32,0.08,0.37
		c0.05,0.05,0.2,0.07,0.46,0.07c0.04,0,0.08,0,0.12,0c0.04,0,0.08,0,0.12-0.01v0.94l-0.59,0.02c-0.59,0.02-1-0.08-1.21-0.31
		c-0.14-0.14-0.21-0.36-0.21-0.66V12.9H128.15z"/>
	<path class="st26" d="M131.83,17.68l0.16,0.01c0.12,0.01,0.24,0,0.35-0.01s0.21-0.05,0.28-0.1c0.07-0.05,0.14-0.15,0.2-0.31
		c0.06-0.16,0.09-0.25,0.08-0.29l-1.76-5h1.39l1.05,3.53l0.99-3.53h1.33l-1.64,4.71c-0.32,0.91-0.57,1.47-0.75,1.69
		c-0.19,0.22-0.55,0.33-1.11,0.33c-0.11,0-0.2,0-0.27,0c-0.07,0-0.17-0.01-0.3-0.02V17.68z"/>
</g>
<g>
</g>
<g>
</g>
<g>
</g>
<g>
</g>
<g>
</g>
</svg>
